<mxfile host="Electron" agent="Mozilla/5.0 (Windows NT 10.0; Win64; x64) AppleWebKit/537.36 (KHTML, like Gecko) draw.io/28.0.6 Chrome/138.0.7204.100 Electron/37.2.3 Safari/537.36" version="28.0.6">
  <diagram name="Page-1" id="jr8FtHmjYh3H3wMhECX3">
    <mxGraphModel dx="2540" dy="2187" grid="1" gridSize="10" guides="1" tooltips="1" connect="1" arrows="1" fold="1" page="1" pageScale="1" pageWidth="827" pageHeight="1169" math="0" shadow="0">
      <root>
        <mxCell id="0" />
        <mxCell id="1" parent="0" />
        <mxCell id="04XY_-OeRvuLBQSi6XDU-1" value="&lt;font style=&quot;font-size: 15px;&quot;&gt;User&lt;/font&gt;" style="rounded=0;whiteSpace=wrap;html=1;fontFamily=Comic Sans MS;" parent="1" vertex="1">
          <mxGeometry x="370" y="-40" width="180" height="80" as="geometry" />
        </mxCell>
        <mxCell id="04XY_-OeRvuLBQSi6XDU-2" value="&lt;font style=&quot;font-size: 15px;&quot;&gt;User_Role&lt;/font&gt;" style="rounded=0;whiteSpace=wrap;html=1;fontFamily=Comic Sans MS;" parent="1" vertex="1">
          <mxGeometry x="50" y="-40" width="180" height="80" as="geometry" />
        </mxCell>
        <mxCell id="04XY_-OeRvuLBQSi6XDU-3" value="assigned" style="rhombus;whiteSpace=wrap;html=1;fontFamily=Comic Sans MS;" parent="1" vertex="1">
          <mxGeometry x="260" y="-40" width="80" height="80" as="geometry" />
        </mxCell>
        <mxCell id="04XY_-OeRvuLBQSi6XDU-4" value="" style="endArrow=none;html=1;rounded=0;entryX=0;entryY=0.5;entryDx=0;entryDy=0;exitX=1;exitY=0.5;exitDx=0;exitDy=0;fontFamily=Comic Sans MS;" parent="1" source="04XY_-OeRvuLBQSi6XDU-3" target="04XY_-OeRvuLBQSi6XDU-1" edge="1">
          <mxGeometry width="50" height="50" relative="1" as="geometry">
            <mxPoint x="310" y="110" as="sourcePoint" />
            <mxPoint x="360" y="60" as="targetPoint" />
          </mxGeometry>
        </mxCell>
        <mxCell id="04XY_-OeRvuLBQSi6XDU-5" value="" style="endArrow=none;html=1;rounded=0;entryX=0;entryY=0.5;entryDx=0;entryDy=0;exitX=1;exitY=0.5;exitDx=0;exitDy=0;fontFamily=Comic Sans MS;" parent="1" source="04XY_-OeRvuLBQSi6XDU-2" target="04XY_-OeRvuLBQSi6XDU-3" edge="1">
          <mxGeometry width="50" height="50" relative="1" as="geometry">
            <mxPoint x="220" y="100" as="sourcePoint" />
            <mxPoint x="270" y="50" as="targetPoint" />
          </mxGeometry>
        </mxCell>
        <mxCell id="04XY_-OeRvuLBQSi6XDU-6" value="1" style="text;html=1;align=center;verticalAlign=middle;resizable=0;points=[];autosize=1;strokeColor=none;fillColor=none;fontFamily=Comic Sans MS;" parent="1" vertex="1">
          <mxGeometry x="340" y="-40" width="30" height="30" as="geometry" />
        </mxCell>
        <mxCell id="04XY_-OeRvuLBQSi6XDU-7" value="M" style="text;html=1;align=center;verticalAlign=middle;resizable=0;points=[];autosize=1;strokeColor=none;fillColor=none;fontFamily=Comic Sans MS;" parent="1" vertex="1">
          <mxGeometry x="230" y="-40" width="30" height="30" as="geometry" />
        </mxCell>
        <mxCell id="04XY_-OeRvuLBQSi6XDU-18" value="assigned" style="rhombus;whiteSpace=wrap;html=1;fontFamily=Comic Sans MS;" parent="1" vertex="1">
          <mxGeometry x="-60" y="-40" width="80" height="80" as="geometry" />
        </mxCell>
        <mxCell id="04XY_-OeRvuLBQSi6XDU-19" value="" style="endArrow=none;html=1;rounded=0;entryX=0;entryY=0.5;entryDx=0;entryDy=0;exitX=1;exitY=0.5;exitDx=0;exitDy=0;fontFamily=Comic Sans MS;" parent="1" source="04XY_-OeRvuLBQSi6XDU-18" edge="1">
          <mxGeometry width="50" height="50" relative="1" as="geometry">
            <mxPoint x="-10" y="110" as="sourcePoint" />
            <mxPoint x="50" as="targetPoint" />
          </mxGeometry>
        </mxCell>
        <mxCell id="04XY_-OeRvuLBQSi6XDU-20" value="" style="endArrow=none;html=1;rounded=0;entryX=0;entryY=0.5;entryDx=0;entryDy=0;exitX=1;exitY=0.5;exitDx=0;exitDy=0;fontFamily=Comic Sans MS;" parent="1" target="04XY_-OeRvuLBQSi6XDU-18" edge="1">
          <mxGeometry width="50" height="50" relative="1" as="geometry">
            <mxPoint x="-90" as="sourcePoint" />
            <mxPoint x="-50" y="50" as="targetPoint" />
          </mxGeometry>
        </mxCell>
        <mxCell id="04XY_-OeRvuLBQSi6XDU-21" value="&lt;font style=&quot;font-size: 15px;&quot;&gt;Role&lt;/font&gt;" style="rounded=0;whiteSpace=wrap;html=1;fontFamily=Comic Sans MS;" parent="1" vertex="1">
          <mxGeometry x="-270" y="-40" width="180" height="80" as="geometry" />
        </mxCell>
        <mxCell id="04XY_-OeRvuLBQSi6XDU-22" value="1" style="text;html=1;align=center;verticalAlign=middle;resizable=0;points=[];autosize=1;strokeColor=none;fillColor=none;fontFamily=Comic Sans MS;" parent="1" vertex="1">
          <mxGeometry x="-90" y="-42" width="30" height="30" as="geometry" />
        </mxCell>
        <mxCell id="04XY_-OeRvuLBQSi6XDU-23" value="M" style="text;html=1;align=center;verticalAlign=middle;resizable=0;points=[];autosize=1;strokeColor=none;fillColor=none;fontFamily=Comic Sans MS;" parent="1" vertex="1">
          <mxGeometry x="20" y="-40" width="30" height="30" as="geometry" />
        </mxCell>
        <mxCell id="04XY_-OeRvuLBQSi6XDU-24" value="&lt;u&gt;&lt;b&gt;id&lt;/b&gt;&lt;/u&gt;" style="ellipse;whiteSpace=wrap;html=1;fontSize=14;fontFamily=Comic Sans MS;" parent="1" vertex="1">
          <mxGeometry x="-290" y="-100" width="60" height="50" as="geometry" />
        </mxCell>
        <mxCell id="04XY_-OeRvuLBQSi6XDU-25" value="name" style="ellipse;whiteSpace=wrap;html=1;fontSize=14;fontFamily=Comic Sans MS;" parent="1" vertex="1">
          <mxGeometry x="-220" y="-110" width="60" height="50" as="geometry" />
        </mxCell>
        <mxCell id="04XY_-OeRvuLBQSi6XDU-26" value="" style="endArrow=none;html=1;rounded=0;entryX=0.5;entryY=1;entryDx=0;entryDy=0;exitX=0.25;exitY=0;exitDx=0;exitDy=0;fontFamily=Comic Sans MS;" parent="1" source="04XY_-OeRvuLBQSi6XDU-21" target="04XY_-OeRvuLBQSi6XDU-24" edge="1">
          <mxGeometry width="50" height="50" relative="1" as="geometry">
            <mxPoint x="10" y="50" as="sourcePoint" />
            <mxPoint x="60" as="targetPoint" />
          </mxGeometry>
        </mxCell>
        <mxCell id="04XY_-OeRvuLBQSi6XDU-27" value="" style="endArrow=none;html=1;rounded=0;exitX=0.5;exitY=1;exitDx=0;exitDy=0;entryX=0.5;entryY=0;entryDx=0;entryDy=0;fontFamily=Comic Sans MS;" parent="1" source="04XY_-OeRvuLBQSi6XDU-25" target="04XY_-OeRvuLBQSi6XDU-21" edge="1">
          <mxGeometry width="50" height="50" relative="1" as="geometry">
            <mxPoint x="-100" y="-80" as="sourcePoint" />
            <mxPoint x="-50" y="-130" as="targetPoint" />
          </mxGeometry>
        </mxCell>
        <mxCell id="04XY_-OeRvuLBQSi6XDU-30" value="&lt;u&gt;&lt;b&gt;id&lt;/b&gt;&lt;/u&gt;" style="ellipse;whiteSpace=wrap;html=1;fontSize=14;fontFamily=Comic Sans MS;" parent="1" vertex="1">
          <mxGeometry x="350" y="-120" width="60" height="50" as="geometry" />
        </mxCell>
        <mxCell id="04XY_-OeRvuLBQSi6XDU-31" value="name" style="ellipse;whiteSpace=wrap;html=1;fontSize=14;fontFamily=Comic Sans MS;" parent="1" vertex="1">
          <mxGeometry x="370" y="-180" width="60" height="50" as="geometry" />
        </mxCell>
        <mxCell id="04XY_-OeRvuLBQSi6XDU-32" value="email" style="ellipse;whiteSpace=wrap;html=1;fontSize=14;fontFamily=Comic Sans MS;" parent="1" vertex="1">
          <mxGeometry x="525" y="-130" width="60" height="50" as="geometry" />
        </mxCell>
        <mxCell id="04XY_-OeRvuLBQSi6XDU-33" value="phone" style="ellipse;whiteSpace=wrap;html=1;fontSize=14;fontFamily=Comic Sans MS;" parent="1" vertex="1">
          <mxGeometry x="655" y="-110" width="60" height="50" as="geometry" />
        </mxCell>
        <mxCell id="04XY_-OeRvuLBQSi6XDU-34" value="" style="endArrow=none;html=1;rounded=0;entryX=0.5;entryY=1;entryDx=0;entryDy=0;exitX=0.115;exitY=-0.027;exitDx=0;exitDy=0;exitPerimeter=0;fontFamily=Comic Sans MS;" parent="1" source="04XY_-OeRvuLBQSi6XDU-1" target="04XY_-OeRvuLBQSi6XDU-30" edge="1">
          <mxGeometry width="50" height="50" relative="1" as="geometry">
            <mxPoint x="420" y="-10" as="sourcePoint" />
            <mxPoint x="470" y="-60" as="targetPoint" />
          </mxGeometry>
        </mxCell>
        <mxCell id="04XY_-OeRvuLBQSi6XDU-35" value="" style="endArrow=none;html=1;rounded=0;entryX=0.5;entryY=1;entryDx=0;entryDy=0;exitX=0.5;exitY=0;exitDx=0;exitDy=0;fontFamily=Comic Sans MS;" parent="1" source="04XY_-OeRvuLBQSi6XDU-1" target="04XY_-OeRvuLBQSi6XDU-31" edge="1">
          <mxGeometry width="50" height="50" relative="1" as="geometry">
            <mxPoint x="420" as="sourcePoint" />
            <mxPoint x="470" y="-50" as="targetPoint" />
          </mxGeometry>
        </mxCell>
        <mxCell id="04XY_-OeRvuLBQSi6XDU-36" value="" style="endArrow=none;html=1;rounded=0;entryX=0.5;entryY=1;entryDx=0;entryDy=0;exitX=0.778;exitY=0;exitDx=0;exitDy=0;exitPerimeter=0;fontFamily=Comic Sans MS;" parent="1" source="04XY_-OeRvuLBQSi6XDU-1" target="04XY_-OeRvuLBQSi6XDU-32" edge="1">
          <mxGeometry width="50" height="50" relative="1" as="geometry">
            <mxPoint x="470" y="-20" as="sourcePoint" />
            <mxPoint x="520" y="-70" as="targetPoint" />
          </mxGeometry>
        </mxCell>
        <mxCell id="04XY_-OeRvuLBQSi6XDU-37" value="" style="endArrow=none;html=1;rounded=0;entryX=0;entryY=0.5;entryDx=0;entryDy=0;exitX=1;exitY=0.25;exitDx=0;exitDy=0;fontFamily=Comic Sans MS;" parent="1" source="04XY_-OeRvuLBQSi6XDU-1" target="04XY_-OeRvuLBQSi6XDU-33" edge="1">
          <mxGeometry width="50" height="50" relative="1" as="geometry">
            <mxPoint x="570" y="20" as="sourcePoint" />
            <mxPoint x="620" y="-30" as="targetPoint" />
          </mxGeometry>
        </mxCell>
        <mxCell id="04XY_-OeRvuLBQSi6XDU-38" value="password" style="ellipse;whiteSpace=wrap;html=1;fontSize=14;fontFamily=Comic Sans MS;" parent="1" vertex="1">
          <mxGeometry x="750" y="-105" width="70" height="60" as="geometry" />
        </mxCell>
        <mxCell id="04XY_-OeRvuLBQSi6XDU-39" value="" style="endArrow=none;html=1;rounded=0;entryX=0;entryY=0.5;entryDx=0;entryDy=0;exitX=1;exitY=0.5;exitDx=0;exitDy=0;fontFamily=Comic Sans MS;" parent="1" source="04XY_-OeRvuLBQSi6XDU-1" target="04XY_-OeRvuLBQSi6XDU-38" edge="1">
          <mxGeometry width="50" height="50" relative="1" as="geometry">
            <mxPoint x="550" y="60" as="sourcePoint" />
            <mxPoint x="600" y="10" as="targetPoint" />
          </mxGeometry>
        </mxCell>
        <mxCell id="04XY_-OeRvuLBQSi6XDU-43" value="profile&amp;nbsp;&lt;div&gt;image&lt;/div&gt;" style="ellipse;whiteSpace=wrap;html=1;fontSize=14;fontFamily=Comic Sans MS;" parent="1" vertex="1">
          <mxGeometry x="595" y="73" width="70" height="60" as="geometry" />
        </mxCell>
        <mxCell id="04XY_-OeRvuLBQSi6XDU-44" value="" style="endArrow=none;html=1;rounded=0;entryX=0.993;entryY=0.646;entryDx=0;entryDy=0;entryPerimeter=0;exitX=0.002;exitY=0.414;exitDx=0;exitDy=0;exitPerimeter=0;fontFamily=Comic Sans MS;" parent="1" source="04XY_-OeRvuLBQSi6XDU-43" target="04XY_-OeRvuLBQSi6XDU-1" edge="1">
          <mxGeometry width="50" height="50" relative="1" as="geometry">
            <mxPoint x="520" y="110" as="sourcePoint" />
            <mxPoint x="570" y="60" as="targetPoint" />
          </mxGeometry>
        </mxCell>
        <mxCell id="04XY_-OeRvuLBQSi6XDU-46" value="&lt;span style=&quot;text-align: left;&quot;&gt;&lt;font&gt;Property&lt;/font&gt;&lt;/span&gt;" style="rounded=0;whiteSpace=wrap;html=1;fontFamily=Comic Sans MS;fontSize=14;" parent="1" vertex="1">
          <mxGeometry x="380" y="639" width="180" height="80" as="geometry" />
        </mxCell>
        <mxCell id="04XY_-OeRvuLBQSi6XDU-47" value="&lt;span style=&quot;text-align: left;&quot;&gt;&lt;font&gt;Property_&lt;/font&gt;&lt;/span&gt;category" style="rounded=0;whiteSpace=wrap;html=1;fontFamily=Comic Sans MS;fontSize=14;" parent="1" vertex="1">
          <mxGeometry x="380" y="1210" width="180" height="80" as="geometry" />
        </mxCell>
        <mxCell id="04XY_-OeRvuLBQSi6XDU-52" value="name" style="ellipse;whiteSpace=wrap;html=1;fontSize=14;fontFamily=Comic Sans MS;" parent="1" vertex="1">
          <mxGeometry x="767" y="504" width="60" height="50" as="geometry" />
        </mxCell>
        <mxCell id="04XY_-OeRvuLBQSi6XDU-53" value="" style="endArrow=none;html=1;rounded=0;exitX=1;exitY=0;exitDx=0;exitDy=0;fontFamily=Comic Sans MS;" parent="1" source="04XY_-OeRvuLBQSi6XDU-46" target="04XY_-OeRvuLBQSi6XDU-52" edge="1">
          <mxGeometry width="50" height="50" relative="1" as="geometry">
            <mxPoint x="590" y="714" as="sourcePoint" />
            <mxPoint x="640" y="684" as="targetPoint" />
          </mxGeometry>
        </mxCell>
        <mxCell id="04XY_-OeRvuLBQSi6XDU-56" value="slug" style="ellipse;whiteSpace=wrap;html=1;fontSize=14;fontFamily=Comic Sans MS;" parent="1" vertex="1">
          <mxGeometry x="985" y="584.5" width="60" height="50" as="geometry" />
        </mxCell>
        <mxCell id="04XY_-OeRvuLBQSi6XDU-57" value="" style="endArrow=none;html=1;rounded=0;entryX=0.057;entryY=0.378;entryDx=0;entryDy=0;exitX=0.986;exitY=0.355;exitDx=0;exitDy=0;entryPerimeter=0;exitPerimeter=0;fontFamily=Comic Sans MS;" parent="1" source="04XY_-OeRvuLBQSi6XDU-46" target="04XY_-OeRvuLBQSi6XDU-56" edge="1">
          <mxGeometry width="50" height="50" relative="1" as="geometry">
            <mxPoint x="570" y="774" as="sourcePoint" />
            <mxPoint x="620" y="724" as="targetPoint" />
          </mxGeometry>
        </mxCell>
        <mxCell id="04XY_-OeRvuLBQSi6XDU-59" value="description" style="ellipse;whiteSpace=wrap;html=1;fontSize=14;fontFamily=Comic Sans MS;" parent="1" vertex="1">
          <mxGeometry x="955" y="755" width="90" height="70" as="geometry" />
        </mxCell>
        <mxCell id="04XY_-OeRvuLBQSi6XDU-60" value="" style="endArrow=none;html=1;rounded=0;exitX=1.004;exitY=0.58;exitDx=0;exitDy=0;exitPerimeter=0;fontFamily=Comic Sans MS;entryX=0;entryY=0.5;entryDx=0;entryDy=0;" parent="1" source="04XY_-OeRvuLBQSi6XDU-46" target="04XY_-OeRvuLBQSi6XDU-59" edge="1">
          <mxGeometry width="50" height="50" relative="1" as="geometry">
            <mxPoint x="550" y="784" as="sourcePoint" />
            <mxPoint x="1000" y="760" as="targetPoint" />
            <Array as="points">
              <mxPoint x="770" y="722" />
            </Array>
          </mxGeometry>
        </mxCell>
        <mxCell id="04XY_-OeRvuLBQSi6XDU-61" value="&lt;u&gt;&lt;b&gt;id&lt;/b&gt;&lt;/u&gt;" style="ellipse;whiteSpace=wrap;html=1;fontSize=14;fontFamily=Comic Sans MS;" parent="1" vertex="1">
          <mxGeometry x="580" y="1180" width="60" height="50" as="geometry" />
        </mxCell>
        <mxCell id="04XY_-OeRvuLBQSi6XDU-62" value="name" style="ellipse;whiteSpace=wrap;html=1;fontSize=14;fontFamily=Comic Sans MS;" parent="1" vertex="1">
          <mxGeometry x="650" y="1240" width="60" height="50" as="geometry" />
        </mxCell>
        <mxCell id="04XY_-OeRvuLBQSi6XDU-63" value="" style="endArrow=none;html=1;rounded=0;exitX=0;exitY=1;exitDx=0;exitDy=0;entryX=1;entryY=0.5;entryDx=0;entryDy=0;fontFamily=Comic Sans MS;" parent="1" source="04XY_-OeRvuLBQSi6XDU-61" target="04XY_-OeRvuLBQSi6XDU-47" edge="1">
          <mxGeometry width="50" height="50" relative="1" as="geometry">
            <mxPoint x="590" y="990" as="sourcePoint" />
            <mxPoint x="640" y="940" as="targetPoint" />
          </mxGeometry>
        </mxCell>
        <mxCell id="04XY_-OeRvuLBQSi6XDU-64" value="" style="endArrow=none;html=1;rounded=0;entryX=0;entryY=0.5;entryDx=0;entryDy=0;exitX=1;exitY=0.75;exitDx=0;exitDy=0;fontFamily=Comic Sans MS;" parent="1" source="04XY_-OeRvuLBQSi6XDU-47" target="04XY_-OeRvuLBQSi6XDU-62" edge="1">
          <mxGeometry width="50" height="50" relative="1" as="geometry">
            <mxPoint x="540" y="1060" as="sourcePoint" />
            <mxPoint x="590" y="1010" as="targetPoint" />
          </mxGeometry>
        </mxCell>
        <mxCell id="04XY_-OeRvuLBQSi6XDU-69" value="&lt;div style=&quot;text-align: left;&quot;&gt;&lt;font&gt;Property_&lt;/font&gt;&lt;span style=&quot;text-align: center;&quot;&gt;category_Association&lt;/span&gt;&lt;/div&gt;" style="rounded=0;whiteSpace=wrap;html=1;fontFamily=Comic Sans MS;fontSize=14;" parent="1" vertex="1">
          <mxGeometry x="360" y="950" width="220" height="90" as="geometry" />
        </mxCell>
        <mxCell id="04XY_-OeRvuLBQSi6XDU-70" value="&lt;u&gt;&lt;b&gt;user id&lt;/b&gt;&lt;/u&gt;" style="ellipse;whiteSpace=wrap;html=1;fontSize=14;fontFamily=Comic Sans MS;" parent="1" vertex="1">
          <mxGeometry x="75" y="-130" width="60" height="50" as="geometry" />
        </mxCell>
        <mxCell id="04XY_-OeRvuLBQSi6XDU-71" value="&lt;u&gt;&lt;b&gt;role id&lt;/b&gt;&lt;/u&gt;" style="ellipse;whiteSpace=wrap;html=1;fontSize=14;fontFamily=Comic Sans MS;" parent="1" vertex="1">
          <mxGeometry x="160" y="-110" width="60" height="50" as="geometry" />
        </mxCell>
        <mxCell id="04XY_-OeRvuLBQSi6XDU-72" value="" style="endArrow=none;html=1;rounded=0;entryX=0.5;entryY=1;entryDx=0;entryDy=0;exitX=0.25;exitY=0;exitDx=0;exitDy=0;fontFamily=Comic Sans MS;" parent="1" source="04XY_-OeRvuLBQSi6XDU-2" target="04XY_-OeRvuLBQSi6XDU-70" edge="1">
          <mxGeometry width="50" height="50" relative="1" as="geometry">
            <mxPoint x="50" as="sourcePoint" />
            <mxPoint x="100" y="-50" as="targetPoint" />
          </mxGeometry>
        </mxCell>
        <mxCell id="04XY_-OeRvuLBQSi6XDU-73" value="" style="endArrow=none;html=1;rounded=0;entryX=0.5;entryY=1;entryDx=0;entryDy=0;exitX=0.75;exitY=0;exitDx=0;exitDy=0;fontFamily=Comic Sans MS;" parent="1" source="04XY_-OeRvuLBQSi6XDU-2" target="04XY_-OeRvuLBQSi6XDU-71" edge="1">
          <mxGeometry width="50" height="50" relative="1" as="geometry">
            <mxPoint x="180" y="-30" as="sourcePoint" />
            <mxPoint x="230" y="-80" as="targetPoint" />
          </mxGeometry>
        </mxCell>
        <mxCell id="04XY_-OeRvuLBQSi6XDU-74" value="has" style="rhombus;whiteSpace=wrap;html=1;fontFamily=Comic Sans MS;" parent="1" vertex="1">
          <mxGeometry x="440" y="825" width="80" height="80" as="geometry" />
        </mxCell>
        <mxCell id="04XY_-OeRvuLBQSi6XDU-75" value="" style="endArrow=none;html=1;rounded=0;entryX=0.567;entryY=0.994;entryDx=0;entryDy=0;entryPerimeter=0;exitX=0.5;exitY=0;exitDx=0;exitDy=0;fontFamily=Comic Sans MS;" parent="1" target="04XY_-OeRvuLBQSi6XDU-46" edge="1">
          <mxGeometry width="50" height="50" relative="1" as="geometry">
            <mxPoint x="480" y="822" as="sourcePoint" />
            <mxPoint x="410" y="754" as="targetPoint" />
          </mxGeometry>
        </mxCell>
        <mxCell id="04XY_-OeRvuLBQSi6XDU-76" value="" style="endArrow=none;html=1;rounded=0;entryX=0.5;entryY=1;entryDx=0;entryDy=0;exitX=0.545;exitY=0.039;exitDx=0;exitDy=0;exitPerimeter=0;fontFamily=Comic Sans MS;" parent="1" source="04XY_-OeRvuLBQSi6XDU-69" target="04XY_-OeRvuLBQSi6XDU-74" edge="1">
          <mxGeometry width="50" height="50" relative="1" as="geometry">
            <mxPoint x="300" y="780" as="sourcePoint" />
            <mxPoint x="350" y="730" as="targetPoint" />
          </mxGeometry>
        </mxCell>
        <mxCell id="04XY_-OeRvuLBQSi6XDU-78" value="has" style="rhombus;whiteSpace=wrap;html=1;fontFamily=Comic Sans MS;" parent="1" vertex="1">
          <mxGeometry x="430" y="1100" width="80" height="80" as="geometry" />
        </mxCell>
        <mxCell id="04XY_-OeRvuLBQSi6XDU-79" value="" style="endArrow=none;html=1;rounded=0;entryX=0.5;entryY=1;entryDx=0;entryDy=0;exitX=0.5;exitY=0;exitDx=0;exitDy=0;fontFamily=Comic Sans MS;" parent="1" source="04XY_-OeRvuLBQSi6XDU-78" target="04XY_-OeRvuLBQSi6XDU-69" edge="1">
          <mxGeometry width="50" height="50" relative="1" as="geometry">
            <mxPoint x="390" y="970" as="sourcePoint" />
            <mxPoint x="440" y="920" as="targetPoint" />
          </mxGeometry>
        </mxCell>
        <mxCell id="04XY_-OeRvuLBQSi6XDU-80" value="" style="endArrow=none;html=1;rounded=0;entryX=0.5;entryY=1;entryDx=0;entryDy=0;exitX=0.5;exitY=0;exitDx=0;exitDy=0;fontFamily=Comic Sans MS;" parent="1" source="04XY_-OeRvuLBQSi6XDU-47" target="04XY_-OeRvuLBQSi6XDU-78" edge="1">
          <mxGeometry width="50" height="50" relative="1" as="geometry">
            <mxPoint x="400" y="1050" as="sourcePoint" />
            <mxPoint x="450" y="1000" as="targetPoint" />
          </mxGeometry>
        </mxCell>
        <mxCell id="04XY_-OeRvuLBQSi6XDU-81" value="1" style="text;html=1;align=center;verticalAlign=middle;resizable=0;points=[];autosize=1;strokeColor=none;fillColor=none;fontFamily=Comic Sans MS;" parent="1" vertex="1">
          <mxGeometry x="450" y="719" width="30" height="30" as="geometry" />
        </mxCell>
        <mxCell id="04XY_-OeRvuLBQSi6XDU-82" value="M" style="text;html=1;align=center;verticalAlign=middle;resizable=0;points=[];autosize=1;strokeColor=none;fillColor=none;fontFamily=Comic Sans MS;" parent="1" vertex="1">
          <mxGeometry x="440" y="1050" width="30" height="30" as="geometry" />
        </mxCell>
        <mxCell id="04XY_-OeRvuLBQSi6XDU-83" value="1" style="text;html=1;align=center;verticalAlign=middle;resizable=0;points=[];autosize=1;strokeColor=none;fillColor=none;fontFamily=Comic Sans MS;" parent="1" vertex="1">
          <mxGeometry x="440" y="1130" width="30" height="30" as="geometry" />
        </mxCell>
        <mxCell id="04XY_-OeRvuLBQSi6XDU-84" value="M" style="text;html=1;align=center;verticalAlign=middle;resizable=0;points=[];autosize=1;strokeColor=none;fillColor=none;fontFamily=Comic Sans MS;" parent="1" vertex="1">
          <mxGeometry x="450" y="915" width="30" height="30" as="geometry" />
        </mxCell>
        <mxCell id="04XY_-OeRvuLBQSi6XDU-85" value="price" style="ellipse;whiteSpace=wrap;html=1;fontSize=14;fontFamily=Comic Sans MS;" parent="1" vertex="1">
          <mxGeometry x="340" y="779" width="50" height="40" as="geometry" />
        </mxCell>
        <mxCell id="04XY_-OeRvuLBQSi6XDU-87" value="&lt;span style=&quot;text-align: left;&quot;&gt;&lt;font&gt;Property Status&lt;/font&gt;&lt;/span&gt;" style="rounded=0;whiteSpace=wrap;html=1;fontFamily=Comic Sans MS;fontSize=14;" parent="1" vertex="1">
          <mxGeometry x="1550" y="815" width="180" height="80" as="geometry" />
        </mxCell>
        <mxCell id="04XY_-OeRvuLBQSi6XDU-88" value="has" style="rhombus;whiteSpace=wrap;html=1;fontFamily=Comic Sans MS;" parent="1" vertex="1">
          <mxGeometry x="760" y="642" width="80" height="80" as="geometry" />
        </mxCell>
        <mxCell id="04XY_-OeRvuLBQSi6XDU-89" value="" style="endArrow=none;html=1;rounded=0;entryX=0;entryY=0.5;entryDx=0;entryDy=0;exitX=1;exitY=0.5;exitDx=0;exitDy=0;fontFamily=Comic Sans MS;" parent="1" source="04XY_-OeRvuLBQSi6XDU-88" target="04XY_-OeRvuLBQSi6XDU-87" edge="1">
          <mxGeometry width="50" height="50" relative="1" as="geometry">
            <mxPoint x="880" y="744" as="sourcePoint" />
            <mxPoint x="930" y="682" as="targetPoint" />
          </mxGeometry>
        </mxCell>
        <mxCell id="04XY_-OeRvuLBQSi6XDU-90" value="" style="endArrow=none;html=1;rounded=0;entryX=0;entryY=0.5;entryDx=0;entryDy=0;exitX=1;exitY=0.5;exitDx=0;exitDy=0;fontFamily=Comic Sans MS;" parent="1" source="04XY_-OeRvuLBQSi6XDU-46" target="04XY_-OeRvuLBQSi6XDU-88" edge="1">
          <mxGeometry width="50" height="50" relative="1" as="geometry">
            <mxPoint x="700" y="784" as="sourcePoint" />
            <mxPoint x="750" y="734" as="targetPoint" />
          </mxGeometry>
        </mxCell>
        <mxCell id="04XY_-OeRvuLBQSi6XDU-91" value="M" style="text;html=1;align=center;verticalAlign=middle;resizable=0;points=[];autosize=1;strokeColor=none;fillColor=none;fontFamily=Comic Sans MS;" parent="1" vertex="1">
          <mxGeometry x="720" y="652" width="30" height="30" as="geometry" />
        </mxCell>
        <mxCell id="04XY_-OeRvuLBQSi6XDU-92" value="1" style="text;html=1;align=center;verticalAlign=middle;resizable=0;points=[];autosize=1;strokeColor=none;fillColor=none;fontFamily=Comic Sans MS;" parent="1" vertex="1">
          <mxGeometry x="855" y="652" width="30" height="30" as="geometry" />
        </mxCell>
        <mxCell id="04XY_-OeRvuLBQSi6XDU-94" value="&lt;b&gt;&lt;u&gt;id&lt;/u&gt;&lt;/b&gt;" style="ellipse;whiteSpace=wrap;html=1;fontSize=14;fontFamily=Comic Sans MS;" parent="1" vertex="1">
          <mxGeometry x="1545" y="742" width="60" height="50" as="geometry" />
        </mxCell>
        <mxCell id="04XY_-OeRvuLBQSi6XDU-95" value="name" style="ellipse;whiteSpace=wrap;html=1;fontSize=14;fontFamily=Comic Sans MS;" parent="1" vertex="1">
          <mxGeometry x="1630" y="744" width="60" height="50" as="geometry" />
        </mxCell>
        <mxCell id="04XY_-OeRvuLBQSi6XDU-96" value="" style="endArrow=none;html=1;rounded=0;entryX=0.5;entryY=1;entryDx=0;entryDy=0;exitX=0.25;exitY=0;exitDx=0;exitDy=0;fontFamily=Comic Sans MS;" parent="1" source="04XY_-OeRvuLBQSi6XDU-87" target="04XY_-OeRvuLBQSi6XDU-94" edge="1">
          <mxGeometry width="50" height="50" relative="1" as="geometry">
            <mxPoint x="1515" y="793" as="sourcePoint" />
            <mxPoint x="1565" y="743" as="targetPoint" />
          </mxGeometry>
        </mxCell>
        <mxCell id="04XY_-OeRvuLBQSi6XDU-97" value="" style="endArrow=none;html=1;rounded=0;entryX=0;entryY=1;entryDx=0;entryDy=0;exitX=0.5;exitY=0;exitDx=0;exitDy=0;fontFamily=Comic Sans MS;" parent="1" source="04XY_-OeRvuLBQSi6XDU-87" target="04XY_-OeRvuLBQSi6XDU-95" edge="1">
          <mxGeometry width="50" height="50" relative="1" as="geometry">
            <mxPoint x="1635" y="913" as="sourcePoint" />
            <mxPoint x="1685" y="863" as="targetPoint" />
          </mxGeometry>
        </mxCell>
        <mxCell id="04XY_-OeRvuLBQSi6XDU-98" value="&lt;span style=&quot;text-align: left;&quot;&gt;&lt;font&gt;Property Features&lt;/font&gt;&lt;/span&gt;" style="rounded=0;whiteSpace=wrap;html=1;fontFamily=Comic Sans MS;fontSize=14;" parent="1" vertex="1">
          <mxGeometry x="-260" y="639" width="180" height="80" as="geometry" />
        </mxCell>
        <mxCell id="04XY_-OeRvuLBQSi6XDU-99" value="&lt;div style=&quot;text-align: left;&quot;&gt;&lt;span style=&quot;background-color: transparent;&quot;&gt;Property_Feature_Associations&amp;nbsp;&lt;/span&gt;&lt;/div&gt;" style="rounded=0;whiteSpace=wrap;html=1;fontFamily=Comic Sans MS;fontSize=14;" parent="1" vertex="1">
          <mxGeometry x="30" y="639" width="230" height="80" as="geometry" />
        </mxCell>
        <mxCell id="04XY_-OeRvuLBQSi6XDU-100" value="has" style="rhombus;whiteSpace=wrap;html=1;fontFamily=Comic Sans MS;" parent="1" vertex="1">
          <mxGeometry x="280" y="639" width="80" height="80" as="geometry" />
        </mxCell>
        <mxCell id="04XY_-OeRvuLBQSi6XDU-101" value="" style="endArrow=none;html=1;rounded=0;entryX=0;entryY=0.5;entryDx=0;entryDy=0;exitX=1;exitY=0.5;exitDx=0;exitDy=0;fontFamily=Comic Sans MS;" parent="1" source="04XY_-OeRvuLBQSi6XDU-100" target="04XY_-OeRvuLBQSi6XDU-46" edge="1">
          <mxGeometry width="50" height="50" relative="1" as="geometry">
            <mxPoint x="310" y="794" as="sourcePoint" />
            <mxPoint x="360" y="744" as="targetPoint" />
          </mxGeometry>
        </mxCell>
        <mxCell id="04XY_-OeRvuLBQSi6XDU-102" value="" style="endArrow=none;html=1;rounded=0;entryX=0;entryY=0.5;entryDx=0;entryDy=0;exitX=1;exitY=0.5;exitDx=0;exitDy=0;fontFamily=Comic Sans MS;" parent="1" source="04XY_-OeRvuLBQSi6XDU-99" target="04XY_-OeRvuLBQSi6XDU-100" edge="1">
          <mxGeometry width="50" height="50" relative="1" as="geometry">
            <mxPoint x="250" y="774" as="sourcePoint" />
            <mxPoint x="300" y="724" as="targetPoint" />
          </mxGeometry>
        </mxCell>
        <mxCell id="04XY_-OeRvuLBQSi6XDU-103" value="has" style="rhombus;whiteSpace=wrap;html=1;fontFamily=Comic Sans MS;" parent="1" vertex="1">
          <mxGeometry x="-60" y="639" width="80" height="80" as="geometry" />
        </mxCell>
        <mxCell id="04XY_-OeRvuLBQSi6XDU-104" value="" style="endArrow=none;html=1;rounded=0;entryX=0;entryY=0.5;entryDx=0;entryDy=0;exitX=1;exitY=0.5;exitDx=0;exitDy=0;fontFamily=Comic Sans MS;" parent="1" source="04XY_-OeRvuLBQSi6XDU-103" target="04XY_-OeRvuLBQSi6XDU-99" edge="1">
          <mxGeometry width="50" height="50" relative="1" as="geometry">
            <mxPoint x="-10" y="794" as="sourcePoint" />
            <mxPoint x="40" y="744" as="targetPoint" />
          </mxGeometry>
        </mxCell>
        <mxCell id="04XY_-OeRvuLBQSi6XDU-105" value="" style="endArrow=none;html=1;rounded=0;entryX=0;entryY=0.5;entryDx=0;entryDy=0;exitX=1;exitY=0.5;exitDx=0;exitDy=0;fontFamily=Comic Sans MS;" parent="1" source="04XY_-OeRvuLBQSi6XDU-98" target="04XY_-OeRvuLBQSi6XDU-103" edge="1">
          <mxGeometry width="50" height="50" relative="1" as="geometry">
            <mxPoint x="-70" y="794" as="sourcePoint" />
            <mxPoint x="-20" y="744" as="targetPoint" />
          </mxGeometry>
        </mxCell>
        <mxCell id="04XY_-OeRvuLBQSi6XDU-106" value="1" style="text;html=1;align=center;verticalAlign=middle;resizable=0;points=[];autosize=1;strokeColor=none;fillColor=none;fontFamily=Comic Sans MS;" parent="1" vertex="1">
          <mxGeometry x="345" y="639" width="30" height="30" as="geometry" />
        </mxCell>
        <mxCell id="04XY_-OeRvuLBQSi6XDU-107" value="M" style="text;html=1;align=center;verticalAlign=middle;resizable=0;points=[];autosize=1;strokeColor=none;fillColor=none;fontFamily=Comic Sans MS;" parent="1" vertex="1">
          <mxGeometry x="260" y="639" width="30" height="30" as="geometry" />
        </mxCell>
        <mxCell id="04XY_-OeRvuLBQSi6XDU-108" value="1" style="text;html=1;align=center;verticalAlign=middle;resizable=0;points=[];autosize=1;strokeColor=none;fillColor=none;fontFamily=Comic Sans MS;" parent="1" vertex="1">
          <mxGeometry x="-80" y="639" width="30" height="30" as="geometry" />
        </mxCell>
        <mxCell id="04XY_-OeRvuLBQSi6XDU-109" value="M" style="text;html=1;align=center;verticalAlign=middle;resizable=0;points=[];autosize=1;strokeColor=none;fillColor=none;fontFamily=Comic Sans MS;" parent="1" vertex="1">
          <mxGeometry y="639" width="30" height="30" as="geometry" />
        </mxCell>
        <mxCell id="04XY_-OeRvuLBQSi6XDU-110" value="&lt;b&gt;&lt;u&gt;id&lt;/u&gt;&lt;/b&gt;" style="ellipse;whiteSpace=wrap;html=1;fontSize=14;fontFamily=Comic Sans MS;" parent="1" vertex="1">
          <mxGeometry x="-310" y="530" width="60" height="50" as="geometry" />
        </mxCell>
        <mxCell id="04XY_-OeRvuLBQSi6XDU-111" value="name" style="ellipse;whiteSpace=wrap;html=1;fontSize=14;fontFamily=Comic Sans MS;" parent="1" vertex="1">
          <mxGeometry x="-230" y="564" width="60" height="50" as="geometry" />
        </mxCell>
        <mxCell id="04XY_-OeRvuLBQSi6XDU-112" value="" style="endArrow=none;html=1;rounded=0;entryX=0.5;entryY=1;entryDx=0;entryDy=0;exitX=0;exitY=0.25;exitDx=0;exitDy=0;fontFamily=Comic Sans MS;" parent="1" source="04XY_-OeRvuLBQSi6XDU-98" target="04XY_-OeRvuLBQSi6XDU-110" edge="1">
          <mxGeometry width="50" height="50" relative="1" as="geometry">
            <mxPoint x="-225" y="623" as="sourcePoint" />
            <mxPoint x="-280.0000000000002" y="614" as="targetPoint" />
          </mxGeometry>
        </mxCell>
        <mxCell id="04XY_-OeRvuLBQSi6XDU-113" value="" style="endArrow=none;html=1;rounded=0;entryX=0;entryY=1;entryDx=0;entryDy=0;exitX=0.25;exitY=0;exitDx=0;exitDy=0;fontFamily=Comic Sans MS;" parent="1" source="04XY_-OeRvuLBQSi6XDU-98" target="04XY_-OeRvuLBQSi6XDU-111" edge="1">
          <mxGeometry width="50" height="50" relative="1" as="geometry">
            <mxPoint x="-180" y="623" as="sourcePoint" />
            <mxPoint x="-150" y="725" as="targetPoint" />
          </mxGeometry>
        </mxCell>
        <mxCell id="04XY_-OeRvuLBQSi6XDU-114" value="value" style="ellipse;whiteSpace=wrap;html=1;fontSize=14;fontFamily=Comic Sans MS;" parent="1" vertex="1">
          <mxGeometry x="-140" y="554" width="60" height="50" as="geometry" />
        </mxCell>
        <mxCell id="04XY_-OeRvuLBQSi6XDU-115" value="" style="endArrow=none;html=1;rounded=0;entryX=0.5;entryY=1;entryDx=0;entryDy=0;exitX=0.75;exitY=0;exitDx=0;exitDy=0;fontFamily=Comic Sans MS;" parent="1" source="04XY_-OeRvuLBQSi6XDU-98" target="04XY_-OeRvuLBQSi6XDU-114" edge="1">
          <mxGeometry width="50" height="50" relative="1" as="geometry">
            <mxPoint x="-230" y="824" as="sourcePoint" />
            <mxPoint x="-180" y="774" as="targetPoint" />
          </mxGeometry>
        </mxCell>
        <mxCell id="04XY_-OeRvuLBQSi6XDU-116" value="&lt;span style=&quot;font-size: 15px;&quot;&gt;Unit&lt;/span&gt;" style="rounded=0;whiteSpace=wrap;html=1;fontFamily=Comic Sans MS;" parent="1" vertex="1">
          <mxGeometry x="1330" y="592" width="180" height="80" as="geometry" />
        </mxCell>
        <mxCell id="04XY_-OeRvuLBQSi6XDU-117" value="&lt;b&gt;&lt;u&gt;id&lt;/u&gt;&lt;/b&gt;" style="ellipse;whiteSpace=wrap;html=1;fontSize=14;fontFamily=Comic Sans MS;" parent="1" vertex="1">
          <mxGeometry x="1240" y="560" width="60" height="50" as="geometry" />
        </mxCell>
        <mxCell id="04XY_-OeRvuLBQSi6XDU-118" value="name" style="ellipse;whiteSpace=wrap;html=1;fontSize=14;fontFamily=Comic Sans MS;" parent="1" vertex="1">
          <mxGeometry x="1390" y="512" width="60" height="50" as="geometry" />
        </mxCell>
        <mxCell id="04XY_-OeRvuLBQSi6XDU-119" value="" style="endArrow=none;html=1;rounded=0;entryX=0.5;entryY=1;entryDx=0;entryDy=0;exitX=0;exitY=0.25;exitDx=0;exitDy=0;fontFamily=Comic Sans MS;" parent="1" source="04XY_-OeRvuLBQSi6XDU-116" target="04XY_-OeRvuLBQSi6XDU-117" edge="1">
          <mxGeometry width="50" height="50" relative="1" as="geometry">
            <mxPoint x="1365" y="580" as="sourcePoint" />
            <mxPoint x="1320" y="562" as="targetPoint" />
          </mxGeometry>
        </mxCell>
        <mxCell id="04XY_-OeRvuLBQSi6XDU-120" value="" style="endArrow=none;html=1;rounded=0;entryX=0.5;entryY=1;entryDx=0;entryDy=0;exitX=0.5;exitY=0;exitDx=0;exitDy=0;fontFamily=Comic Sans MS;" parent="1" source="04XY_-OeRvuLBQSi6XDU-116" target="04XY_-OeRvuLBQSi6XDU-118" edge="1">
          <mxGeometry width="50" height="50" relative="1" as="geometry">
            <mxPoint x="1410" y="580" as="sourcePoint" />
            <mxPoint x="1440" y="682" as="targetPoint" />
          </mxGeometry>
        </mxCell>
        <mxCell id="04XY_-OeRvuLBQSi6XDU-122" value="Symbol" style="ellipse;whiteSpace=wrap;html=1;fontSize=14;fontFamily=Comic Sans MS;" parent="1" vertex="1">
          <mxGeometry x="1520" y="540" width="60" height="50" as="geometry" />
        </mxCell>
        <mxCell id="04XY_-OeRvuLBQSi6XDU-123" value="" style="endArrow=none;html=1;rounded=0;entryX=0.039;entryY=0.753;entryDx=0;entryDy=0;exitX=1;exitY=0;exitDx=0;exitDy=0;entryPerimeter=0;fontFamily=Comic Sans MS;" parent="1" source="04XY_-OeRvuLBQSi6XDU-116" target="04XY_-OeRvuLBQSi6XDU-122" edge="1">
          <mxGeometry width="50" height="50" relative="1" as="geometry">
            <mxPoint x="1520" y="652" as="sourcePoint" />
            <mxPoint x="1570" y="602" as="targetPoint" />
          </mxGeometry>
        </mxCell>
        <mxCell id="04XY_-OeRvuLBQSi6XDU-124" value="&lt;span style=&quot;font-size: 15px;&quot;&gt;Unit Type&lt;/span&gt;" style="rounded=0;whiteSpace=wrap;html=1;fontFamily=Comic Sans MS;" parent="1" vertex="1">
          <mxGeometry x="1990" y="592" width="180" height="80" as="geometry" />
        </mxCell>
        <mxCell id="04XY_-OeRvuLBQSi6XDU-129" value="&lt;b&gt;&lt;u&gt;id&lt;/u&gt;&lt;/b&gt;" style="ellipse;whiteSpace=wrap;html=1;fontSize=14;fontFamily=Comic Sans MS;" parent="1" vertex="1">
          <mxGeometry x="1970" y="517" width="60" height="50" as="geometry" />
        </mxCell>
        <mxCell id="04XY_-OeRvuLBQSi6XDU-130" value="name" style="ellipse;whiteSpace=wrap;html=1;fontSize=14;fontFamily=Comic Sans MS;" parent="1" vertex="1">
          <mxGeometry x="2055" y="507" width="60" height="50" as="geometry" />
        </mxCell>
        <mxCell id="04XY_-OeRvuLBQSi6XDU-131" value="" style="endArrow=none;html=1;rounded=0;entryX=0.5;entryY=1;entryDx=0;entryDy=0;exitX=0.25;exitY=0;exitDx=0;exitDy=0;fontFamily=Comic Sans MS;" parent="1" source="04XY_-OeRvuLBQSi6XDU-124" target="04XY_-OeRvuLBQSi6XDU-129" edge="1">
          <mxGeometry width="50" height="50" relative="1" as="geometry">
            <mxPoint x="1940" y="632" as="sourcePoint" />
            <mxPoint x="1990" y="582" as="targetPoint" />
          </mxGeometry>
        </mxCell>
        <mxCell id="04XY_-OeRvuLBQSi6XDU-132" value="" style="endArrow=none;html=1;rounded=0;entryX=0.5;entryY=1;entryDx=0;entryDy=0;exitX=0.5;exitY=0;exitDx=0;exitDy=0;fontFamily=Comic Sans MS;" parent="1" source="04XY_-OeRvuLBQSi6XDU-124" target="04XY_-OeRvuLBQSi6XDU-130" edge="1">
          <mxGeometry width="50" height="50" relative="1" as="geometry">
            <mxPoint x="2070" y="622" as="sourcePoint" />
            <mxPoint x="2120" y="572" as="targetPoint" />
          </mxGeometry>
        </mxCell>
        <mxCell id="04XY_-OeRvuLBQSi6XDU-133" value="has" style="rhombus;whiteSpace=wrap;html=1;fontFamily=Comic Sans MS;" parent="1" vertex="1">
          <mxGeometry x="1720" y="592" width="80" height="80" as="geometry" />
        </mxCell>
        <mxCell id="04XY_-OeRvuLBQSi6XDU-134" value="" style="endArrow=none;html=1;rounded=0;entryX=0;entryY=0.5;entryDx=0;entryDy=0;exitX=1;exitY=0.5;exitDx=0;exitDy=0;fontFamily=Comic Sans MS;" parent="1" source="04XY_-OeRvuLBQSi6XDU-116" target="04XY_-OeRvuLBQSi6XDU-133" edge="1">
          <mxGeometry width="50" height="50" relative="1" as="geometry">
            <mxPoint x="1580" y="672" as="sourcePoint" />
            <mxPoint x="1630" y="622" as="targetPoint" />
          </mxGeometry>
        </mxCell>
        <mxCell id="04XY_-OeRvuLBQSi6XDU-135" value="" style="endArrow=none;html=1;rounded=0;entryX=0;entryY=0.5;entryDx=0;entryDy=0;exitX=1;exitY=0.5;exitDx=0;exitDy=0;fontFamily=Comic Sans MS;" parent="1" source="04XY_-OeRvuLBQSi6XDU-133" target="04XY_-OeRvuLBQSi6XDU-124" edge="1">
          <mxGeometry width="50" height="50" relative="1" as="geometry">
            <mxPoint x="1640" y="652" as="sourcePoint" />
            <mxPoint x="1780" y="652" as="targetPoint" />
          </mxGeometry>
        </mxCell>
        <mxCell id="04XY_-OeRvuLBQSi6XDU-137" value="Abbreviation" style="ellipse;whiteSpace=wrap;html=1;fontSize=14;fontFamily=Comic Sans MS;" parent="1" vertex="1">
          <mxGeometry x="1290" y="463" width="100" height="80" as="geometry" />
        </mxCell>
        <mxCell id="04XY_-OeRvuLBQSi6XDU-138" value="" style="endArrow=none;html=1;rounded=0;entryX=0.5;entryY=1;entryDx=0;entryDy=0;exitX=0.25;exitY=0;exitDx=0;exitDy=0;fontFamily=Comic Sans MS;" parent="1" source="04XY_-OeRvuLBQSi6XDU-116" target="04XY_-OeRvuLBQSi6XDU-137" edge="1">
          <mxGeometry width="50" height="50" relative="1" as="geometry">
            <mxPoint x="1340" y="582" as="sourcePoint" />
            <mxPoint x="1390" y="532" as="targetPoint" />
          </mxGeometry>
        </mxCell>
        <mxCell id="04XY_-OeRvuLBQSi6XDU-140" value="ConversionFactor" style="ellipse;whiteSpace=wrap;html=1;fontSize=14;fontFamily=Comic Sans MS;" parent="1" vertex="1">
          <mxGeometry x="1460" y="432" width="130" height="100" as="geometry" />
        </mxCell>
        <mxCell id="04XY_-OeRvuLBQSi6XDU-142" value="" style="endArrow=none;html=1;rounded=0;entryX=0;entryY=1;entryDx=0;entryDy=0;exitX=0.75;exitY=0;exitDx=0;exitDy=0;fontFamily=Comic Sans MS;" parent="1" source="04XY_-OeRvuLBQSi6XDU-116" target="04XY_-OeRvuLBQSi6XDU-140" edge="1">
          <mxGeometry width="50" height="50" relative="1" as="geometry">
            <mxPoint x="1470" y="542" as="sourcePoint" />
            <mxPoint x="1520" y="492" as="targetPoint" />
          </mxGeometry>
        </mxCell>
        <mxCell id="04XY_-OeRvuLBQSi6XDU-144" value="YearBuilt" style="ellipse;whiteSpace=wrap;html=1;fontSize=14;fontFamily=Comic Sans MS;" parent="1" vertex="1">
          <mxGeometry x="830" y="825" width="80" height="70" as="geometry" />
        </mxCell>
        <mxCell id="04XY_-OeRvuLBQSi6XDU-145" value="" style="endArrow=none;html=1;rounded=0;entryX=0.996;entryY=0.597;entryDx=0;entryDy=0;entryPerimeter=0;exitX=0;exitY=0;exitDx=0;exitDy=0;fontFamily=Comic Sans MS;" parent="1" source="ZNw0YUR-elSEx9iUAE71-11" target="04XY_-OeRvuLBQSi6XDU-46" edge="1">
          <mxGeometry width="50" height="50" relative="1" as="geometry">
            <mxPoint x="891.4256567449702" y="864.507705781403" as="sourcePoint" />
            <mxPoint x="620" y="724" as="targetPoint" />
          </mxGeometry>
        </mxCell>
        <mxCell id="04XY_-OeRvuLBQSi6XDU-146" value="has&lt;div&gt;&quot;property&lt;/div&gt;&lt;div&gt;unit&quot;&lt;/div&gt;" style="rhombus;whiteSpace=wrap;html=1;fontFamily=Comic Sans MS;" parent="1" vertex="1">
          <mxGeometry x="1095" y="512" width="80" height="80" as="geometry" />
        </mxCell>
        <mxCell id="04XY_-OeRvuLBQSi6XDU-147" value="" style="endArrow=none;html=1;rounded=0;entryX=0.008;entryY=0.607;entryDx=0;entryDy=0;entryPerimeter=0;exitX=1;exitY=1;exitDx=0;exitDy=0;fontFamily=Comic Sans MS;" parent="1" source="04XY_-OeRvuLBQSi6XDU-146" target="04XY_-OeRvuLBQSi6XDU-116" edge="1">
          <mxGeometry width="50" height="50" relative="1" as="geometry">
            <mxPoint x="1250" y="722" as="sourcePoint" />
            <mxPoint x="1305" y="667" as="targetPoint" />
            <Array as="points">
              <mxPoint x="1220" y="660" />
            </Array>
          </mxGeometry>
        </mxCell>
        <mxCell id="04XY_-OeRvuLBQSi6XDU-148" value="" style="endArrow=none;html=1;rounded=0;entryX=0;entryY=1;entryDx=0;entryDy=0;exitX=1;exitY=0.25;exitDx=0;exitDy=0;fontFamily=Comic Sans MS;" parent="1" source="04XY_-OeRvuLBQSi6XDU-46" target="04XY_-OeRvuLBQSi6XDU-146" edge="1">
          <mxGeometry width="50" height="50" relative="1" as="geometry">
            <mxPoint x="670" y="634" as="sourcePoint" />
            <mxPoint x="730" y="564" as="targetPoint" />
            <Array as="points">
              <mxPoint x="690" y="590" />
            </Array>
          </mxGeometry>
        </mxCell>
        <mxCell id="04XY_-OeRvuLBQSi6XDU-149" value="1" style="text;html=1;align=center;verticalAlign=middle;resizable=0;points=[];autosize=1;strokeColor=none;fillColor=none;fontFamily=Comic Sans MS;" parent="1" vertex="1">
          <mxGeometry x="1300" y="617" width="30" height="30" as="geometry" />
        </mxCell>
        <mxCell id="04XY_-OeRvuLBQSi6XDU-150" value="M" style="text;html=1;align=center;verticalAlign=middle;resizable=0;points=[];autosize=1;strokeColor=none;fillColor=none;fontFamily=Comic Sans MS;" parent="1" vertex="1">
          <mxGeometry x="565" y="622" width="30" height="30" as="geometry" />
        </mxCell>
        <mxCell id="04XY_-OeRvuLBQSi6XDU-153" value="" style="endArrow=none;html=1;rounded=0;entryX=0.057;entryY=0.378;entryDx=0;entryDy=0;exitX=1;exitY=0.25;exitDx=0;exitDy=0;entryPerimeter=0;fontFamily=Comic Sans MS;" parent="1" source="04XY_-OeRvuLBQSi6XDU-46" target="04XY_-OeRvuLBQSi6XDU-151" edge="1">
          <mxGeometry width="50" height="50" relative="1" as="geometry">
            <mxPoint x="560" y="659" as="sourcePoint" />
            <mxPoint x="703" y="641" as="targetPoint" />
          </mxGeometry>
        </mxCell>
        <mxCell id="04XY_-OeRvuLBQSi6XDU-151" value="1" style="text;html=1;align=center;verticalAlign=middle;resizable=0;points=[];autosize=1;strokeColor=none;fillColor=none;fontFamily=Comic Sans MS;" parent="1" vertex="1">
          <mxGeometry x="585" y="632" width="30" height="30" as="geometry" />
        </mxCell>
        <mxCell id="04XY_-OeRvuLBQSi6XDU-154" value="1" style="text;html=1;align=center;verticalAlign=middle;resizable=0;points=[];autosize=1;strokeColor=none;fillColor=none;fontFamily=Comic Sans MS;" parent="1" vertex="1">
          <mxGeometry x="1305" y="660" width="30" height="30" as="geometry" />
        </mxCell>
        <mxCell id="ZNw0YUR-elSEx9iUAE71-2" value="Bedrooms" style="ellipse;whiteSpace=wrap;html=1;fontSize=14;fontFamily=Comic Sans MS;" parent="1" vertex="1">
          <mxGeometry x="1000" y="820" width="80" height="65" as="geometry" />
        </mxCell>
        <mxCell id="ZNw0YUR-elSEx9iUAE71-4" value="Bathrooms" style="ellipse;whiteSpace=wrap;html=1;fontSize=14;fontFamily=Comic Sans MS;" parent="1" vertex="1">
          <mxGeometry x="315" y="850" width="95" height="65" as="geometry" />
        </mxCell>
        <mxCell id="ZNw0YUR-elSEx9iUAE71-5" value="" style="endArrow=none;html=1;rounded=0;entryX=0;entryY=0;entryDx=0;entryDy=0;exitX=0.988;exitY=0.629;exitDx=0;exitDy=0;exitPerimeter=0;fontFamily=Comic Sans MS;" parent="1" source="04XY_-OeRvuLBQSi6XDU-46" target="ZNw0YUR-elSEx9iUAE71-2" edge="1">
          <mxGeometry width="50" height="50" relative="1" as="geometry">
            <mxPoint x="740" y="934" as="sourcePoint" />
            <mxPoint x="790" y="884" as="targetPoint" />
            <Array as="points" />
          </mxGeometry>
        </mxCell>
        <mxCell id="ZNw0YUR-elSEx9iUAE71-8" value="Garage" style="ellipse;whiteSpace=wrap;html=1;fontSize=14;fontFamily=Comic Sans MS;" parent="1" vertex="1">
          <mxGeometry x="930" y="400.5" width="80" height="65" as="geometry" />
        </mxCell>
        <mxCell id="ZNw0YUR-elSEx9iUAE71-10" value="" style="endArrow=none;html=1;rounded=0;entryX=0;entryY=0.5;entryDx=0;entryDy=0;exitX=0.873;exitY=0.006;exitDx=0;exitDy=0;exitPerimeter=0;fontFamily=Comic Sans MS;" parent="1" source="04XY_-OeRvuLBQSi6XDU-46" target="ZNw0YUR-elSEx9iUAE71-8" edge="1">
          <mxGeometry width="50" height="50" relative="1" as="geometry">
            <mxPoint x="450" y="664" as="sourcePoint" />
            <mxPoint x="500" y="614" as="targetPoint" />
            <Array as="points">
              <mxPoint x="720" y="510" />
            </Array>
          </mxGeometry>
        </mxCell>
        <mxCell id="ZNw0YUR-elSEx9iUAE71-11" value="floors" style="ellipse;whiteSpace=wrap;html=1;fontSize=14;fontFamily=Comic Sans MS;" parent="1" vertex="1">
          <mxGeometry x="930" y="830" width="60" height="50" as="geometry" />
        </mxCell>
        <mxCell id="ZNw0YUR-elSEx9iUAE71-13" value="" style="endArrow=none;html=1;rounded=0;entryX=1;entryY=0.75;entryDx=0;entryDy=0;exitX=0;exitY=0.5;exitDx=0;exitDy=0;fontFamily=Comic Sans MS;" parent="1" source="04XY_-OeRvuLBQSi6XDU-144" target="04XY_-OeRvuLBQSi6XDU-46" edge="1">
          <mxGeometry width="50" height="50" relative="1" as="geometry">
            <mxPoint x="818.4816185742225" y="866.5803578934181" as="sourcePoint" />
            <mxPoint x="700" y="794" as="targetPoint" />
          </mxGeometry>
        </mxCell>
        <mxCell id="ZNw0YUR-elSEx9iUAE71-17" value="&lt;div style=&quot;text-align: left;&quot;&gt;&lt;span style=&quot;background-color: transparent;&quot;&gt;Nearby Categories&lt;/span&gt;&lt;/div&gt;" style="rounded=0;whiteSpace=wrap;html=1;fontFamily=Comic Sans MS;fontSize=14;" parent="1" vertex="1">
          <mxGeometry x="1330" y="918" width="180" height="80" as="geometry" />
        </mxCell>
        <mxCell id="ZNw0YUR-elSEx9iUAE71-18" value="&lt;b&gt;&lt;u&gt;id&lt;/u&gt;&lt;/b&gt;" style="ellipse;whiteSpace=wrap;html=1;fontSize=14;fontFamily=Comic Sans MS;" parent="1" vertex="1">
          <mxGeometry x="1325" y="853" width="60" height="50" as="geometry" />
        </mxCell>
        <mxCell id="ZNw0YUR-elSEx9iUAE71-19" value="name" style="ellipse;whiteSpace=wrap;html=1;fontSize=14;fontFamily=Comic Sans MS;" parent="1" vertex="1">
          <mxGeometry x="1410" y="853" width="60" height="50" as="geometry" />
        </mxCell>
        <mxCell id="ZNw0YUR-elSEx9iUAE71-20" value="" style="endArrow=none;html=1;rounded=0;entryX=0.5;entryY=1;entryDx=0;entryDy=0;exitX=0.25;exitY=0;exitDx=0;exitDy=0;fontFamily=Comic Sans MS;" parent="1" source="ZNw0YUR-elSEx9iUAE71-17" target="ZNw0YUR-elSEx9iUAE71-18" edge="1">
          <mxGeometry width="50" height="50" relative="1" as="geometry">
            <mxPoint x="1280" y="950" as="sourcePoint" />
            <mxPoint x="1330" y="900" as="targetPoint" />
          </mxGeometry>
        </mxCell>
        <mxCell id="ZNw0YUR-elSEx9iUAE71-21" value="" style="endArrow=none;html=1;rounded=0;entryX=0;entryY=1;entryDx=0;entryDy=0;exitX=0.5;exitY=0;exitDx=0;exitDy=0;fontFamily=Comic Sans MS;" parent="1" source="ZNw0YUR-elSEx9iUAE71-17" target="ZNw0YUR-elSEx9iUAE71-19" edge="1">
          <mxGeometry width="50" height="50" relative="1" as="geometry">
            <mxPoint x="1400" y="1070" as="sourcePoint" />
            <mxPoint x="1450" y="1020" as="targetPoint" />
          </mxGeometry>
        </mxCell>
        <mxCell id="ZNw0YUR-elSEx9iUAE71-24" value="&lt;div style=&quot;text-align: left;&quot;&gt;Nearby Places&lt;/div&gt;" style="rounded=0;whiteSpace=wrap;html=1;fontFamily=Comic Sans MS;fontSize=14;" parent="1" vertex="1">
          <mxGeometry x="930" y="918" width="180" height="80" as="geometry" />
        </mxCell>
        <mxCell id="ZNw0YUR-elSEx9iUAE71-25" value="has" style="rhombus;whiteSpace=wrap;html=1;fontFamily=Comic Sans MS;" parent="1" vertex="1">
          <mxGeometry x="810" y="918" width="80" height="80" as="geometry" />
        </mxCell>
        <mxCell id="ZNw0YUR-elSEx9iUAE71-26" value="" style="endArrow=none;html=1;rounded=0;entryX=0;entryY=0.5;entryDx=0;entryDy=0;exitX=1;exitY=0.5;exitDx=0;exitDy=0;fontFamily=Comic Sans MS;" parent="1" source="ZNw0YUR-elSEx9iUAE71-25" target="ZNw0YUR-elSEx9iUAE71-24" edge="1">
          <mxGeometry width="50" height="50" relative="1" as="geometry">
            <mxPoint x="860" y="1100" as="sourcePoint" />
            <mxPoint x="910" y="1050" as="targetPoint" />
          </mxGeometry>
        </mxCell>
        <mxCell id="ZNw0YUR-elSEx9iUAE71-28" value="" style="endArrow=none;html=1;rounded=0;entryX=0;entryY=0;entryDx=0;entryDy=0;exitX=1;exitY=0.75;exitDx=0;exitDy=0;fontFamily=Comic Sans MS;" parent="1" source="04XY_-OeRvuLBQSi6XDU-46" target="ZNw0YUR-elSEx9iUAE71-25" edge="1">
          <mxGeometry width="50" height="50" relative="1" as="geometry">
            <mxPoint x="740" y="1010" as="sourcePoint" />
            <mxPoint x="790" y="960" as="targetPoint" />
          </mxGeometry>
        </mxCell>
        <mxCell id="ZNw0YUR-elSEx9iUAE71-29" value="1" style="text;html=1;align=center;verticalAlign=middle;resizable=0;points=[];autosize=1;strokeColor=none;fillColor=none;fontFamily=Comic Sans MS;" parent="1" vertex="1">
          <mxGeometry x="605" y="749" width="30" height="30" as="geometry" />
        </mxCell>
        <mxCell id="ZNw0YUR-elSEx9iUAE71-30" value="M" style="text;html=1;align=center;verticalAlign=middle;resizable=0;points=[];autosize=1;strokeColor=none;fillColor=none;fontFamily=Comic Sans MS;" parent="1" vertex="1">
          <mxGeometry x="900" y="930" width="30" height="30" as="geometry" />
        </mxCell>
        <mxCell id="ZNw0YUR-elSEx9iUAE71-31" value="has" style="rhombus;whiteSpace=wrap;html=1;fontFamily=Comic Sans MS;" parent="1" vertex="1">
          <mxGeometry x="1180" y="918" width="80" height="80" as="geometry" />
        </mxCell>
        <mxCell id="ZNw0YUR-elSEx9iUAE71-32" value="" style="endArrow=none;html=1;rounded=0;entryX=0;entryY=0.5;entryDx=0;entryDy=0;exitX=1;exitY=0.5;exitDx=0;exitDy=0;fontFamily=Comic Sans MS;" parent="1" source="ZNw0YUR-elSEx9iUAE71-31" target="ZNw0YUR-elSEx9iUAE71-17" edge="1">
          <mxGeometry width="50" height="50" relative="1" as="geometry">
            <mxPoint x="1130" y="1100" as="sourcePoint" />
            <mxPoint x="1180" y="1050" as="targetPoint" />
          </mxGeometry>
        </mxCell>
        <mxCell id="ZNw0YUR-elSEx9iUAE71-33" value="" style="endArrow=none;html=1;rounded=0;entryX=0;entryY=0.5;entryDx=0;entryDy=0;exitX=1;exitY=0.5;exitDx=0;exitDy=0;fontFamily=Comic Sans MS;" parent="1" source="ZNw0YUR-elSEx9iUAE71-24" target="ZNw0YUR-elSEx9iUAE71-31" edge="1">
          <mxGeometry width="50" height="50" relative="1" as="geometry">
            <mxPoint x="1130" y="1070" as="sourcePoint" />
            <mxPoint x="1180" y="1020" as="targetPoint" />
          </mxGeometry>
        </mxCell>
        <mxCell id="ZNw0YUR-elSEx9iUAE71-34" value="1" style="text;html=1;align=center;verticalAlign=middle;resizable=0;points=[];autosize=1;strokeColor=none;fillColor=none;fontFamily=Comic Sans MS;" parent="1" vertex="1">
          <mxGeometry x="1300" y="930" width="30" height="30" as="geometry" />
        </mxCell>
        <mxCell id="ZNw0YUR-elSEx9iUAE71-35" value="M" style="text;html=1;align=center;verticalAlign=middle;resizable=0;points=[];autosize=1;strokeColor=none;fillColor=none;fontFamily=Comic Sans MS;" parent="1" vertex="1">
          <mxGeometry x="1115" y="928" width="30" height="30" as="geometry" />
        </mxCell>
        <mxCell id="ZNw0YUR-elSEx9iUAE71-36" value="1" style="text;html=1;align=center;verticalAlign=middle;resizable=0;points=[];autosize=1;strokeColor=none;fillColor=none;fontFamily=Comic Sans MS;" parent="1" vertex="1">
          <mxGeometry x="1115" y="958" width="30" height="30" as="geometry" />
        </mxCell>
        <mxCell id="ZNw0YUR-elSEx9iUAE71-37" value="1" style="text;html=1;align=center;verticalAlign=middle;resizable=0;points=[];autosize=1;strokeColor=none;fillColor=none;fontFamily=Comic Sans MS;" parent="1" vertex="1">
          <mxGeometry x="1295" y="958" width="30" height="30" as="geometry" />
        </mxCell>
        <mxCell id="ZNw0YUR-elSEx9iUAE71-38" value="&lt;div style=&quot;text-align: left;&quot;&gt;PropertyTourRequests&lt;/div&gt;" style="rounded=0;whiteSpace=wrap;html=1;fontFamily=Comic Sans MS;fontSize=14;" parent="1" vertex="1">
          <mxGeometry x="-90" y="367" width="230" height="80" as="geometry" />
        </mxCell>
        <mxCell id="ZNw0YUR-elSEx9iUAE71-40" value="&lt;b&gt;&lt;u&gt;id&lt;/u&gt;&lt;/b&gt;" style="ellipse;whiteSpace=wrap;html=1;fontSize=14;fontFamily=Comic Sans MS;" parent="1" vertex="1">
          <mxGeometry x="-140" y="303" width="60" height="50" as="geometry" />
        </mxCell>
        <mxCell id="ZNw0YUR-elSEx9iUAE71-41" value="name" style="ellipse;whiteSpace=wrap;html=1;fontSize=14;fontFamily=Comic Sans MS;" parent="1" vertex="1">
          <mxGeometry x="-25" y="298" width="60" height="50" as="geometry" />
        </mxCell>
        <mxCell id="ZNw0YUR-elSEx9iUAE71-42" value="" style="endArrow=none;html=1;rounded=0;entryX=0.5;entryY=1;entryDx=0;entryDy=0;exitX=0;exitY=0.25;exitDx=0;exitDy=0;fontFamily=Comic Sans MS;" parent="1" source="ZNw0YUR-elSEx9iUAE71-38" target="ZNw0YUR-elSEx9iUAE71-40" edge="1">
          <mxGeometry width="50" height="50" relative="1" as="geometry">
            <mxPoint x="-160" y="423" as="sourcePoint" />
            <mxPoint x="-110" y="373" as="targetPoint" />
          </mxGeometry>
        </mxCell>
        <mxCell id="ZNw0YUR-elSEx9iUAE71-43" value="" style="endArrow=none;html=1;rounded=0;entryX=0.5;entryY=1;entryDx=0;entryDy=0;exitX=0.5;exitY=0;exitDx=0;exitDy=0;fontFamily=Comic Sans MS;" parent="1" source="ZNw0YUR-elSEx9iUAE71-38" target="ZNw0YUR-elSEx9iUAE71-41" edge="1">
          <mxGeometry width="50" height="50" relative="1" as="geometry">
            <mxPoint x="-80" y="393" as="sourcePoint" />
            <mxPoint x="-30" y="343" as="targetPoint" />
          </mxGeometry>
        </mxCell>
        <mxCell id="ZNw0YUR-elSEx9iUAE71-45" value="PreferredDate" style="ellipse;whiteSpace=wrap;html=1;fontSize=14;fontFamily=Comic Sans MS;" parent="1" vertex="1">
          <mxGeometry x="50" y="265" width="130" height="50" as="geometry" />
        </mxCell>
        <mxCell id="ZNw0YUR-elSEx9iUAE71-46" value="" style="endArrow=none;html=1;rounded=0;entryX=0.5;entryY=1;entryDx=0;entryDy=0;exitX=0.75;exitY=0;exitDx=0;exitDy=0;fontFamily=Comic Sans MS;" parent="1" source="ZNw0YUR-elSEx9iUAE71-38" target="ZNw0YUR-elSEx9iUAE71-45" edge="1">
          <mxGeometry width="50" height="50" relative="1" as="geometry">
            <mxPoint x="170" y="453" as="sourcePoint" />
            <mxPoint x="220" y="403" as="targetPoint" />
          </mxGeometry>
        </mxCell>
        <mxCell id="ZNw0YUR-elSEx9iUAE71-48" value="PreferredTime" style="ellipse;whiteSpace=wrap;html=1;fontSize=14;fontFamily=Comic Sans MS;" parent="1" vertex="1">
          <mxGeometry x="170" y="348" width="130" height="50" as="geometry" />
        </mxCell>
        <mxCell id="ZNw0YUR-elSEx9iUAE71-49" value="" style="endArrow=none;html=1;rounded=0;entryX=0;entryY=0.5;entryDx=0;entryDy=0;exitX=1;exitY=0.25;exitDx=0;exitDy=0;fontFamily=Comic Sans MS;" parent="1" source="ZNw0YUR-elSEx9iUAE71-38" target="ZNw0YUR-elSEx9iUAE71-48" edge="1">
          <mxGeometry width="50" height="50" relative="1" as="geometry">
            <mxPoint x="170" y="483" as="sourcePoint" />
            <mxPoint x="220" y="433" as="targetPoint" />
          </mxGeometry>
        </mxCell>
        <mxCell id="ZNw0YUR-elSEx9iUAE71-52" value="Message" style="ellipse;whiteSpace=wrap;html=1;fontSize=14;fontFamily=Comic Sans MS;" parent="1" vertex="1">
          <mxGeometry x="160" y="408" width="70" height="55" as="geometry" />
        </mxCell>
        <mxCell id="ZNw0YUR-elSEx9iUAE71-53" value="" style="endArrow=none;html=1;rounded=0;entryX=0;entryY=0.5;entryDx=0;entryDy=0;exitX=1;exitY=0.5;exitDx=0;exitDy=0;fontFamily=Comic Sans MS;" parent="1" source="ZNw0YUR-elSEx9iUAE71-38" target="ZNw0YUR-elSEx9iUAE71-52" edge="1">
          <mxGeometry width="50" height="50" relative="1" as="geometry">
            <mxPoint x="150" y="538" as="sourcePoint" />
            <mxPoint x="200" y="488" as="targetPoint" />
          </mxGeometry>
        </mxCell>
        <mxCell id="ZNw0YUR-elSEx9iUAE71-54" value="mange" style="rhombus;whiteSpace=wrap;html=1;fontFamily=Comic Sans MS;" parent="1" vertex="1">
          <mxGeometry x="420" y="320" width="80" height="80" as="geometry" />
        </mxCell>
        <mxCell id="ZNw0YUR-elSEx9iUAE71-55" value="" style="endArrow=none;html=1;rounded=0;entryX=0.5;entryY=1;entryDx=0;entryDy=0;exitX=0.5;exitY=0;exitDx=0;exitDy=0;fontFamily=Comic Sans MS;" parent="1" source="ZNw0YUR-elSEx9iUAE71-54" target="04XY_-OeRvuLBQSi6XDU-1" edge="1">
          <mxGeometry width="50" height="50" relative="1" as="geometry">
            <mxPoint x="440" y="220" as="sourcePoint" />
            <mxPoint x="490" y="170" as="targetPoint" />
          </mxGeometry>
        </mxCell>
        <mxCell id="ZNw0YUR-elSEx9iUAE71-57" value="" style="endArrow=none;html=1;rounded=0;entryX=0.5;entryY=1;entryDx=0;entryDy=0;exitX=0.5;exitY=0;exitDx=0;exitDy=0;fontFamily=Comic Sans MS;" parent="1" source="04XY_-OeRvuLBQSi6XDU-46" target="ZNw0YUR-elSEx9iUAE71-54" edge="1">
          <mxGeometry width="50" height="50" relative="1" as="geometry">
            <mxPoint x="440" y="590" as="sourcePoint" />
            <mxPoint x="490" y="540" as="targetPoint" />
          </mxGeometry>
        </mxCell>
        <mxCell id="ZNw0YUR-elSEx9iUAE71-58" value="1" style="text;html=1;align=center;verticalAlign=middle;resizable=0;points=[];autosize=1;strokeColor=none;fillColor=none;fontFamily=Comic Sans MS;" parent="1" vertex="1">
          <mxGeometry x="455" y="40" width="30" height="30" as="geometry" />
        </mxCell>
        <mxCell id="ZNw0YUR-elSEx9iUAE71-59" value="M" style="text;html=1;align=center;verticalAlign=middle;resizable=0;points=[];autosize=1;strokeColor=none;fillColor=none;fontFamily=Comic Sans MS;" parent="1" vertex="1">
          <mxGeometry x="455" y="418" width="30" height="30" as="geometry" />
        </mxCell>
        <mxCell id="ZNw0YUR-elSEx9iUAE71-61" value="1" style="text;html=1;align=center;verticalAlign=middle;resizable=0;points=[];autosize=1;strokeColor=none;fillColor=none;fontFamily=Comic Sans MS;" parent="1" vertex="1">
          <mxGeometry x="435" y="607" width="30" height="30" as="geometry" />
        </mxCell>
        <mxCell id="ZNw0YUR-elSEx9iUAE71-62" value="1" style="text;html=1;align=center;verticalAlign=middle;resizable=0;points=[];autosize=1;strokeColor=none;fillColor=none;fontFamily=Comic Sans MS;" parent="1" vertex="1">
          <mxGeometry x="430" y="40" width="30" height="30" as="geometry" />
        </mxCell>
        <mxCell id="ZNw0YUR-elSEx9iUAE71-64" value="&lt;div style=&quot;text-align: left;&quot;&gt;TourRequestStatus&lt;/div&gt;" style="rounded=0;whiteSpace=wrap;html=1;fontFamily=Comic Sans MS;fontSize=14;" parent="1" vertex="1">
          <mxGeometry x="-570" y="367" width="230" height="80" as="geometry" />
        </mxCell>
        <mxCell id="ZNw0YUR-elSEx9iUAE71-65" value="belong" style="rhombus;whiteSpace=wrap;html=1;fontFamily=Comic Sans MS;" parent="1" vertex="1">
          <mxGeometry x="-260" y="367" width="80" height="80" as="geometry" />
        </mxCell>
        <mxCell id="ZNw0YUR-elSEx9iUAE71-66" value="" style="endArrow=none;html=1;rounded=0;entryX=0;entryY=0.5;entryDx=0;entryDy=0;exitX=1;exitY=0.5;exitDx=0;exitDy=0;fontFamily=Comic Sans MS;" parent="1" source="ZNw0YUR-elSEx9iUAE71-64" target="ZNw0YUR-elSEx9iUAE71-65" edge="1">
          <mxGeometry width="50" height="50" relative="1" as="geometry">
            <mxPoint x="-320" y="510" as="sourcePoint" />
            <mxPoint x="-270" y="460" as="targetPoint" />
          </mxGeometry>
        </mxCell>
        <mxCell id="ZNw0YUR-elSEx9iUAE71-67" value="" style="endArrow=none;html=1;rounded=0;entryX=0;entryY=0.5;entryDx=0;entryDy=0;exitX=1;exitY=0.5;exitDx=0;exitDy=0;fontFamily=Comic Sans MS;" parent="1" source="ZNw0YUR-elSEx9iUAE71-65" target="ZNw0YUR-elSEx9iUAE71-38" edge="1">
          <mxGeometry width="50" height="50" relative="1" as="geometry">
            <mxPoint x="-150" y="480" as="sourcePoint" />
            <mxPoint x="-100" y="430" as="targetPoint" />
          </mxGeometry>
        </mxCell>
        <mxCell id="ZNw0YUR-elSEx9iUAE71-68" value="1" style="text;html=1;align=center;verticalAlign=middle;resizable=0;points=[];autosize=1;strokeColor=none;fillColor=none;fontFamily=Comic Sans MS;" parent="1" vertex="1">
          <mxGeometry x="-335" y="368" width="30" height="30" as="geometry" />
        </mxCell>
        <mxCell id="ZNw0YUR-elSEx9iUAE71-69" value="M" style="text;html=1;align=center;verticalAlign=middle;resizable=0;points=[];autosize=1;strokeColor=none;fillColor=none;fontFamily=Comic Sans MS;" parent="1" vertex="1">
          <mxGeometry x="-130" y="380" width="30" height="30" as="geometry" />
        </mxCell>
        <mxCell id="ZNw0YUR-elSEx9iUAE71-71" value="1" style="text;html=1;align=center;verticalAlign=middle;resizable=0;points=[];autosize=1;strokeColor=none;fillColor=none;fontFamily=Comic Sans MS;" parent="1" vertex="1">
          <mxGeometry x="-125" y="408" width="30" height="30" as="geometry" />
        </mxCell>
        <mxCell id="ZNw0YUR-elSEx9iUAE71-72" value="1" style="text;html=1;align=center;verticalAlign=middle;resizable=0;points=[];autosize=1;strokeColor=none;fillColor=none;fontFamily=Comic Sans MS;" parent="1" vertex="1">
          <mxGeometry x="-335" y="417" width="30" height="30" as="geometry" />
        </mxCell>
        <mxCell id="ZNw0YUR-elSEx9iUAE71-73" value="request" style="rhombus;whiteSpace=wrap;html=1;fontFamily=Comic Sans MS;" parent="1" vertex="1">
          <mxGeometry x="280" y="168" width="80" height="80" as="geometry" />
        </mxCell>
        <mxCell id="ZNw0YUR-elSEx9iUAE71-74" value="" style="endArrow=none;html=1;rounded=0;entryX=0.25;entryY=1;entryDx=0;entryDy=0;exitX=1;exitY=0;exitDx=0;exitDy=0;fontFamily=Comic Sans MS;" parent="1" source="ZNw0YUR-elSEx9iUAE71-73" target="04XY_-OeRvuLBQSi6XDU-1" edge="1">
          <mxGeometry width="50" height="50" relative="1" as="geometry">
            <mxPoint x="360" y="210" as="sourcePoint" />
            <mxPoint x="410" y="160" as="targetPoint" />
          </mxGeometry>
        </mxCell>
        <mxCell id="ZNw0YUR-elSEx9iUAE71-75" value="" style="endArrow=none;html=1;rounded=0;entryX=0;entryY=1;entryDx=0;entryDy=0;exitX=1;exitY=0;exitDx=0;exitDy=0;fontFamily=Comic Sans MS;" parent="1" source="ZNw0YUR-elSEx9iUAE71-38" target="ZNw0YUR-elSEx9iUAE71-73" edge="1">
          <mxGeometry width="50" height="50" relative="1" as="geometry">
            <mxPoint x="290" y="390" as="sourcePoint" />
            <mxPoint x="340" y="340" as="targetPoint" />
          </mxGeometry>
        </mxCell>
        <mxCell id="ZNw0YUR-elSEx9iUAE71-76" value="1" style="text;html=1;align=center;verticalAlign=middle;resizable=0;points=[];autosize=1;strokeColor=none;fillColor=none;fontFamily=Comic Sans MS;" parent="1" vertex="1">
          <mxGeometry x="375" y="48" width="30" height="30" as="geometry" />
        </mxCell>
        <mxCell id="ZNw0YUR-elSEx9iUAE71-77" value="M" style="text;html=1;align=center;verticalAlign=middle;resizable=0;points=[];autosize=1;strokeColor=none;fillColor=none;fontFamily=Comic Sans MS;" parent="1" vertex="1">
          <mxGeometry x="125" y="338" width="30" height="30" as="geometry" />
        </mxCell>
        <mxCell id="ZNw0YUR-elSEx9iUAE71-78" value="1" style="text;html=1;align=center;verticalAlign=middle;resizable=0;points=[];autosize=1;strokeColor=none;fillColor=none;fontFamily=Comic Sans MS;" parent="1" vertex="1">
          <mxGeometry x="200" y="303" width="30" height="30" as="geometry" />
        </mxCell>
        <mxCell id="ZNw0YUR-elSEx9iUAE71-79" value="1" style="text;html=1;align=center;verticalAlign=middle;resizable=0;points=[];autosize=1;strokeColor=none;fillColor=none;fontFamily=Comic Sans MS;" parent="1" vertex="1">
          <mxGeometry x="390" y="78" width="30" height="30" as="geometry" />
        </mxCell>
        <mxCell id="ZNw0YUR-elSEx9iUAE71-80" value="receive " style="rhombus;whiteSpace=wrap;html=1;fontFamily=Comic Sans MS;" parent="1" vertex="1">
          <mxGeometry x="150" y="500" width="80" height="80" as="geometry" />
        </mxCell>
        <mxCell id="ZNw0YUR-elSEx9iUAE71-81" value="" style="endArrow=none;html=1;rounded=0;entryX=0;entryY=0;entryDx=0;entryDy=0;exitX=1;exitY=1;exitDx=0;exitDy=0;fontFamily=Comic Sans MS;" parent="1" source="ZNw0YUR-elSEx9iUAE71-80" target="04XY_-OeRvuLBQSi6XDU-46" edge="1">
          <mxGeometry width="50" height="50" relative="1" as="geometry">
            <mxPoint x="250" y="600" as="sourcePoint" />
            <mxPoint x="300" y="550" as="targetPoint" />
          </mxGeometry>
        </mxCell>
        <mxCell id="ZNw0YUR-elSEx9iUAE71-82" value="" style="endArrow=none;html=1;rounded=0;entryX=0;entryY=0;entryDx=0;entryDy=0;exitX=0.75;exitY=1;exitDx=0;exitDy=0;fontFamily=Comic Sans MS;" parent="1" source="ZNw0YUR-elSEx9iUAE71-38" target="ZNw0YUR-elSEx9iUAE71-80" edge="1">
          <mxGeometry width="50" height="50" relative="1" as="geometry">
            <mxPoint x="60" y="560" as="sourcePoint" />
            <mxPoint x="110" y="510" as="targetPoint" />
          </mxGeometry>
        </mxCell>
        <mxCell id="ZNw0YUR-elSEx9iUAE71-84" value="M" style="edgeLabel;html=1;align=center;verticalAlign=middle;resizable=0;points=[];fontFamily=Comic Sans MS;" parent="ZNw0YUR-elSEx9iUAE71-82" vertex="1" connectable="0">
          <mxGeometry x="-0.4241" y="7" relative="1" as="geometry">
            <mxPoint x="13" y="7" as="offset" />
          </mxGeometry>
        </mxCell>
        <mxCell id="ZNw0YUR-elSEx9iUAE71-83" value="1" style="text;html=1;align=center;verticalAlign=middle;resizable=0;points=[];autosize=1;strokeColor=none;fillColor=none;fontFamily=Comic Sans MS;" parent="1" vertex="1">
          <mxGeometry x="335" y="598" width="30" height="30" as="geometry" />
        </mxCell>
        <mxCell id="ZNw0YUR-elSEx9iUAE71-85" value="1" style="text;html=1;align=center;verticalAlign=middle;resizable=0;points=[];autosize=1;strokeColor=none;fillColor=none;fontFamily=Comic Sans MS;" parent="1" vertex="1">
          <mxGeometry x="75" y="458" width="30" height="30" as="geometry" />
        </mxCell>
        <mxCell id="ZNw0YUR-elSEx9iUAE71-87" value="1" style="text;html=1;align=center;verticalAlign=middle;resizable=0;points=[];autosize=1;strokeColor=none;fillColor=none;fontFamily=Comic Sans MS;" parent="1" vertex="1">
          <mxGeometry x="220" y="568" width="30" height="30" as="geometry" />
        </mxCell>
        <mxCell id="ZNw0YUR-elSEx9iUAE71-115" value="&lt;span style=&quot;text-align: left;&quot;&gt;&lt;font&gt;Property offer&lt;/font&gt;&lt;/span&gt;&lt;span style=&quot;color: rgba(0, 0, 0, 0); font-size: 0px; text-align: start; text-wrap-mode: nowrap;&quot;&gt;%3CmxGraphModel%3E%3Croot%3E%3CmxCell%20id%3D%220%22%2F%3E%3CmxCell%20id%3D%221%22%20parent%3D%220%22%2F%3E%3CmxCell%20id%3D%222%22%20value%3D%22%26lt%3Bspan%20style%3D%26quot%3Btext-align%3A%20left%3B%26quot%3B%26gt%3B%26lt%3Bfont%26gt%3BProperty%26lt%3B%2Ffont%26gt%3B%26lt%3B%2Fspan%26gt%3B%22%20style%3D%22rounded%3D0%3BwhiteSpace%3Dwrap%3Bhtml%3D1%3BfontFamily%3DComic%20Sans%20MS%3BfontSize%3D14%3B%22%20vertex%3D%221%22%20parent%3D%221%22%3E%3CmxGeometry%20x%3D%22380%22%20y%3D%22639%22%20width%3D%22180%22%20height%3D%2280%22%20as%3D%22geometry%22%2F%3E%3C%2FmxCell%3E%3C%2Froot%3E%3C%2FmxGraphModel%3E&lt;/span&gt;&lt;span style=&quot;color: rgba(0, 0, 0, 0); font-size: 0px; text-align: start; text-wrap-mode: nowrap;&quot;&gt;%3CmxGraphModel%3E%3Croot%3E%3CmxCell%20id%3D%220%22%2F%3E%3CmxCell%20id%3D%221%22%20parent%3D%220%22%2F%3E%3CmxCell%20id%3D%222%22%20value%3D%22%26lt%3Bspan%20style%3D%26quot%3Btext-align%3A%20left%3B%26quot%3B%26gt%3B%26lt%3Bfont%26gt%3BProperty%26lt%3B%2Ffont%26gt%3B%26lt%3B%2Fspan%26gt%3B%22%20style%3D%22rounded%3D0%3BwhiteSpace%3Dwrap%3Bhtml%3D1%3BfontFamily%3DComic%20Sans%20MS%3BfontSize%3D14%3B%22%20vertex%3D%221%22%20parent%3D%221%22%3E%3CmxGeometry%20x%3D%22380%22%20y%3D%22639%22%20width%3D%22180%22%20height%3D%2280%22%20as%3D%22geometry%22%2F%3E%3C%2FmxCell%3E%3C%2Froot%3E%3C%2FmxGraphModel%3E&lt;/span&gt;" style="rounded=0;whiteSpace=wrap;html=1;fontFamily=Comic Sans MS;fontSize=14;flipH=1;" parent="1" vertex="1">
          <mxGeometry x="1175" y="-488" width="180" height="80" as="geometry" />
        </mxCell>
        <mxCell id="ZNw0YUR-elSEx9iUAE71-116" value="OfferStatuses" style="rounded=0;whiteSpace=wrap;html=1;fontFamily=Comic Sans MS;fontSize=14;flipH=1;flipV=1;direction=east;" parent="1" vertex="1">
          <mxGeometry x="860" y="-488" width="180" height="80" as="geometry" />
        </mxCell>
        <mxCell id="ZNw0YUR-elSEx9iUAE71-117" value="&lt;b&gt;&lt;u&gt;id&lt;/u&gt;&lt;/b&gt;" style="ellipse;whiteSpace=wrap;html=1;fontSize=14;fontFamily=Comic Sans MS;flipH=1;flipV=1;direction=east;" parent="1" vertex="1">
          <mxGeometry x="770" y="-507" width="60" height="50" as="geometry" />
        </mxCell>
        <mxCell id="ZNw0YUR-elSEx9iUAE71-118" value="name" style="ellipse;whiteSpace=wrap;html=1;fontSize=14;fontFamily=Comic Sans MS;flipH=1;flipV=1;direction=east;" parent="1" vertex="1">
          <mxGeometry x="830" y="-552" width="60" height="50" as="geometry" />
        </mxCell>
        <mxCell id="ZNw0YUR-elSEx9iUAE71-119" value="" style="endArrow=none;html=1;rounded=0;entryX=0;entryY=0.5;entryDx=0;entryDy=0;exitX=1;exitY=1;exitDx=0;exitDy=0;fontFamily=Comic Sans MS;" parent="1" source="ZNw0YUR-elSEx9iUAE71-117" target="ZNw0YUR-elSEx9iUAE71-116" edge="1">
          <mxGeometry width="50" height="50" relative="1" as="geometry">
            <mxPoint x="921.2132034355964" y="-352" as="sourcePoint" />
            <mxPoint x="871.2132034355964" y="-402" as="targetPoint" />
          </mxGeometry>
        </mxCell>
        <mxCell id="ZNw0YUR-elSEx9iUAE71-120" value="" style="endArrow=none;html=1;rounded=0;entryX=0.5;entryY=1;entryDx=0;entryDy=0;exitX=0.25;exitY=0;exitDx=0;exitDy=0;fontFamily=Comic Sans MS;" parent="1" source="ZNw0YUR-elSEx9iUAE71-116" target="ZNw0YUR-elSEx9iUAE71-118" edge="1">
          <mxGeometry width="50" height="50" relative="1" as="geometry">
            <mxPoint x="925" y="-462" as="sourcePoint" />
            <mxPoint x="875" y="-512" as="targetPoint" />
          </mxGeometry>
        </mxCell>
        <mxCell id="ZNw0YUR-elSEx9iUAE71-121" value="&lt;div&gt;Use&lt;/div&gt;has" style="rhombus;whiteSpace=wrap;html=1;fontFamily=Comic Sans MS;flipH=1;flipV=1;direction=east;" parent="1" vertex="1">
          <mxGeometry x="1070" y="-488" width="80" height="80" as="geometry" />
        </mxCell>
        <mxCell id="ZNw0YUR-elSEx9iUAE71-122" value="" style="endArrow=none;html=1;rounded=0;entryX=0;entryY=0.5;entryDx=0;entryDy=0;exitX=1;exitY=0.5;exitDx=0;exitDy=0;fontFamily=Comic Sans MS;" parent="1" source="ZNw0YUR-elSEx9iUAE71-116" target="ZNw0YUR-elSEx9iUAE71-121" edge="1">
          <mxGeometry width="50" height="50" relative="1" as="geometry">
            <mxPoint x="1080" y="-342" as="sourcePoint" />
            <mxPoint x="1030" y="-392" as="targetPoint" />
          </mxGeometry>
        </mxCell>
        <mxCell id="ZNw0YUR-elSEx9iUAE71-123" value="" style="endArrow=none;html=1;rounded=0;entryX=0;entryY=0.5;entryDx=0;entryDy=0;exitX=1;exitY=0.5;exitDx=0;exitDy=0;fontFamily=Comic Sans MS;" parent="1" source="ZNw0YUR-elSEx9iUAE71-121" target="ZNw0YUR-elSEx9iUAE71-115" edge="1">
          <mxGeometry width="50" height="50" relative="1" as="geometry">
            <mxPoint x="1255" y="-322" as="sourcePoint" />
            <mxPoint x="1205" y="-372" as="targetPoint" />
          </mxGeometry>
        </mxCell>
        <mxCell id="ZNw0YUR-elSEx9iUAE71-124" value="1" style="text;html=1;align=center;verticalAlign=middle;resizable=0;points=[];autosize=1;strokeColor=none;fillColor=none;flipH=1;fontFamily=Comic Sans MS;" parent="1" vertex="1">
          <mxGeometry x="1145" y="-444" width="30" height="30" as="geometry" />
        </mxCell>
        <mxCell id="ZNw0YUR-elSEx9iUAE71-125" value="1" style="text;html=1;align=center;verticalAlign=middle;resizable=0;points=[];autosize=1;strokeColor=none;fillColor=none;flipH=1;fontFamily=Comic Sans MS;" parent="1" vertex="1">
          <mxGeometry x="1035" y="-444" width="30" height="30" as="geometry" />
        </mxCell>
        <mxCell id="ZNw0YUR-elSEx9iUAE71-126" value="1" style="text;html=1;align=center;verticalAlign=middle;resizable=0;points=[];autosize=1;strokeColor=none;fillColor=none;flipH=1;flipV=1;fontFamily=Comic Sans MS;" parent="1" vertex="1">
          <mxGeometry x="1045" y="-484" width="30" height="30" as="geometry" />
        </mxCell>
        <mxCell id="ZNw0YUR-elSEx9iUAE71-127" value="M" style="text;html=1;align=center;verticalAlign=middle;resizable=0;points=[];autosize=1;strokeColor=none;fillColor=none;flipH=1;fontFamily=Comic Sans MS;" parent="1" vertex="1">
          <mxGeometry x="1145" y="-484" width="30" height="30" as="geometry" />
        </mxCell>
        <mxCell id="ZNw0YUR-elSEx9iUAE71-129" value="" style="endArrow=none;html=1;rounded=0;entryX=1;entryY=0;entryDx=0;entryDy=0;exitX=0;exitY=1;exitDx=0;exitDy=0;fontFamily=Comic Sans MS;" parent="1" source="ZNw0YUR-elSEx9iUAE71-128" target="04XY_-OeRvuLBQSi6XDU-1" edge="1">
          <mxGeometry width="50" height="50" relative="1" as="geometry">
            <mxPoint x="570" y="77" as="sourcePoint" />
            <mxPoint x="550" y="-173" as="targetPoint" />
          </mxGeometry>
        </mxCell>
        <mxCell id="ZNw0YUR-elSEx9iUAE71-130" value="" style="endArrow=none;html=1;rounded=0;entryX=0.5;entryY=1;entryDx=0;entryDy=0;exitX=1;exitY=0;exitDx=0;exitDy=0;fontFamily=Comic Sans MS;" parent="1" source="ZNw0YUR-elSEx9iUAE71-128" target="ZNw0YUR-elSEx9iUAE71-115" edge="1">
          <mxGeometry width="50" height="50" relative="1" as="geometry">
            <mxPoint x="770" y="-263" as="sourcePoint" />
            <mxPoint x="760" y="-158" as="targetPoint" />
            <Array as="points">
              <mxPoint x="1070" y="-303" />
            </Array>
          </mxGeometry>
        </mxCell>
        <mxCell id="ZNw0YUR-elSEx9iUAE71-136" value="OfferTypes" style="rounded=0;whiteSpace=wrap;html=1;fontFamily=Comic Sans MS;fontSize=14;flipH=1;flipV=1;direction=east;" parent="1" vertex="1">
          <mxGeometry x="1530" y="-355" width="180" height="80" as="geometry" />
        </mxCell>
        <mxCell id="ZNw0YUR-elSEx9iUAE71-137" value="&lt;div&gt;Used&lt;/div&gt;has" style="rhombus;whiteSpace=wrap;html=1;fontFamily=Comic Sans MS;flipH=1;flipV=1;direction=east;" parent="1" vertex="1">
          <mxGeometry x="1400" y="-355" width="80" height="80" as="geometry" />
        </mxCell>
        <mxCell id="ZNw0YUR-elSEx9iUAE71-138" value="" style="endArrow=none;html=1;rounded=0;entryX=0;entryY=0.5;entryDx=0;entryDy=0;exitX=1;exitY=0.5;exitDx=0;exitDy=0;fontFamily=Comic Sans MS;" parent="1" source="ZNw0YUR-elSEx9iUAE71-115" target="ZNw0YUR-elSEx9iUAE71-137" edge="1">
          <mxGeometry width="50" height="50" relative="1" as="geometry">
            <mxPoint x="1350" y="-215" as="sourcePoint" />
            <mxPoint x="1400" y="-265" as="targetPoint" />
          </mxGeometry>
        </mxCell>
        <mxCell id="ZNw0YUR-elSEx9iUAE71-139" value="" style="endArrow=none;html=1;rounded=0;entryX=0;entryY=0.5;entryDx=0;entryDy=0;exitX=1;exitY=0.5;exitDx=0;exitDy=0;fontFamily=Comic Sans MS;" parent="1" source="ZNw0YUR-elSEx9iUAE71-137" target="ZNw0YUR-elSEx9iUAE71-136" edge="1">
          <mxGeometry width="50" height="50" relative="1" as="geometry">
            <mxPoint x="1440" y="-205" as="sourcePoint" />
            <mxPoint x="1490" y="-255" as="targetPoint" />
          </mxGeometry>
        </mxCell>
        <mxCell id="ZNw0YUR-elSEx9iUAE71-140" value="&lt;b&gt;&lt;u&gt;id&lt;/u&gt;&lt;/b&gt;" style="ellipse;whiteSpace=wrap;html=1;fontSize=14;fontFamily=Comic Sans MS;flipH=1;flipV=1;direction=east;" parent="1" vertex="1">
          <mxGeometry x="1560" y="-435" width="60" height="50" as="geometry" />
        </mxCell>
        <mxCell id="ZNw0YUR-elSEx9iUAE71-141" value="name" style="ellipse;whiteSpace=wrap;html=1;fontSize=14;fontFamily=Comic Sans MS;flipH=1;flipV=1;direction=east;" parent="1" vertex="1">
          <mxGeometry x="1630" y="-424" width="60" height="50" as="geometry" />
        </mxCell>
        <mxCell id="ZNw0YUR-elSEx9iUAE71-142" value="" style="endArrow=none;html=1;rounded=0;entryX=0.5;entryY=1;entryDx=0;entryDy=0;exitX=0.25;exitY=0;exitDx=0;exitDy=0;fontFamily=Comic Sans MS;" parent="1" source="ZNw0YUR-elSEx9iUAE71-136" target="ZNw0YUR-elSEx9iUAE71-140" edge="1">
          <mxGeometry width="50" height="50" relative="1" as="geometry">
            <mxPoint x="1530" y="-175" as="sourcePoint" />
            <mxPoint x="1580" y="-225" as="targetPoint" />
          </mxGeometry>
        </mxCell>
        <mxCell id="ZNw0YUR-elSEx9iUAE71-143" value="" style="endArrow=none;html=1;rounded=0;entryX=0.5;entryY=1;entryDx=0;entryDy=0;exitX=0.5;exitY=0;exitDx=0;exitDy=0;fontFamily=Comic Sans MS;" parent="1" source="ZNw0YUR-elSEx9iUAE71-136" target="ZNw0YUR-elSEx9iUAE71-141" edge="1">
          <mxGeometry width="50" height="50" relative="1" as="geometry">
            <mxPoint x="1600" y="-175" as="sourcePoint" />
            <mxPoint x="1650" y="-225" as="targetPoint" />
          </mxGeometry>
        </mxCell>
        <mxCell id="ZNw0YUR-elSEx9iUAE71-145" value="OfferAmount" style="ellipse;whiteSpace=wrap;html=1;fontSize=14;fontFamily=Comic Sans MS;flipH=1;flipV=1;direction=east;" parent="1" vertex="1">
          <mxGeometry x="1704" y="-415" width="110" height="51" as="geometry" />
        </mxCell>
        <mxCell id="ZNw0YUR-elSEx9iUAE71-146" value="" style="endArrow=none;html=1;rounded=0;entryX=0;entryY=0.5;entryDx=0;entryDy=0;exitX=0.75;exitY=0;exitDx=0;exitDy=0;fontFamily=Comic Sans MS;" parent="1" source="ZNw0YUR-elSEx9iUAE71-136" target="ZNw0YUR-elSEx9iUAE71-145" edge="1">
          <mxGeometry width="50" height="50" relative="1" as="geometry">
            <mxPoint x="1750" y="-265" as="sourcePoint" />
            <mxPoint x="1800" y="-315" as="targetPoint" />
          </mxGeometry>
        </mxCell>
        <mxCell id="ZNw0YUR-elSEx9iUAE71-147" value="1" style="text;html=1;align=center;verticalAlign=middle;resizable=0;points=[];autosize=1;strokeColor=none;fillColor=none;fontFamily=Comic Sans MS;" parent="1" vertex="1">
          <mxGeometry x="1485" y="-347" width="30" height="30" as="geometry" />
        </mxCell>
        <mxCell id="ZNw0YUR-elSEx9iUAE71-148" value="M" style="text;html=1;align=center;verticalAlign=middle;resizable=0;points=[];autosize=1;strokeColor=none;fillColor=none;fontFamily=Comic Sans MS;" parent="1" vertex="1">
          <mxGeometry x="1355" y="-341" width="30" height="30" as="geometry" />
        </mxCell>
        <mxCell id="ZNw0YUR-elSEx9iUAE71-149" value="1" style="text;html=1;align=center;verticalAlign=middle;resizable=0;points=[];autosize=1;strokeColor=none;fillColor=none;fontFamily=Comic Sans MS;" parent="1" vertex="1">
          <mxGeometry x="1355" y="-317" width="30" height="30" as="geometry" />
        </mxCell>
        <mxCell id="ZNw0YUR-elSEx9iUAE71-150" value="1" style="text;html=1;align=center;verticalAlign=middle;resizable=0;points=[];autosize=1;strokeColor=none;fillColor=none;fontFamily=Comic Sans MS;" parent="1" vertex="1">
          <mxGeometry x="1500" y="-311" width="30" height="30" as="geometry" />
        </mxCell>
        <mxCell id="ZNw0YUR-elSEx9iUAE71-153" value="OfferDate" style="ellipse;whiteSpace=wrap;html=1;fontSize=14;fontFamily=Comic Sans MS;flipH=1;flipV=1;direction=east;" parent="1" vertex="1">
          <mxGeometry x="1760" y="-355" width="80" height="50" as="geometry" />
        </mxCell>
        <mxCell id="ZNw0YUR-elSEx9iUAE71-154" value="Message" style="ellipse;whiteSpace=wrap;html=1;fontSize=14;fontFamily=Comic Sans MS;flipH=1;flipV=1;direction=east;" parent="1" vertex="1">
          <mxGeometry x="1760" y="-287" width="70" height="42" as="geometry" />
        </mxCell>
        <mxCell id="ZNw0YUR-elSEx9iUAE71-155" value="" style="endArrow=none;html=1;rounded=0;entryX=0;entryY=0.5;entryDx=0;entryDy=0;exitX=1;exitY=0.25;exitDx=0;exitDy=0;fontFamily=Comic Sans MS;" parent="1" source="ZNw0YUR-elSEx9iUAE71-136" target="ZNw0YUR-elSEx9iUAE71-153" edge="1">
          <mxGeometry width="50" height="50" relative="1" as="geometry">
            <mxPoint x="1730" y="-265" as="sourcePoint" />
            <mxPoint x="1780" y="-315" as="targetPoint" />
          </mxGeometry>
        </mxCell>
        <mxCell id="ZNw0YUR-elSEx9iUAE71-156" value="" style="endArrow=none;html=1;rounded=0;entryX=0;entryY=0.5;entryDx=0;entryDy=0;exitX=1;exitY=0.5;exitDx=0;exitDy=0;fontFamily=Comic Sans MS;" parent="1" source="ZNw0YUR-elSEx9iUAE71-136" target="ZNw0YUR-elSEx9iUAE71-154" edge="1">
          <mxGeometry width="50" height="50" relative="1" as="geometry">
            <mxPoint x="1680" y="-195" as="sourcePoint" />
            <mxPoint x="1730" y="-245" as="targetPoint" />
          </mxGeometry>
        </mxCell>
        <mxCell id="JJCFYP8vbXaR3GsUEAVV-14" value="&lt;font style=&quot;font-size: 15px;&quot;&gt;Contracts&lt;/font&gt;" style="rounded=0;whiteSpace=wrap;html=1;fontFamily=Comic Sans MS;" parent="1" vertex="1">
          <mxGeometry x="910" y="60" width="180" height="80" as="geometry" />
        </mxCell>
        <mxCell id="JJCFYP8vbXaR3GsUEAVV-15" value="&lt;u&gt;&lt;b&gt;id&lt;/b&gt;&lt;/u&gt;" style="ellipse;whiteSpace=wrap;html=1;fontSize=14;fontFamily=Comic Sans MS;" parent="1" vertex="1">
          <mxGeometry x="850" y="-20" width="60" height="50" as="geometry" />
        </mxCell>
        <mxCell id="JJCFYP8vbXaR3GsUEAVV-16" value="name" style="ellipse;whiteSpace=wrap;html=1;fontSize=14;fontFamily=Comic Sans MS;" parent="1" vertex="1">
          <mxGeometry x="940" y="-20" width="60" height="50" as="geometry" />
        </mxCell>
        <mxCell id="JJCFYP8vbXaR3GsUEAVV-17" value="" style="endArrow=none;html=1;rounded=0;entryX=0.5;entryY=1;entryDx=0;entryDy=0;exitX=0;exitY=0;exitDx=0;exitDy=0;fontFamily=Comic Sans MS;" parent="1" source="JJCFYP8vbXaR3GsUEAVV-14" target="JJCFYP8vbXaR3GsUEAVV-15" edge="1">
          <mxGeometry width="50" height="50" relative="1" as="geometry">
            <mxPoint x="785" y="210" as="sourcePoint" />
            <mxPoint x="835" y="160" as="targetPoint" />
          </mxGeometry>
        </mxCell>
        <mxCell id="JJCFYP8vbXaR3GsUEAVV-18" value="" style="endArrow=none;html=1;rounded=0;entryX=0.5;entryY=1;entryDx=0;entryDy=0;exitX=0.25;exitY=0;exitDx=0;exitDy=0;fontFamily=Comic Sans MS;" parent="1" source="JJCFYP8vbXaR3GsUEAVV-14" target="JJCFYP8vbXaR3GsUEAVV-16" edge="1">
          <mxGeometry width="50" height="50" relative="1" as="geometry">
            <mxPoint x="795" y="210" as="sourcePoint" />
            <mxPoint x="845" y="160" as="targetPoint" />
          </mxGeometry>
        </mxCell>
        <mxCell id="JJCFYP8vbXaR3GsUEAVV-24" value="" style="group;fontFamily=Comic Sans MS;" parent="1" vertex="1" connectable="0">
          <mxGeometry x="680" y="-373" width="140" height="120" as="geometry" />
        </mxCell>
        <mxCell id="ZNw0YUR-elSEx9iUAE71-132" value="M" style="text;html=1;align=center;verticalAlign=middle;resizable=0;points=[];autosize=1;strokeColor=none;fillColor=none;fontFamily=Comic Sans MS;" parent="JJCFYP8vbXaR3GsUEAVV-24" vertex="1">
          <mxGeometry x="100" width="30" height="30" as="geometry" />
        </mxCell>
        <mxCell id="ZNw0YUR-elSEx9iUAE71-134" value="1" style="text;html=1;align=center;verticalAlign=middle;resizable=0;points=[];autosize=1;strokeColor=none;fillColor=none;fontFamily=Comic Sans MS;" parent="JJCFYP8vbXaR3GsUEAVV-24" vertex="1">
          <mxGeometry x="110" y="40" width="30" height="30" as="geometry" />
        </mxCell>
        <mxCell id="JJCFYP8vbXaR3GsUEAVV-23" value="" style="group;fontFamily=Comic Sans MS;" parent="JJCFYP8vbXaR3GsUEAVV-24" vertex="1" connectable="0">
          <mxGeometry y="12" width="110" height="108" as="geometry" />
        </mxCell>
        <mxCell id="ZNw0YUR-elSEx9iUAE71-128" value="&lt;div&gt;offer&lt;/div&gt;&lt;div&gt;made by&lt;/div&gt;" style="rhombus;whiteSpace=wrap;html=1;fontFamily=Comic Sans MS;flipH=1;flipV=1;direction=east;" parent="JJCFYP8vbXaR3GsUEAVV-23" vertex="1">
          <mxGeometry x="30" width="80" height="80" as="geometry" />
        </mxCell>
        <mxCell id="JJCFYP8vbXaR3GsUEAVV-20" value="1" style="text;html=1;align=center;verticalAlign=middle;resizable=0;points=[];autosize=1;strokeColor=none;fillColor=none;fontFamily=Comic Sans MS;" parent="JJCFYP8vbXaR3GsUEAVV-23" vertex="1">
          <mxGeometry x="30" y="78" width="30" height="30" as="geometry" />
        </mxCell>
        <mxCell id="JJCFYP8vbXaR3GsUEAVV-21" value="1" style="text;html=1;align=center;verticalAlign=middle;resizable=0;points=[];autosize=1;strokeColor=none;fillColor=none;fontFamily=Comic Sans MS;" parent="JJCFYP8vbXaR3GsUEAVV-23" vertex="1">
          <mxGeometry y="38" width="30" height="30" as="geometry" />
        </mxCell>
        <mxCell id="JJCFYP8vbXaR3GsUEAVV-29" value="" style="endArrow=none;html=1;rounded=0;entryX=0.5;entryY=1;entryDx=0;entryDy=0;exitX=1;exitY=0;exitDx=0;exitDy=0;fontFamily=Comic Sans MS;" parent="1" source="JJCFYP8vbXaR3GsUEAVV-28" target="ZNw0YUR-elSEx9iUAE71-115" edge="1">
          <mxGeometry width="50" height="50" relative="1" as="geometry">
            <mxPoint x="1180" y="-143" as="sourcePoint" />
            <mxPoint x="1480" y="-183" as="targetPoint" />
          </mxGeometry>
        </mxCell>
        <mxCell id="JJCFYP8vbXaR3GsUEAVV-30" value="" style="endArrow=none;html=1;rounded=0;entryX=0;entryY=1;entryDx=0;entryDy=0;exitX=1;exitY=0.5;exitDx=0;exitDy=0;fontFamily=Comic Sans MS;" parent="1" source="JJCFYP8vbXaR3GsUEAVV-14" target="JJCFYP8vbXaR3GsUEAVV-28" edge="1">
          <mxGeometry width="50" height="50" relative="1" as="geometry">
            <mxPoint x="1200" y="150" as="sourcePoint" />
            <mxPoint x="1250" y="100" as="targetPoint" />
          </mxGeometry>
        </mxCell>
        <mxCell id="JJCFYP8vbXaR3GsUEAVV-35" value="" style="group;fontFamily=Comic Sans MS;" parent="1" vertex="1" connectable="0">
          <mxGeometry x="1100" y="-60" width="115" height="130" as="geometry" />
        </mxCell>
        <mxCell id="JJCFYP8vbXaR3GsUEAVV-28" value="have&amp;nbsp;&lt;div&gt;belong&lt;/div&gt;" style="rhombus;whiteSpace=wrap;html=1;fontFamily=Comic Sans MS;" parent="JJCFYP8vbXaR3GsUEAVV-35" vertex="1">
          <mxGeometry x="20" y="30" width="80" height="80" as="geometry" />
        </mxCell>
        <mxCell id="JJCFYP8vbXaR3GsUEAVV-31" value="1" style="text;html=1;align=center;verticalAlign=middle;resizable=0;points=[];autosize=1;strokeColor=none;fillColor=none;fontFamily=Comic Sans MS;" parent="JJCFYP8vbXaR3GsUEAVV-35" vertex="1">
          <mxGeometry x="85" y="28" width="30" height="30" as="geometry" />
        </mxCell>
        <mxCell id="JJCFYP8vbXaR3GsUEAVV-32" value="M" style="text;html=1;align=center;verticalAlign=middle;resizable=0;points=[];autosize=1;strokeColor=none;fillColor=none;fontFamily=Comic Sans MS;" parent="JJCFYP8vbXaR3GsUEAVV-35" vertex="1">
          <mxGeometry x="30" y="100" width="30" height="30" as="geometry" />
        </mxCell>
        <mxCell id="JJCFYP8vbXaR3GsUEAVV-33" value="1" style="text;html=1;align=center;verticalAlign=middle;resizable=0;points=[];autosize=1;strokeColor=none;fillColor=none;fontFamily=Comic Sans MS;" parent="JJCFYP8vbXaR3GsUEAVV-35" vertex="1">
          <mxGeometry y="78" width="30" height="30" as="geometry" />
        </mxCell>
        <mxCell id="JJCFYP8vbXaR3GsUEAVV-34" value="1" style="text;html=1;align=center;verticalAlign=middle;resizable=0;points=[];autosize=1;strokeColor=none;fillColor=none;fontFamily=Comic Sans MS;" parent="JJCFYP8vbXaR3GsUEAVV-35" vertex="1">
          <mxGeometry x="55" width="30" height="30" as="geometry" />
        </mxCell>
        <mxCell id="JJCFYP8vbXaR3GsUEAVV-39" value="" style="endArrow=none;html=1;rounded=0;entryX=0;entryY=1;entryDx=0;entryDy=0;exitX=0.5;exitY=0;exitDx=0;exitDy=0;fontFamily=Comic Sans MS;" parent="1" source="04XY_-OeRvuLBQSi6XDU-46" target="JJCFYP8vbXaR3GsUEAVV-25" edge="1">
          <mxGeometry width="50" height="50" relative="1" as="geometry">
            <mxPoint x="710" y="380" as="sourcePoint" />
            <mxPoint x="760" y="330" as="targetPoint" />
            <Array as="points">
              <mxPoint x="550" y="420" />
            </Array>
          </mxGeometry>
        </mxCell>
        <mxCell id="JJCFYP8vbXaR3GsUEAVV-40" value="" style="endArrow=none;html=1;rounded=0;entryX=0.5;entryY=1;entryDx=0;entryDy=0;exitX=1;exitY=0;exitDx=0;exitDy=0;fontFamily=Comic Sans MS;" parent="1" source="JJCFYP8vbXaR3GsUEAVV-25" target="JJCFYP8vbXaR3GsUEAVV-14" edge="1">
          <mxGeometry width="50" height="50" relative="1" as="geometry">
            <mxPoint x="830" y="390" as="sourcePoint" />
            <mxPoint x="880" y="340" as="targetPoint" />
          </mxGeometry>
        </mxCell>
        <mxCell id="JJCFYP8vbXaR3GsUEAVV-46" value="" style="group;fontFamily=Comic Sans MS;" parent="1" vertex="1" connectable="0">
          <mxGeometry x="680" y="303" width="125" height="105" as="geometry" />
        </mxCell>
        <mxCell id="JJCFYP8vbXaR3GsUEAVV-25" value="have" style="rhombus;whiteSpace=wrap;html=1;fontFamily=Comic Sans MS;" parent="JJCFYP8vbXaR3GsUEAVV-46" vertex="1">
          <mxGeometry x="20" y="9" width="80" height="80" as="geometry" />
        </mxCell>
        <mxCell id="JJCFYP8vbXaR3GsUEAVV-41" value="1" style="text;html=1;align=center;verticalAlign=middle;resizable=0;points=[];autosize=1;strokeColor=none;fillColor=none;fontFamily=Comic Sans MS;" parent="JJCFYP8vbXaR3GsUEAVV-46" vertex="1">
          <mxGeometry y="50" width="30" height="30" as="geometry" />
        </mxCell>
        <mxCell id="JJCFYP8vbXaR3GsUEAVV-43" value="M" style="text;html=1;align=center;verticalAlign=middle;resizable=0;points=[];autosize=1;strokeColor=none;fillColor=none;fontFamily=Comic Sans MS;" parent="JJCFYP8vbXaR3GsUEAVV-46" vertex="1">
          <mxGeometry x="70" width="30" height="30" as="geometry" />
        </mxCell>
        <mxCell id="JJCFYP8vbXaR3GsUEAVV-44" value="1" style="text;html=1;align=center;verticalAlign=middle;resizable=0;points=[];autosize=1;strokeColor=none;fillColor=none;fontFamily=Comic Sans MS;" parent="JJCFYP8vbXaR3GsUEAVV-46" vertex="1">
          <mxGeometry x="95" y="15" width="30" height="30" as="geometry" />
        </mxCell>
        <mxCell id="JJCFYP8vbXaR3GsUEAVV-45" value="1" style="text;html=1;align=center;verticalAlign=middle;resizable=0;points=[];autosize=1;strokeColor=none;fillColor=none;fontFamily=Comic Sans MS;" parent="JJCFYP8vbXaR3GsUEAVV-46" vertex="1">
          <mxGeometry x="15" y="75" width="30" height="30" as="geometry" />
        </mxCell>
        <mxCell id="JJCFYP8vbXaR3GsUEAVV-48" value="enters&lt;div&gt;signed&lt;/div&gt;" style="rhombus;whiteSpace=wrap;html=1;fontFamily=Comic Sans MS;" parent="1" vertex="1">
          <mxGeometry x="575" y="168" width="80" height="80" as="geometry" />
        </mxCell>
        <mxCell id="JJCFYP8vbXaR3GsUEAVV-53" value="" style="endArrow=none;html=1;rounded=0;entryX=0.75;entryY=1;entryDx=0;entryDy=0;exitX=0;exitY=0;exitDx=0;exitDy=0;fontFamily=Comic Sans MS;" parent="1" source="JJCFYP8vbXaR3GsUEAVV-48" target="04XY_-OeRvuLBQSi6XDU-1" edge="1">
          <mxGeometry width="50" height="50" relative="1" as="geometry">
            <mxPoint x="580" y="260" as="sourcePoint" />
            <mxPoint x="630" y="210" as="targetPoint" />
          </mxGeometry>
        </mxCell>
        <mxCell id="JJCFYP8vbXaR3GsUEAVV-54" value="" style="endArrow=none;html=1;rounded=0;entryX=0;entryY=0.5;entryDx=0;entryDy=0;exitX=1;exitY=0;exitDx=0;exitDy=0;fontFamily=Comic Sans MS;" parent="1" source="JJCFYP8vbXaR3GsUEAVV-48" target="JJCFYP8vbXaR3GsUEAVV-14" edge="1">
          <mxGeometry width="50" height="50" relative="1" as="geometry">
            <mxPoint x="710" y="230" as="sourcePoint" />
            <mxPoint x="760" y="180" as="targetPoint" />
          </mxGeometry>
        </mxCell>
        <mxCell id="JJCFYP8vbXaR3GsUEAVV-55" value="1" style="text;html=1;align=center;verticalAlign=middle;resizable=0;points=[];autosize=1;strokeColor=none;fillColor=none;rotation=60;fontFamily=Comic Sans MS;" parent="1" vertex="1">
          <mxGeometry x="580" y="150" width="30" height="30" as="geometry" />
        </mxCell>
        <mxCell id="JJCFYP8vbXaR3GsUEAVV-56" value="M" style="text;html=1;align=center;verticalAlign=middle;resizable=0;points=[];autosize=1;strokeColor=none;fillColor=none;fontFamily=Comic Sans MS;" parent="1" vertex="1">
          <mxGeometry x="620" y="158" width="30" height="30" as="geometry" />
        </mxCell>
        <mxCell id="JJCFYP8vbXaR3GsUEAVV-57" value="1" style="text;html=1;align=center;verticalAlign=middle;resizable=0;points=[];autosize=1;strokeColor=none;fillColor=none;fontFamily=Comic Sans MS;" parent="1" vertex="1">
          <mxGeometry x="650" y="180" width="30" height="30" as="geometry" />
        </mxCell>
        <mxCell id="JJCFYP8vbXaR3GsUEAVV-58" value="1" style="text;html=1;align=center;verticalAlign=middle;resizable=0;points=[];autosize=1;strokeColor=none;fillColor=none;fontFamily=Comic Sans MS;" parent="1" vertex="1">
          <mxGeometry x="555" y="168" width="30" height="30" as="geometry" />
        </mxCell>
        <mxCell id="JJCFYP8vbXaR3GsUEAVV-59" value="Contract type" style="rounded=0;whiteSpace=wrap;html=1;fontFamily=Comic Sans MS;fontSize=14;flipH=1;flipV=1;direction=east;" parent="1" vertex="1">
          <mxGeometry x="1495" y="48" width="180" height="80" as="geometry" />
        </mxCell>
        <mxCell id="JJCFYP8vbXaR3GsUEAVV-60" value="&lt;b&gt;&lt;u&gt;id&lt;/u&gt;&lt;/b&gt;" style="ellipse;whiteSpace=wrap;html=1;fontSize=14;fontFamily=Comic Sans MS;flipH=1;flipV=1;direction=east;" parent="1" vertex="1">
          <mxGeometry x="1400" y="33" width="60" height="50" as="geometry" />
        </mxCell>
        <mxCell id="JJCFYP8vbXaR3GsUEAVV-61" value="name" style="ellipse;whiteSpace=wrap;html=1;fontSize=14;fontFamily=Comic Sans MS;flipH=1;flipV=1;direction=east;" parent="1" vertex="1">
          <mxGeometry x="1460" y="-12" width="60" height="50" as="geometry" />
        </mxCell>
        <mxCell id="JJCFYP8vbXaR3GsUEAVV-62" value="" style="endArrow=none;html=1;rounded=0;entryX=0;entryY=0.5;entryDx=0;entryDy=0;exitX=1;exitY=1;exitDx=0;exitDy=0;fontFamily=Comic Sans MS;" parent="1" source="JJCFYP8vbXaR3GsUEAVV-60" target="JJCFYP8vbXaR3GsUEAVV-59" edge="1">
          <mxGeometry width="50" height="50" relative="1" as="geometry">
            <mxPoint x="1551.2132034355964" y="188" as="sourcePoint" />
            <mxPoint x="1501.2132034355964" y="138" as="targetPoint" />
          </mxGeometry>
        </mxCell>
        <mxCell id="JJCFYP8vbXaR3GsUEAVV-63" value="" style="endArrow=none;html=1;rounded=0;entryX=0.5;entryY=1;entryDx=0;entryDy=0;exitX=0.25;exitY=0;exitDx=0;exitDy=0;fontFamily=Comic Sans MS;" parent="1" source="JJCFYP8vbXaR3GsUEAVV-59" target="JJCFYP8vbXaR3GsUEAVV-61" edge="1">
          <mxGeometry width="50" height="50" relative="1" as="geometry">
            <mxPoint x="1555" y="78" as="sourcePoint" />
            <mxPoint x="1505" y="28" as="targetPoint" />
          </mxGeometry>
        </mxCell>
        <mxCell id="JJCFYP8vbXaR3GsUEAVV-64" value="defines&lt;div&gt;defined&lt;/div&gt;" style="rhombus;whiteSpace=wrap;html=1;fontFamily=Comic Sans MS;" parent="1" vertex="1">
          <mxGeometry x="1250" y="58" width="80" height="80" as="geometry" />
        </mxCell>
        <mxCell id="JJCFYP8vbXaR3GsUEAVV-65" value="" style="endArrow=none;html=1;rounded=0;entryX=0;entryY=0.5;entryDx=0;entryDy=0;exitX=1;exitY=0.5;exitDx=0;exitDy=0;fontFamily=Comic Sans MS;" parent="1" source="JJCFYP8vbXaR3GsUEAVV-14" target="JJCFYP8vbXaR3GsUEAVV-64" edge="1">
          <mxGeometry width="50" height="50" relative="1" as="geometry">
            <mxPoint x="1160" y="200" as="sourcePoint" />
            <mxPoint x="1210" y="150" as="targetPoint" />
          </mxGeometry>
        </mxCell>
        <mxCell id="JJCFYP8vbXaR3GsUEAVV-66" value="" style="endArrow=none;html=1;rounded=0;entryX=1.002;entryY=0.389;entryDx=0;entryDy=0;entryPerimeter=0;exitX=1;exitY=0.5;exitDx=0;exitDy=0;fontFamily=Comic Sans MS;" parent="1" source="JJCFYP8vbXaR3GsUEAVV-64" target="JJCFYP8vbXaR3GsUEAVV-59" edge="1">
          <mxGeometry width="50" height="50" relative="1" as="geometry">
            <mxPoint x="1330" y="170" as="sourcePoint" />
            <mxPoint x="1380" y="120" as="targetPoint" />
          </mxGeometry>
        </mxCell>
        <mxCell id="JJCFYP8vbXaR3GsUEAVV-67" value="1" style="text;html=1;align=center;verticalAlign=middle;resizable=0;points=[];autosize=1;strokeColor=none;fillColor=none;fontFamily=Comic Sans MS;" parent="1" vertex="1">
          <mxGeometry x="1330" y="70" width="30" height="30" as="geometry" />
        </mxCell>
        <mxCell id="JJCFYP8vbXaR3GsUEAVV-68" value="M" style="text;html=1;align=center;verticalAlign=middle;resizable=0;points=[];autosize=1;strokeColor=none;fillColor=none;fontFamily=Comic Sans MS;" parent="1" vertex="1">
          <mxGeometry x="1220" y="73" width="30" height="30" as="geometry" />
        </mxCell>
        <mxCell id="JJCFYP8vbXaR3GsUEAVV-69" value="1" style="text;html=1;align=center;verticalAlign=middle;resizable=0;points=[];autosize=1;strokeColor=none;fillColor=none;fontFamily=Comic Sans MS;" parent="1" vertex="1">
          <mxGeometry x="1220" y="98" width="30" height="30" as="geometry" />
        </mxCell>
        <mxCell id="JJCFYP8vbXaR3GsUEAVV-70" value="1" style="text;html=1;align=center;verticalAlign=middle;resizable=0;points=[];autosize=1;strokeColor=none;fillColor=none;fontFamily=Comic Sans MS;" parent="1" vertex="1">
          <mxGeometry x="1330" y="98" width="30" height="30" as="geometry" />
        </mxCell>
        <mxCell id="JJCFYP8vbXaR3GsUEAVV-71" value="have" style="rhombus;whiteSpace=wrap;html=1;fontFamily=Comic Sans MS;" parent="1" vertex="1">
          <mxGeometry x="710" y="15" width="80" height="80" as="geometry" />
        </mxCell>
        <mxCell id="JJCFYP8vbXaR3GsUEAVV-72" value="" style="endArrow=none;html=1;rounded=0;entryX=0;entryY=0.5;entryDx=0;entryDy=0;exitX=1;exitY=0.5;exitDx=0;exitDy=0;fontFamily=Comic Sans MS;" parent="1" source="04XY_-OeRvuLBQSi6XDU-1" target="JJCFYP8vbXaR3GsUEAVV-71" edge="1">
          <mxGeometry width="50" height="50" relative="1" as="geometry">
            <mxPoint x="600" y="60" as="sourcePoint" />
            <mxPoint x="650" y="10" as="targetPoint" />
          </mxGeometry>
        </mxCell>
        <mxCell id="JJCFYP8vbXaR3GsUEAVV-73" value="" style="endArrow=none;html=1;rounded=0;entryX=1;entryY=0.5;entryDx=0;entryDy=0;exitX=0;exitY=0.25;exitDx=0;exitDy=0;fontFamily=Comic Sans MS;" parent="1" source="JJCFYP8vbXaR3GsUEAVV-14" target="JJCFYP8vbXaR3GsUEAVV-71" edge="1">
          <mxGeometry width="50" height="50" relative="1" as="geometry">
            <mxPoint x="780" y="120" as="sourcePoint" />
            <mxPoint x="830" y="70" as="targetPoint" />
          </mxGeometry>
        </mxCell>
        <mxCell id="JJCFYP8vbXaR3GsUEAVV-74" value="1" style="text;html=1;align=center;verticalAlign=middle;resizable=0;points=[];autosize=1;strokeColor=none;fillColor=none;fontFamily=Comic Sans MS;" parent="1" vertex="1">
          <mxGeometry x="690" y="18" width="30" height="30" as="geometry" />
        </mxCell>
        <mxCell id="JJCFYP8vbXaR3GsUEAVV-75" value="M" style="text;html=1;align=center;verticalAlign=middle;resizable=0;points=[];autosize=1;strokeColor=none;fillColor=none;fontFamily=Comic Sans MS;" parent="1" vertex="1">
          <mxGeometry x="785" y="30" width="30" height="30" as="geometry" />
        </mxCell>
        <mxCell id="JJCFYP8vbXaR3GsUEAVV-76" value="1" style="text;html=1;align=center;verticalAlign=middle;resizable=0;points=[];autosize=1;strokeColor=none;fillColor=none;fontFamily=Comic Sans MS;" parent="1" vertex="1">
          <mxGeometry x="785" y="58" width="30" height="30" as="geometry" />
        </mxCell>
        <mxCell id="JJCFYP8vbXaR3GsUEAVV-77" value="1" style="text;html=1;align=center;verticalAlign=middle;resizable=0;points=[];autosize=1;strokeColor=none;fillColor=none;fontFamily=Comic Sans MS;" parent="1" vertex="1">
          <mxGeometry x="675" y="48" width="30" height="30" as="geometry" />
        </mxCell>
        <mxCell id="JJCFYP8vbXaR3GsUEAVV-78" value="Transactions&amp;nbsp;" style="rounded=0;whiteSpace=wrap;html=1;fontFamily=Comic Sans MS;fontSize=14;flipH=1;flipV=1;direction=east;" parent="1" vertex="1">
          <mxGeometry x="375" y="-468" width="180" height="80" as="geometry" />
        </mxCell>
        <mxCell id="JJCFYP8vbXaR3GsUEAVV-79" value="make&lt;div&gt;made&lt;/div&gt;" style="rhombus;whiteSpace=wrap;html=1;fontFamily=Comic Sans MS;" parent="1" vertex="1">
          <mxGeometry x="425" y="-281" width="80" height="80" as="geometry" />
        </mxCell>
        <mxCell id="JJCFYP8vbXaR3GsUEAVV-80" value="" style="endArrow=none;html=1;rounded=0;entryX=0.5;entryY=1;entryDx=0;entryDy=0;exitX=0.5;exitY=0;exitDx=0;exitDy=0;fontFamily=Comic Sans MS;" parent="1" source="04XY_-OeRvuLBQSi6XDU-1" target="JJCFYP8vbXaR3GsUEAVV-79" edge="1">
          <mxGeometry width="50" height="50" relative="1" as="geometry">
            <mxPoint x="460" y="-140" as="sourcePoint" />
            <mxPoint x="510" y="-190" as="targetPoint" />
          </mxGeometry>
        </mxCell>
        <mxCell id="JJCFYP8vbXaR3GsUEAVV-81" value="" style="endArrow=none;html=1;rounded=0;entryX=0.5;entryY=1;entryDx=0;entryDy=0;exitX=0.5;exitY=0;exitDx=0;exitDy=0;fontFamily=Comic Sans MS;" parent="1" source="JJCFYP8vbXaR3GsUEAVV-79" target="JJCFYP8vbXaR3GsUEAVV-78" edge="1">
          <mxGeometry width="50" height="50" relative="1" as="geometry">
            <mxPoint x="400" y="-300" as="sourcePoint" />
            <mxPoint x="450" y="-350" as="targetPoint" />
          </mxGeometry>
        </mxCell>
        <mxCell id="JJCFYP8vbXaR3GsUEAVV-82" value="1" style="text;html=1;align=center;verticalAlign=middle;resizable=0;points=[];autosize=1;strokeColor=none;fillColor=none;fontFamily=Comic Sans MS;" parent="1" vertex="1">
          <mxGeometry x="465" y="-201" width="30" height="30" as="geometry" />
        </mxCell>
        <mxCell id="JJCFYP8vbXaR3GsUEAVV-83" value="M" style="text;html=1;align=center;verticalAlign=middle;resizable=0;points=[];autosize=1;strokeColor=none;fillColor=none;fontFamily=Comic Sans MS;" parent="1" vertex="1">
          <mxGeometry x="465" y="-311" width="30" height="30" as="geometry" />
        </mxCell>
        <mxCell id="JJCFYP8vbXaR3GsUEAVV-84" value="1" style="text;html=1;align=center;verticalAlign=middle;resizable=0;points=[];autosize=1;strokeColor=none;fillColor=none;fontFamily=Comic Sans MS;" parent="1" vertex="1">
          <mxGeometry x="435" y="-305" width="30" height="30" as="geometry" />
        </mxCell>
        <mxCell id="JJCFYP8vbXaR3GsUEAVV-85" value="1" style="text;html=1;align=center;verticalAlign=middle;resizable=0;points=[];autosize=1;strokeColor=none;fillColor=none;fontFamily=Comic Sans MS;" parent="1" vertex="1">
          <mxGeometry x="435" y="-201" width="30" height="30" as="geometry" />
        </mxCell>
        <mxCell id="JJCFYP8vbXaR3GsUEAVV-87" value="have" style="rhombus;whiteSpace=wrap;html=1;fontFamily=Comic Sans MS;" parent="1" vertex="1">
          <mxGeometry x="965" y="-210" width="80" height="80" as="geometry" />
        </mxCell>
        <mxCell id="JJCFYP8vbXaR3GsUEAVV-88" value="" style="endArrow=none;html=1;rounded=0;entryX=0.5;entryY=1;entryDx=0;entryDy=0;exitX=0.75;exitY=0;exitDx=0;exitDy=0;fontFamily=Comic Sans MS;" parent="1" source="JJCFYP8vbXaR3GsUEAVV-14" target="JJCFYP8vbXaR3GsUEAVV-87" edge="1">
          <mxGeometry width="50" height="50" relative="1" as="geometry">
            <mxPoint x="1040" y="-20" as="sourcePoint" />
            <mxPoint x="1090" y="-70" as="targetPoint" />
          </mxGeometry>
        </mxCell>
        <mxCell id="JJCFYP8vbXaR3GsUEAVV-89" value="" style="endArrow=none;html=1;rounded=0;entryX=0;entryY=0;entryDx=0;entryDy=0;exitX=0.5;exitY=1;exitDx=0;exitDy=0;fillColor=#1ba1e2;strokeColor=#000000;strokeWidth=1;fontFamily=Comic Sans MS;" parent="1" source="JJCFYP8vbXaR3GsUEAVV-78" target="JJCFYP8vbXaR3GsUEAVV-87" edge="1">
          <mxGeometry width="50" height="50" relative="1" as="geometry">
            <mxPoint x="880" y="-180" as="sourcePoint" />
            <mxPoint x="930" y="-230" as="targetPoint" />
            <Array as="points">
              <mxPoint x="630" y="-230" />
            </Array>
          </mxGeometry>
        </mxCell>
        <mxCell id="JJCFYP8vbXaR3GsUEAVV-90" value="1" style="text;html=1;align=center;verticalAlign=middle;resizable=0;points=[];autosize=1;strokeColor=none;fillColor=none;fontFamily=Comic Sans MS;" parent="1" vertex="1">
          <mxGeometry x="1010" y="-130" width="30" height="30" as="geometry" />
        </mxCell>
        <mxCell id="JJCFYP8vbXaR3GsUEAVV-91" value="M" style="text;html=1;align=center;verticalAlign=middle;resizable=0;points=[];autosize=1;strokeColor=none;fillColor=none;fontFamily=Comic Sans MS;" parent="1" vertex="1">
          <mxGeometry x="945" y="-222" width="30" height="30" as="geometry" />
        </mxCell>
        <mxCell id="JJCFYP8vbXaR3GsUEAVV-92" value="1" style="text;html=1;align=center;verticalAlign=middle;resizable=0;points=[];autosize=1;strokeColor=none;fillColor=none;fontFamily=Comic Sans MS;" parent="1" vertex="1">
          <mxGeometry x="925" y="-192" width="30" height="30" as="geometry" />
        </mxCell>
        <mxCell id="JJCFYP8vbXaR3GsUEAVV-93" value="1" style="text;html=1;align=center;verticalAlign=middle;resizable=0;points=[];autosize=1;strokeColor=none;fillColor=none;fontFamily=Comic Sans MS;" parent="1" vertex="1">
          <mxGeometry x="970" y="-130" width="30" height="30" as="geometry" />
        </mxCell>
        <mxCell id="JJCFYP8vbXaR3GsUEAVV-94" value="Payment method" style="rounded=0;whiteSpace=wrap;html=1;fontFamily=Comic Sans MS;fontSize=14;flipH=1;flipV=1;direction=east;" parent="1" vertex="1">
          <mxGeometry x="15" y="-469" width="180" height="80" as="geometry" />
        </mxCell>
        <mxCell id="JJCFYP8vbXaR3GsUEAVV-96" value="" style="endArrow=none;html=1;rounded=0;entryX=0;entryY=0.5;entryDx=0;entryDy=0;exitX=1;exitY=0.5;exitDx=0;exitDy=0;fontFamily=Comic Sans MS;" parent="1" source="JJCFYP8vbXaR3GsUEAVV-94" target="JJCFYP8vbXaR3GsUEAVV-95" edge="1">
          <mxGeometry width="50" height="50" relative="1" as="geometry">
            <mxPoint x="195" y="-408" as="sourcePoint" />
            <mxPoint x="235" y="-537" as="targetPoint" />
          </mxGeometry>
        </mxCell>
        <mxCell id="JJCFYP8vbXaR3GsUEAVV-98" value="" style="endArrow=none;html=1;rounded=0;entryX=0;entryY=0.5;entryDx=0;entryDy=0;exitX=1;exitY=0.5;exitDx=0;exitDy=0;fontFamily=Comic Sans MS;" parent="1" source="JJCFYP8vbXaR3GsUEAVV-95" target="JJCFYP8vbXaR3GsUEAVV-78" edge="1">
          <mxGeometry width="50" height="50" relative="1" as="geometry">
            <mxPoint x="320" y="-310" as="sourcePoint" />
            <mxPoint x="370" y="-360" as="targetPoint" />
          </mxGeometry>
        </mxCell>
        <mxCell id="JJCFYP8vbXaR3GsUEAVV-102" value="" style="group;fontFamily=Comic Sans MS;" parent="1" vertex="1" connectable="0">
          <mxGeometry x="220" y="-469" width="140" height="80" as="geometry" />
        </mxCell>
        <mxCell id="JJCFYP8vbXaR3GsUEAVV-95" value="used&lt;div&gt;uses&lt;/div&gt;" style="rhombus;whiteSpace=wrap;html=1;fontFamily=Comic Sans MS;" parent="JJCFYP8vbXaR3GsUEAVV-102" vertex="1">
          <mxGeometry x="30" width="80" height="80" as="geometry" />
        </mxCell>
        <mxCell id="JJCFYP8vbXaR3GsUEAVV-97" value="1" style="text;html=1;align=center;verticalAlign=middle;resizable=0;points=[];autosize=1;strokeColor=none;fillColor=none;fontFamily=Comic Sans MS;" parent="JJCFYP8vbXaR3GsUEAVV-102" vertex="1">
          <mxGeometry x="10" y="12" width="30" height="30" as="geometry" />
        </mxCell>
        <mxCell id="JJCFYP8vbXaR3GsUEAVV-99" value="M" style="text;html=1;align=center;verticalAlign=middle;resizable=0;points=[];autosize=1;strokeColor=none;fillColor=none;fontFamily=Comic Sans MS;" parent="JJCFYP8vbXaR3GsUEAVV-102" vertex="1">
          <mxGeometry x="110" y="12" width="30" height="30" as="geometry" />
        </mxCell>
        <mxCell id="JJCFYP8vbXaR3GsUEAVV-100" value="1" style="text;html=1;align=center;verticalAlign=middle;resizable=0;points=[];autosize=1;strokeColor=none;fillColor=none;fontFamily=Comic Sans MS;" parent="JJCFYP8vbXaR3GsUEAVV-102" vertex="1">
          <mxGeometry x="110" y="44" width="30" height="30" as="geometry" />
        </mxCell>
        <mxCell id="JJCFYP8vbXaR3GsUEAVV-101" value="1" style="text;html=1;align=center;verticalAlign=middle;resizable=0;points=[];autosize=1;strokeColor=none;fillColor=none;fontFamily=Comic Sans MS;" parent="JJCFYP8vbXaR3GsUEAVV-102" vertex="1">
          <mxGeometry y="42" width="30" height="30" as="geometry" />
        </mxCell>
        <mxCell id="JJCFYP8vbXaR3GsUEAVV-103" value="&lt;b&gt;&lt;u&gt;id&lt;/u&gt;&lt;/b&gt;" style="ellipse;whiteSpace=wrap;html=1;fontSize=14;fontFamily=Comic Sans MS;flipH=1;flipV=1;direction=east;" parent="1" vertex="1">
          <mxGeometry x="-50" y="-494" width="60" height="50" as="geometry" />
        </mxCell>
        <mxCell id="JJCFYP8vbXaR3GsUEAVV-104" value="name" style="ellipse;whiteSpace=wrap;html=1;fontSize=14;fontFamily=Comic Sans MS;flipH=1;flipV=1;direction=east;" parent="1" vertex="1">
          <mxGeometry x="15" y="-538" width="60" height="50" as="geometry" />
        </mxCell>
        <mxCell id="JJCFYP8vbXaR3GsUEAVV-105" value="" style="endArrow=none;html=1;rounded=0;entryX=1;entryY=1;entryDx=0;entryDy=0;exitX=0;exitY=0.5;exitDx=0;exitDy=0;fontFamily=Comic Sans MS;" parent="1" source="JJCFYP8vbXaR3GsUEAVV-94" target="JJCFYP8vbXaR3GsUEAVV-103" edge="1">
          <mxGeometry width="50" height="50" relative="1" as="geometry">
            <mxPoint x="-70" y="-350" as="sourcePoint" />
            <mxPoint x="-20" y="-400" as="targetPoint" />
          </mxGeometry>
        </mxCell>
        <mxCell id="JJCFYP8vbXaR3GsUEAVV-106" value="" style="endArrow=none;html=1;rounded=0;exitX=0.5;exitY=1;exitDx=0;exitDy=0;entryX=0.25;entryY=0;entryDx=0;entryDy=0;fontFamily=Comic Sans MS;" parent="1" source="JJCFYP8vbXaR3GsUEAVV-104" target="JJCFYP8vbXaR3GsUEAVV-94" edge="1">
          <mxGeometry width="50" height="50" relative="1" as="geometry">
            <mxPoint x="140" y="-480" as="sourcePoint" />
            <mxPoint x="190" y="-530" as="targetPoint" />
          </mxGeometry>
        </mxCell>
        <mxCell id="JJCFYP8vbXaR3GsUEAVV-108" value="PaymentStatuses" style="rounded=0;whiteSpace=wrap;html=1;fontFamily=Comic Sans MS;fontSize=14;flipH=1;flipV=1;direction=east;" parent="1" vertex="1">
          <mxGeometry x="5" y="-302" width="180" height="80" as="geometry" />
        </mxCell>
        <mxCell id="JJCFYP8vbXaR3GsUEAVV-109" value="&lt;b&gt;&lt;u&gt;id&lt;/u&gt;&lt;/b&gt;" style="ellipse;whiteSpace=wrap;html=1;fontSize=14;fontFamily=Comic Sans MS;flipH=1;flipV=1;direction=east;" parent="1" vertex="1">
          <mxGeometry x="-80" y="-327" width="60" height="50" as="geometry" />
        </mxCell>
        <mxCell id="JJCFYP8vbXaR3GsUEAVV-110" value="name" style="ellipse;whiteSpace=wrap;html=1;fontSize=14;fontFamily=Comic Sans MS;flipH=1;flipV=1;direction=east;" parent="1" vertex="1">
          <mxGeometry x="-105" y="-266" width="60" height="50" as="geometry" />
        </mxCell>
        <mxCell id="JJCFYP8vbXaR3GsUEAVV-111" value="" style="endArrow=none;html=1;rounded=0;entryX=0.972;entryY=0.35;entryDx=0;entryDy=0;entryPerimeter=0;exitX=1;exitY=0.5;exitDx=0;exitDy=0;fontFamily=Comic Sans MS;" parent="1" source="JJCFYP8vbXaR3GsUEAVV-110" target="JJCFYP8vbXaR3GsUEAVV-108" edge="1">
          <mxGeometry width="50" height="50" relative="1" as="geometry">
            <mxPoint x="-60" y="-150" as="sourcePoint" />
            <mxPoint x="-10" y="-200" as="targetPoint" />
          </mxGeometry>
        </mxCell>
        <mxCell id="JJCFYP8vbXaR3GsUEAVV-112" value="" style="endArrow=none;html=1;rounded=0;entryX=1;entryY=0.5;entryDx=0;entryDy=0;exitX=0;exitY=0.25;exitDx=0;exitDy=0;fontFamily=Comic Sans MS;" parent="1" source="JJCFYP8vbXaR3GsUEAVV-108" target="JJCFYP8vbXaR3GsUEAVV-109" edge="1">
          <mxGeometry width="50" height="50" relative="1" as="geometry">
            <mxPoint x="-140" y="-250" as="sourcePoint" />
            <mxPoint x="-90" y="-300" as="targetPoint" />
          </mxGeometry>
        </mxCell>
        <mxCell id="JJCFYP8vbXaR3GsUEAVV-115" value="applied" style="rhombus;whiteSpace=wrap;html=1;fontFamily=Comic Sans MS;" parent="1" vertex="1">
          <mxGeometry x="260" y="-302" width="80" height="80" as="geometry" />
        </mxCell>
        <mxCell id="JJCFYP8vbXaR3GsUEAVV-116" value="" style="endArrow=none;html=1;rounded=0;entryX=0;entryY=0.5;entryDx=0;entryDy=0;exitX=1;exitY=0.5;exitDx=0;exitDy=0;fontFamily=Comic Sans MS;" parent="1" source="JJCFYP8vbXaR3GsUEAVV-108" target="JJCFYP8vbXaR3GsUEAVV-115" edge="1">
          <mxGeometry width="50" height="50" relative="1" as="geometry">
            <mxPoint x="210" y="-150" as="sourcePoint" />
            <mxPoint x="260" y="-200" as="targetPoint" />
          </mxGeometry>
        </mxCell>
        <mxCell id="JJCFYP8vbXaR3GsUEAVV-117" value="" style="endArrow=none;html=1;rounded=0;entryX=0.5;entryY=1;entryDx=0;entryDy=0;exitX=1;exitY=0;exitDx=0;exitDy=0;fontFamily=Comic Sans MS;" parent="1" source="JJCFYP8vbXaR3GsUEAVV-115" target="JJCFYP8vbXaR3GsUEAVV-78" edge="1">
          <mxGeometry width="50" height="50" relative="1" as="geometry">
            <mxPoint x="370" y="-250" as="sourcePoint" />
            <mxPoint x="420" y="-300" as="targetPoint" />
          </mxGeometry>
        </mxCell>
        <mxCell id="JJCFYP8vbXaR3GsUEAVV-118" value="1" style="text;html=1;align=center;verticalAlign=middle;resizable=0;points=[];autosize=1;strokeColor=none;fillColor=none;fontFamily=Comic Sans MS;" parent="1" vertex="1">
          <mxGeometry x="230" y="-296" width="30" height="30" as="geometry" />
        </mxCell>
        <mxCell id="JJCFYP8vbXaR3GsUEAVV-119" value="M" style="text;html=1;align=center;verticalAlign=middle;resizable=0;points=[];autosize=1;strokeColor=none;fillColor=none;fontFamily=Comic Sans MS;" parent="1" vertex="1">
          <mxGeometry x="310" y="-317" width="30" height="30" as="geometry" />
        </mxCell>
        <mxCell id="JJCFYP8vbXaR3GsUEAVV-120" value="1" style="text;html=1;align=center;verticalAlign=middle;resizable=0;points=[];autosize=1;strokeColor=none;fillColor=none;fontFamily=Comic Sans MS;" parent="1" vertex="1">
          <mxGeometry x="340" y="-296" width="30" height="30" as="geometry" />
        </mxCell>
        <mxCell id="JJCFYP8vbXaR3GsUEAVV-121" value="1" style="text;html=1;align=center;verticalAlign=middle;resizable=0;points=[];autosize=1;strokeColor=none;fillColor=none;fontFamily=Comic Sans MS;" parent="1" vertex="1">
          <mxGeometry x="240" y="-256" width="30" height="30" as="geometry" />
        </mxCell>
        <mxCell id="JJCFYP8vbXaR3GsUEAVV-124" value="Amount" style="ellipse;whiteSpace=wrap;html=1;fontSize=14;fontFamily=Comic Sans MS;" parent="1" vertex="1">
          <mxGeometry x="370" y="-570" width="60" height="50" as="geometry" />
        </mxCell>
        <mxCell id="JJCFYP8vbXaR3GsUEAVV-125" value="" style="endArrow=none;html=1;rounded=0;exitX=0.5;exitY=1;exitDx=0;exitDy=0;entryX=0.25;entryY=0;entryDx=0;entryDy=0;fontFamily=Comic Sans MS;" parent="1" source="JJCFYP8vbXaR3GsUEAVV-124" target="JJCFYP8vbXaR3GsUEAVV-78" edge="1">
          <mxGeometry width="50" height="50" relative="1" as="geometry">
            <mxPoint x="470" y="-470" as="sourcePoint" />
            <mxPoint x="520" y="-520" as="targetPoint" />
          </mxGeometry>
        </mxCell>
        <mxCell id="JJCFYP8vbXaR3GsUEAVV-127" value="PaidAt" style="ellipse;whiteSpace=wrap;html=1;fontSize=14;fontFamily=Comic Sans MS;" parent="1" vertex="1">
          <mxGeometry x="440" y="-544" width="60" height="50" as="geometry" />
        </mxCell>
        <mxCell id="JJCFYP8vbXaR3GsUEAVV-128" value="" style="endArrow=none;html=1;rounded=0;exitX=0.5;exitY=1;exitDx=0;exitDy=0;entryX=0.5;entryY=0;entryDx=0;entryDy=0;fontFamily=Comic Sans MS;" parent="1" source="JJCFYP8vbXaR3GsUEAVV-127" target="JJCFYP8vbXaR3GsUEAVV-78" edge="1">
          <mxGeometry width="50" height="50" relative="1" as="geometry">
            <mxPoint x="570" y="-480" as="sourcePoint" />
            <mxPoint x="620" y="-530" as="targetPoint" />
          </mxGeometry>
        </mxCell>
        <mxCell id="JJCFYP8vbXaR3GsUEAVV-130" value="ReceiptUrl" style="ellipse;whiteSpace=wrap;html=1;fontSize=14;fontFamily=Comic Sans MS;" parent="1" vertex="1">
          <mxGeometry x="505" y="-538" width="110" height="50" as="geometry" />
        </mxCell>
        <mxCell id="JJCFYP8vbXaR3GsUEAVV-131" value="" style="endArrow=none;html=1;rounded=0;entryX=0.5;entryY=1;entryDx=0;entryDy=0;exitX=0.75;exitY=0;exitDx=0;exitDy=0;fontFamily=Comic Sans MS;" parent="1" source="JJCFYP8vbXaR3GsUEAVV-78" target="JJCFYP8vbXaR3GsUEAVV-130" edge="1">
          <mxGeometry width="50" height="50" relative="1" as="geometry">
            <mxPoint x="590" y="-410" as="sourcePoint" />
            <mxPoint x="640" y="-460" as="targetPoint" />
          </mxGeometry>
        </mxCell>
        <mxCell id="JJCFYP8vbXaR3GsUEAVV-134" value="Invoices" style="rounded=0;whiteSpace=wrap;html=1;fontFamily=Comic Sans MS;fontSize=14;flipH=1;flipV=1;direction=east;" parent="1" vertex="1">
          <mxGeometry x="380" y="-720" width="180" height="80" as="geometry" />
        </mxCell>
        <mxCell id="JJCFYP8vbXaR3GsUEAVV-135" value="&lt;b&gt;&lt;u&gt;id&lt;/u&gt;&lt;/b&gt;" style="ellipse;whiteSpace=wrap;html=1;fontSize=14;fontFamily=Comic Sans MS;flipH=1;flipV=1;direction=east;" parent="1" vertex="1">
          <mxGeometry x="320" y="-780" width="60" height="50" as="geometry" />
        </mxCell>
        <mxCell id="JJCFYP8vbXaR3GsUEAVV-136" value="" style="endArrow=none;html=1;rounded=0;entryX=0.5;entryY=1;entryDx=0;entryDy=0;exitX=0;exitY=0;exitDx=0;exitDy=0;fontFamily=Comic Sans MS;" parent="1" source="JJCFYP8vbXaR3GsUEAVV-134" target="JJCFYP8vbXaR3GsUEAVV-135" edge="1">
          <mxGeometry width="50" height="50" relative="1" as="geometry">
            <mxPoint x="290" y="-650" as="sourcePoint" />
            <mxPoint x="340" y="-700" as="targetPoint" />
          </mxGeometry>
        </mxCell>
        <mxCell id="JJCFYP8vbXaR3GsUEAVV-138" value="InvoiceStatuses" style="rounded=0;whiteSpace=wrap;html=1;fontFamily=Comic Sans MS;fontSize=14;flipH=1;flipV=1;direction=east;" parent="1" vertex="1">
          <mxGeometry x="750" y="-720" width="180" height="80" as="geometry" />
        </mxCell>
        <mxCell id="JJCFYP8vbXaR3GsUEAVV-139" value="assigned&lt;div&gt;belong&lt;/div&gt;" style="rhombus;whiteSpace=wrap;html=1;fontFamily=Comic Sans MS;" parent="1" vertex="1">
          <mxGeometry x="625" y="-720" width="80" height="80" as="geometry" />
        </mxCell>
        <mxCell id="JJCFYP8vbXaR3GsUEAVV-140" value="" style="endArrow=none;html=1;rounded=0;entryX=0;entryY=0.5;entryDx=0;entryDy=0;exitX=1;exitY=0.5;exitDx=0;exitDy=0;fontFamily=Comic Sans MS;" parent="1" source="JJCFYP8vbXaR3GsUEAVV-134" target="JJCFYP8vbXaR3GsUEAVV-139" edge="1">
          <mxGeometry width="50" height="50" relative="1" as="geometry">
            <mxPoint x="590" y="-580" as="sourcePoint" />
            <mxPoint x="640" y="-630" as="targetPoint" />
          </mxGeometry>
        </mxCell>
        <mxCell id="JJCFYP8vbXaR3GsUEAVV-141" value="" style="endArrow=none;html=1;rounded=0;entryX=0;entryY=0.5;entryDx=0;entryDy=0;exitX=1;exitY=0.5;exitDx=0;exitDy=0;fontFamily=Comic Sans MS;" parent="1" source="JJCFYP8vbXaR3GsUEAVV-139" target="JJCFYP8vbXaR3GsUEAVV-138" edge="1">
          <mxGeometry width="50" height="50" relative="1" as="geometry">
            <mxPoint x="690" y="-570" as="sourcePoint" />
            <mxPoint x="740" y="-620" as="targetPoint" />
          </mxGeometry>
        </mxCell>
        <mxCell id="JJCFYP8vbXaR3GsUEAVV-142" value="1" style="text;html=1;align=center;verticalAlign=middle;resizable=0;points=[];autosize=1;strokeColor=none;fillColor=none;fontFamily=Comic Sans MS;" parent="1" vertex="1">
          <mxGeometry x="715" y="-712" width="30" height="30" as="geometry" />
        </mxCell>
        <mxCell id="JJCFYP8vbXaR3GsUEAVV-143" value="M" style="text;html=1;align=center;verticalAlign=middle;resizable=0;points=[];autosize=1;strokeColor=none;fillColor=none;fontFamily=Comic Sans MS;" parent="1" vertex="1">
          <mxGeometry x="575" y="-712" width="30" height="30" as="geometry" />
        </mxCell>
        <mxCell id="JJCFYP8vbXaR3GsUEAVV-146" value="1" style="text;html=1;align=center;verticalAlign=middle;resizable=0;points=[];autosize=1;strokeColor=none;fillColor=none;fontFamily=Comic Sans MS;" parent="1" vertex="1">
          <mxGeometry x="565" y="-672" width="30" height="30" as="geometry" />
        </mxCell>
        <mxCell id="JJCFYP8vbXaR3GsUEAVV-147" value="1" style="text;html=1;align=center;verticalAlign=middle;resizable=0;points=[];autosize=1;strokeColor=none;fillColor=none;fontFamily=Comic Sans MS;" parent="1" vertex="1">
          <mxGeometry x="715" y="-672" width="30" height="30" as="geometry" />
        </mxCell>
        <mxCell id="JJCFYP8vbXaR3GsUEAVV-148" value="&lt;b&gt;&lt;u&gt;id&lt;/u&gt;&lt;/b&gt;" style="ellipse;whiteSpace=wrap;html=1;fontSize=14;fontFamily=Comic Sans MS;flipH=1;flipV=1;direction=east;" parent="1" vertex="1">
          <mxGeometry x="755" y="-800" width="60" height="50" as="geometry" />
        </mxCell>
        <mxCell id="JJCFYP8vbXaR3GsUEAVV-149" value="name" style="ellipse;whiteSpace=wrap;html=1;fontSize=14;fontFamily=Comic Sans MS;flipH=1;flipV=1;direction=east;" parent="1" vertex="1">
          <mxGeometry x="830" y="-790" width="60" height="50" as="geometry" />
        </mxCell>
        <mxCell id="JJCFYP8vbXaR3GsUEAVV-150" value="" style="endArrow=none;html=1;rounded=0;entryX=0.5;entryY=1;entryDx=0;entryDy=0;exitX=0.25;exitY=0;exitDx=0;exitDy=0;fontFamily=Comic Sans MS;" parent="1" source="JJCFYP8vbXaR3GsUEAVV-138" target="JJCFYP8vbXaR3GsUEAVV-148" edge="1">
          <mxGeometry width="50" height="50" relative="1" as="geometry">
            <mxPoint x="700" y="-710" as="sourcePoint" />
            <mxPoint x="750" y="-760" as="targetPoint" />
          </mxGeometry>
        </mxCell>
        <mxCell id="JJCFYP8vbXaR3GsUEAVV-151" value="" style="endArrow=none;html=1;rounded=0;exitX=0.5;exitY=1;exitDx=0;exitDy=0;entryX=0.5;entryY=0;entryDx=0;entryDy=0;fontFamily=Comic Sans MS;" parent="1" source="JJCFYP8vbXaR3GsUEAVV-149" target="JJCFYP8vbXaR3GsUEAVV-138" edge="1">
          <mxGeometry width="50" height="50" relative="1" as="geometry">
            <mxPoint x="980" y="-710" as="sourcePoint" />
            <mxPoint x="1030" y="-760" as="targetPoint" />
          </mxGeometry>
        </mxCell>
        <mxCell id="JJCFYP8vbXaR3GsUEAVV-153" value="" style="endArrow=none;html=1;rounded=0;exitX=0.75;exitY=0;exitDx=0;exitDy=0;entryX=0;entryY=1;entryDx=0;entryDy=0;fontFamily=Comic Sans MS;" parent="1" source="JJCFYP8vbXaR3GsUEAVV-14" target="JJCFYP8vbXaR3GsUEAVV-152" edge="1">
          <mxGeometry width="50" height="50" relative="1" as="geometry">
            <mxPoint x="1080" y="-80" as="sourcePoint" />
            <mxPoint x="1130" y="-130" as="targetPoint" />
          </mxGeometry>
        </mxCell>
        <mxCell id="JJCFYP8vbXaR3GsUEAVV-155" value="" style="endArrow=none;html=1;rounded=0;entryX=0;entryY=0;entryDx=0;entryDy=0;exitX=0.5;exitY=1;exitDx=0;exitDy=0;fontFamily=Comic Sans MS;" parent="1" source="JJCFYP8vbXaR3GsUEAVV-134" target="JJCFYP8vbXaR3GsUEAVV-152" edge="1">
          <mxGeometry width="50" height="50" relative="1" as="geometry">
            <mxPoint x="590" y="-550" as="sourcePoint" />
            <mxPoint x="1080" y="-260" as="targetPoint" />
            <Array as="points">
              <mxPoint x="650" y="-540" />
              <mxPoint x="760" y="-420" />
            </Array>
          </mxGeometry>
        </mxCell>
        <mxCell id="JJCFYP8vbXaR3GsUEAVV-160" value="" style="group;fontFamily=Comic Sans MS;" parent="1" vertex="1" connectable="0">
          <mxGeometry x="1065" y="-266" width="110" height="123" as="geometry" />
        </mxCell>
        <mxCell id="JJCFYP8vbXaR3GsUEAVV-152" value="have" style="rhombus;whiteSpace=wrap;html=1;fontFamily=Comic Sans MS;" parent="JJCFYP8vbXaR3GsUEAVV-160" vertex="1">
          <mxGeometry x="30" y="13" width="80" height="80" as="geometry" />
        </mxCell>
        <mxCell id="JJCFYP8vbXaR3GsUEAVV-154" value="1" style="text;html=1;align=center;verticalAlign=middle;resizable=0;points=[];autosize=1;strokeColor=none;fillColor=none;fontFamily=Comic Sans MS;" parent="JJCFYP8vbXaR3GsUEAVV-160" vertex="1">
          <mxGeometry x="35" y="93" width="30" height="30" as="geometry" />
        </mxCell>
        <mxCell id="JJCFYP8vbXaR3GsUEAVV-157" value="M" style="text;html=1;align=center;verticalAlign=middle;resizable=0;points=[];autosize=1;strokeColor=none;fillColor=none;fontFamily=Comic Sans MS;" parent="JJCFYP8vbXaR3GsUEAVV-160" vertex="1">
          <mxGeometry x="30" width="30" height="30" as="geometry" />
        </mxCell>
        <mxCell id="JJCFYP8vbXaR3GsUEAVV-158" value="1" style="text;html=1;align=center;verticalAlign=middle;resizable=0;points=[];autosize=1;strokeColor=none;fillColor=none;fontFamily=Comic Sans MS;" parent="JJCFYP8vbXaR3GsUEAVV-160" vertex="1">
          <mxGeometry y="21" width="30" height="30" as="geometry" />
        </mxCell>
        <mxCell id="JJCFYP8vbXaR3GsUEAVV-159" value="1" style="text;html=1;align=center;verticalAlign=middle;resizable=0;points=[];autosize=1;strokeColor=none;fillColor=none;fontFamily=Comic Sans MS;" parent="JJCFYP8vbXaR3GsUEAVV-160" vertex="1">
          <mxGeometry x="10" y="64" width="30" height="30" as="geometry" />
        </mxCell>
        <mxCell id="JJCFYP8vbXaR3GsUEAVV-162" value="" style="endArrow=none;html=1;rounded=0;entryX=0;entryY=1;entryDx=0;entryDy=0;exitX=0.5;exitY=0;exitDx=0;exitDy=0;fontFamily=Comic Sans MS;" parent="1" source="04XY_-OeRvuLBQSi6XDU-1" target="JJCFYP8vbXaR3GsUEAVV-161" edge="1">
          <mxGeometry width="50" height="50" relative="1" as="geometry">
            <mxPoint x="630" y="-280" as="sourcePoint" />
            <mxPoint x="680" y="-330" as="targetPoint" />
          </mxGeometry>
        </mxCell>
        <mxCell id="JJCFYP8vbXaR3GsUEAVV-163" value="" style="endArrow=none;html=1;rounded=0;entryX=0.75;entryY=1;entryDx=0;entryDy=0;exitX=1;exitY=0;exitDx=0;exitDy=0;fontFamily=Comic Sans MS;" parent="1" source="JJCFYP8vbXaR3GsUEAVV-161" target="JJCFYP8vbXaR3GsUEAVV-134" edge="1">
          <mxGeometry width="50" height="50" relative="1" as="geometry">
            <mxPoint x="690" y="-510" as="sourcePoint" />
            <mxPoint x="740" y="-560" as="targetPoint" />
            <Array as="points">
              <mxPoint x="710" y="-550" />
            </Array>
          </mxGeometry>
        </mxCell>
        <mxCell id="JJCFYP8vbXaR3GsUEAVV-169" value="" style="group;fontFamily=Comic Sans MS;" parent="1" vertex="1" connectable="0">
          <mxGeometry x="605" y="-462" width="110" height="128" as="geometry" />
        </mxCell>
        <mxCell id="JJCFYP8vbXaR3GsUEAVV-166" value="1" style="text;html=1;align=center;verticalAlign=middle;resizable=0;points=[];autosize=1;strokeColor=none;fillColor=none;fontFamily=Comic Sans MS;" parent="JJCFYP8vbXaR3GsUEAVV-169" vertex="1">
          <mxGeometry x="50" width="30" height="30" as="geometry" />
        </mxCell>
        <mxCell id="JJCFYP8vbXaR3GsUEAVV-168" value="" style="group;fontFamily=Comic Sans MS;" parent="JJCFYP8vbXaR3GsUEAVV-169" vertex="1" connectable="0">
          <mxGeometry y="20" width="110" height="108" as="geometry" />
        </mxCell>
        <mxCell id="JJCFYP8vbXaR3GsUEAVV-161" value="receive&amp;nbsp;" style="rhombus;whiteSpace=wrap;html=1;fontFamily=Comic Sans MS;" parent="JJCFYP8vbXaR3GsUEAVV-168" vertex="1">
          <mxGeometry x="10" y="3" width="80" height="80" as="geometry" />
        </mxCell>
        <mxCell id="JJCFYP8vbXaR3GsUEAVV-164" value="1" style="text;html=1;align=center;verticalAlign=middle;resizable=0;points=[];autosize=1;strokeColor=none;fillColor=none;fontFamily=Comic Sans MS;" parent="JJCFYP8vbXaR3GsUEAVV-168" vertex="1">
          <mxGeometry x="15" y="78" width="30" height="30" as="geometry" />
        </mxCell>
        <mxCell id="JJCFYP8vbXaR3GsUEAVV-165" value="M" style="text;html=1;align=center;verticalAlign=middle;resizable=0;points=[];autosize=1;strokeColor=none;fillColor=none;fontFamily=Comic Sans MS;" parent="JJCFYP8vbXaR3GsUEAVV-168" vertex="1">
          <mxGeometry x="80" width="30" height="30" as="geometry" />
        </mxCell>
        <mxCell id="JJCFYP8vbXaR3GsUEAVV-167" value="1" style="text;html=1;align=center;verticalAlign=middle;resizable=0;points=[];autosize=1;strokeColor=none;fillColor=none;fontFamily=Comic Sans MS;" parent="JJCFYP8vbXaR3GsUEAVV-168" vertex="1">
          <mxGeometry y="50" width="30" height="30" as="geometry" />
        </mxCell>
        <mxCell id="SxwjOFgCjAVxQlt7yb_m-1" value="&lt;font style=&quot;font-size: 15px;&quot;&gt;Country&lt;/font&gt;" style="rounded=0;whiteSpace=wrap;html=1;fontFamily=Comic Sans MS;" parent="1" vertex="1">
          <mxGeometry x="2755" y="237.5" width="180" height="80" as="geometry" />
        </mxCell>
        <mxCell id="SxwjOFgCjAVxQlt7yb_m-2" value="&lt;font style=&quot;font-size: 15px;&quot;&gt;City&lt;/font&gt;" style="rounded=0;whiteSpace=wrap;html=1;fontFamily=Comic Sans MS;" parent="1" vertex="1">
          <mxGeometry x="2350" y="237.5" width="180" height="80" as="geometry" />
        </mxCell>
        <mxCell id="SxwjOFgCjAVxQlt7yb_m-3" value="&lt;font style=&quot;font-size: 15px;&quot;&gt;Zone&lt;/font&gt;" style="rounded=0;whiteSpace=wrap;html=1;fontFamily=Comic Sans MS;" parent="1" vertex="1">
          <mxGeometry x="2000" y="239.5" width="180" height="80" as="geometry" />
        </mxCell>
        <mxCell id="SxwjOFgCjAVxQlt7yb_m-4" value="" style="endArrow=none;html=1;rounded=0;entryX=0;entryY=0.5;entryDx=0;entryDy=0;exitX=1;exitY=0.5;exitDx=0;exitDy=0;fontFamily=Comic Sans MS;" parent="1" source="SxwjOFgCjAVxQlt7yb_m-7" target="SxwjOFgCjAVxQlt7yb_m-1" edge="1">
          <mxGeometry width="50" height="50" relative="1" as="geometry">
            <mxPoint x="2660" y="396" as="sourcePoint" />
            <mxPoint x="2710" y="346" as="targetPoint" />
          </mxGeometry>
        </mxCell>
        <mxCell id="SxwjOFgCjAVxQlt7yb_m-5" value="" style="endArrow=none;html=1;rounded=0;entryX=0;entryY=0.5;entryDx=0;entryDy=0;exitX=1;exitY=0.5;exitDx=0;exitDy=0;fontFamily=Comic Sans MS;" parent="1" source="SxwjOFgCjAVxQlt7yb_m-2" target="SxwjOFgCjAVxQlt7yb_m-7" edge="1">
          <mxGeometry width="50" height="50" relative="1" as="geometry">
            <mxPoint x="2540" y="376" as="sourcePoint" />
            <mxPoint x="2590" y="326" as="targetPoint" />
          </mxGeometry>
        </mxCell>
        <mxCell id="SxwjOFgCjAVxQlt7yb_m-6" value="" style="group;fontFamily=Comic Sans MS;" parent="1" vertex="1" connectable="0">
          <mxGeometry x="2575" y="234" width="120" height="83.5" as="geometry" />
        </mxCell>
        <mxCell id="SxwjOFgCjAVxQlt7yb_m-7" value="has" style="rhombus;whiteSpace=wrap;html=1;fontFamily=Comic Sans MS;" parent="SxwjOFgCjAVxQlt7yb_m-6" vertex="1">
          <mxGeometry x="30" y="3.5" width="80" height="80" as="geometry" />
        </mxCell>
        <mxCell id="SxwjOFgCjAVxQlt7yb_m-8" value="1" style="text;html=1;align=center;verticalAlign=middle;resizable=0;points=[];autosize=1;strokeColor=none;fillColor=none;fontFamily=Comic Sans MS;" parent="SxwjOFgCjAVxQlt7yb_m-6" vertex="1">
          <mxGeometry x="90" width="30" height="30" as="geometry" />
        </mxCell>
        <mxCell id="SxwjOFgCjAVxQlt7yb_m-9" value="M" style="text;html=1;align=center;verticalAlign=middle;resizable=0;points=[];autosize=1;strokeColor=none;fillColor=none;fontFamily=Comic Sans MS;" parent="SxwjOFgCjAVxQlt7yb_m-6" vertex="1">
          <mxGeometry y="3.5" width="30" height="30" as="geometry" />
        </mxCell>
        <mxCell id="SxwjOFgCjAVxQlt7yb_m-10" value="1" style="text;html=1;align=center;verticalAlign=middle;resizable=0;points=[];autosize=1;strokeColor=none;fillColor=none;fontFamily=Comic Sans MS;" parent="SxwjOFgCjAVxQlt7yb_m-6" vertex="1">
          <mxGeometry y="47" width="30" height="30" as="geometry" />
        </mxCell>
        <mxCell id="SxwjOFgCjAVxQlt7yb_m-11" value="1" style="text;html=1;align=center;verticalAlign=middle;resizable=0;points=[];autosize=1;strokeColor=none;fillColor=none;fontFamily=Comic Sans MS;" parent="SxwjOFgCjAVxQlt7yb_m-6" vertex="1">
          <mxGeometry x="90" y="53.5" width="30" height="30" as="geometry" />
        </mxCell>
        <mxCell id="SxwjOFgCjAVxQlt7yb_m-12" value="" style="group;fontFamily=Comic Sans MS;" parent="1" vertex="1" connectable="0">
          <mxGeometry x="2210" y="234" width="120" height="83.5" as="geometry" />
        </mxCell>
        <mxCell id="SxwjOFgCjAVxQlt7yb_m-13" value="has" style="rhombus;whiteSpace=wrap;html=1;fontFamily=Comic Sans MS;" parent="SxwjOFgCjAVxQlt7yb_m-12" vertex="1">
          <mxGeometry x="30" y="3.5" width="80" height="80" as="geometry" />
        </mxCell>
        <mxCell id="SxwjOFgCjAVxQlt7yb_m-14" value="1" style="text;html=1;align=center;verticalAlign=middle;resizable=0;points=[];autosize=1;strokeColor=none;fillColor=none;fontFamily=Comic Sans MS;" parent="SxwjOFgCjAVxQlt7yb_m-12" vertex="1">
          <mxGeometry x="90" width="30" height="30" as="geometry" />
        </mxCell>
        <mxCell id="SxwjOFgCjAVxQlt7yb_m-15" value="M" style="text;html=1;align=center;verticalAlign=middle;resizable=0;points=[];autosize=1;strokeColor=none;fillColor=none;fontFamily=Comic Sans MS;" parent="SxwjOFgCjAVxQlt7yb_m-12" vertex="1">
          <mxGeometry y="3.5" width="30" height="30" as="geometry" />
        </mxCell>
        <mxCell id="SxwjOFgCjAVxQlt7yb_m-16" value="1" style="text;html=1;align=center;verticalAlign=middle;resizable=0;points=[];autosize=1;strokeColor=none;fillColor=none;fontFamily=Comic Sans MS;" parent="SxwjOFgCjAVxQlt7yb_m-12" vertex="1">
          <mxGeometry y="47" width="30" height="30" as="geometry" />
        </mxCell>
        <mxCell id="SxwjOFgCjAVxQlt7yb_m-17" value="1" style="text;html=1;align=center;verticalAlign=middle;resizable=0;points=[];autosize=1;strokeColor=none;fillColor=none;fontFamily=Comic Sans MS;" parent="SxwjOFgCjAVxQlt7yb_m-12" vertex="1">
          <mxGeometry x="90" y="53.5" width="30" height="30" as="geometry" />
        </mxCell>
        <mxCell id="SxwjOFgCjAVxQlt7yb_m-18" value="" style="endArrow=none;html=1;rounded=0;entryX=0;entryY=0.5;entryDx=0;entryDy=0;exitX=1;exitY=0.5;exitDx=0;exitDy=0;fontFamily=Comic Sans MS;" parent="1" source="SxwjOFgCjAVxQlt7yb_m-3" target="SxwjOFgCjAVxQlt7yb_m-13" edge="1">
          <mxGeometry width="50" height="50" relative="1" as="geometry">
            <mxPoint x="2130" y="446" as="sourcePoint" />
            <mxPoint x="2180" y="396" as="targetPoint" />
          </mxGeometry>
        </mxCell>
        <mxCell id="SxwjOFgCjAVxQlt7yb_m-19" value="" style="endArrow=none;html=1;rounded=0;entryX=0;entryY=0.5;entryDx=0;entryDy=0;exitX=1;exitY=0.5;exitDx=0;exitDy=0;fontFamily=Comic Sans MS;" parent="1" source="SxwjOFgCjAVxQlt7yb_m-13" target="SxwjOFgCjAVxQlt7yb_m-2" edge="1">
          <mxGeometry width="50" height="50" relative="1" as="geometry">
            <mxPoint x="2340" y="336" as="sourcePoint" />
            <mxPoint x="2250" y="376" as="targetPoint" />
          </mxGeometry>
        </mxCell>
        <mxCell id="SxwjOFgCjAVxQlt7yb_m-27" value="" style="group;fontFamily=Comic Sans MS;" parent="1" vertex="1" connectable="0">
          <mxGeometry x="1430" y="240" width="100" height="106" as="geometry" />
        </mxCell>
        <mxCell id="SxwjOFgCjAVxQlt7yb_m-20" value="belong&lt;div&gt;has&lt;/div&gt;" style="rhombus;whiteSpace=wrap;html=1;fontFamily=Comic Sans MS;" parent="SxwjOFgCjAVxQlt7yb_m-27" vertex="1">
          <mxGeometry x="15" y="10" width="80" height="80" as="geometry" />
        </mxCell>
        <mxCell id="SxwjOFgCjAVxQlt7yb_m-23" value="1" style="text;html=1;align=center;verticalAlign=middle;resizable=0;points=[];autosize=1;strokeColor=none;fillColor=none;fontFamily=Comic Sans MS;" parent="SxwjOFgCjAVxQlt7yb_m-27" vertex="1">
          <mxGeometry x="70" y="76" width="30" height="30" as="geometry" />
        </mxCell>
        <mxCell id="SxwjOFgCjAVxQlt7yb_m-24" value="1" style="text;html=1;align=center;verticalAlign=middle;resizable=0;points=[];autosize=1;strokeColor=none;fillColor=none;fontFamily=Comic Sans MS;" parent="SxwjOFgCjAVxQlt7yb_m-27" vertex="1">
          <mxGeometry x="65" width="30" height="30" as="geometry" />
        </mxCell>
        <mxCell id="SxwjOFgCjAVxQlt7yb_m-25" value="1" style="text;html=1;align=center;verticalAlign=middle;resizable=0;points=[];autosize=1;strokeColor=none;fillColor=none;fontFamily=Comic Sans MS;" parent="SxwjOFgCjAVxQlt7yb_m-27" vertex="1">
          <mxGeometry width="30" height="30" as="geometry" />
        </mxCell>
        <mxCell id="SxwjOFgCjAVxQlt7yb_m-26" value="M" style="text;html=1;align=center;verticalAlign=middle;resizable=0;points=[];autosize=1;strokeColor=none;fillColor=none;fontFamily=Comic Sans MS;" parent="SxwjOFgCjAVxQlt7yb_m-27" vertex="1">
          <mxGeometry x="10" y="68" width="30" height="30" as="geometry" />
        </mxCell>
        <mxCell id="SxwjOFgCjAVxQlt7yb_m-47" value="&lt;p data-start=&quot;407&quot; data-end=&quot;451&quot;&gt;Tracks submitted offers by buyers or tenants&lt;/p&gt;&lt;br&gt;&lt;div class=&quot;_tableContainer_16hzy_1&quot;&gt;&lt;div tabindex=&quot;-1&quot; class=&quot;_tableWrapper_16hzy_14 group flex w-fit flex-col-reverse&quot;&gt;&lt;/div&gt;&lt;/div&gt;" style="text;html=1;align=center;verticalAlign=middle;resizable=0;points=[];autosize=1;strokeColor=none;fillColor=none;fontFamily=Comic Sans MS;" parent="1" vertex="1">
          <mxGeometry x="1145" y="-532" width="280" height="70" as="geometry" />
        </mxCell>
        <mxCell id="SxwjOFgCjAVxQlt7yb_m-48" value="&lt;span style=&quot;text-align: left;&quot;&gt;&lt;font&gt;Property Images&lt;/font&gt;&lt;/span&gt;" style="rounded=0;whiteSpace=wrap;html=1;fontFamily=Comic Sans MS;fontSize=14;" parent="1" vertex="1">
          <mxGeometry x="-110" y="903" width="180" height="80" as="geometry" />
        </mxCell>
        <mxCell id="SxwjOFgCjAVxQlt7yb_m-49" value="&lt;b&gt;&lt;u&gt;id&lt;/u&gt;&lt;/b&gt;" style="ellipse;whiteSpace=wrap;html=1;fontSize=14;fontFamily=Comic Sans MS;" parent="1" vertex="1">
          <mxGeometry x="-170" y="835" width="60" height="50" as="geometry" />
        </mxCell>
        <mxCell id="SxwjOFgCjAVxQlt7yb_m-50" value="image url" style="ellipse;whiteSpace=wrap;html=1;fontSize=14;fontFamily=Comic Sans MS;" parent="1" vertex="1">
          <mxGeometry x="-105" y="850" width="80" height="45" as="geometry" />
        </mxCell>
        <mxCell id="SxwjOFgCjAVxQlt7yb_m-51" value="" style="endArrow=none;html=1;rounded=0;entryX=0.5;entryY=1;entryDx=0;entryDy=0;exitX=0;exitY=0;exitDx=0;exitDy=0;fontFamily=Comic Sans MS;" parent="1" source="SxwjOFgCjAVxQlt7yb_m-48" target="SxwjOFgCjAVxQlt7yb_m-49" edge="1">
          <mxGeometry width="50" height="50" relative="1" as="geometry">
            <mxPoint x="-180" y="940" as="sourcePoint" />
            <mxPoint x="-130" y="890" as="targetPoint" />
          </mxGeometry>
        </mxCell>
        <mxCell id="SxwjOFgCjAVxQlt7yb_m-52" value="" style="endArrow=none;html=1;rounded=0;entryX=0.5;entryY=1;entryDx=0;entryDy=0;exitX=0.25;exitY=0;exitDx=0;exitDy=0;fontFamily=Comic Sans MS;" parent="1" source="SxwjOFgCjAVxQlt7yb_m-48" target="SxwjOFgCjAVxQlt7yb_m-50" edge="1">
          <mxGeometry width="50" height="50" relative="1" as="geometry">
            <mxPoint x="-200" y="950" as="sourcePoint" />
            <mxPoint x="-150" y="900" as="targetPoint" />
          </mxGeometry>
        </mxCell>
        <mxCell id="SxwjOFgCjAVxQlt7yb_m-54" value="AltText" style="ellipse;whiteSpace=wrap;html=1;fontSize=14;fontFamily=Comic Sans MS;" parent="1" vertex="1">
          <mxGeometry x="-20" y="837.5" width="80" height="45" as="geometry" />
        </mxCell>
        <mxCell id="SxwjOFgCjAVxQlt7yb_m-56" value="" style="endArrow=none;html=1;rounded=0;entryX=0.5;entryY=1;entryDx=0;entryDy=0;exitX=0.5;exitY=0;exitDx=0;exitDy=0;fontFamily=Comic Sans MS;" parent="1" source="SxwjOFgCjAVxQlt7yb_m-48" target="SxwjOFgCjAVxQlt7yb_m-54" edge="1">
          <mxGeometry width="50" height="50" relative="1" as="geometry">
            <mxPoint x="110" y="930" as="sourcePoint" />
            <mxPoint x="160" y="880" as="targetPoint" />
          </mxGeometry>
        </mxCell>
        <mxCell id="SxwjOFgCjAVxQlt7yb_m-58" value="UploadedAt" style="ellipse;whiteSpace=wrap;html=1;fontSize=14;fontFamily=Comic Sans MS;" parent="1" vertex="1">
          <mxGeometry x="45" y="792" width="105" height="48" as="geometry" />
        </mxCell>
        <mxCell id="SxwjOFgCjAVxQlt7yb_m-60" value="" style="endArrow=none;html=1;rounded=0;entryX=0.5;entryY=1;entryDx=0;entryDy=0;exitX=0.75;exitY=0;exitDx=0;exitDy=0;fontFamily=Comic Sans MS;" parent="1" source="SxwjOFgCjAVxQlt7yb_m-48" target="SxwjOFgCjAVxQlt7yb_m-58" edge="1">
          <mxGeometry width="50" height="50" relative="1" as="geometry">
            <mxPoint x="110" y="990" as="sourcePoint" />
            <mxPoint x="160" y="940" as="targetPoint" />
          </mxGeometry>
        </mxCell>
        <mxCell id="SxwjOFgCjAVxQlt7yb_m-62" value="" style="endArrow=none;html=1;rounded=0;entryX=0;entryY=1;entryDx=0;entryDy=0;exitX=1;exitY=0.5;exitDx=0;exitDy=0;fontFamily=Comic Sans MS;" parent="1" source="SxwjOFgCjAVxQlt7yb_m-48" target="SxwjOFgCjAVxQlt7yb_m-61" edge="1">
          <mxGeometry width="50" height="50" relative="1" as="geometry">
            <mxPoint x="120" y="970" as="sourcePoint" />
            <mxPoint x="170" y="920" as="targetPoint" />
          </mxGeometry>
        </mxCell>
        <mxCell id="SxwjOFgCjAVxQlt7yb_m-63" value="" style="endArrow=none;html=1;rounded=0;entryX=0;entryY=1;entryDx=0;entryDy=0;exitX=1;exitY=0;exitDx=0;exitDy=0;fontFamily=Comic Sans MS;" parent="1" source="SxwjOFgCjAVxQlt7yb_m-61" target="04XY_-OeRvuLBQSi6XDU-46" edge="1">
          <mxGeometry width="50" height="50" relative="1" as="geometry">
            <mxPoint x="330" y="850" as="sourcePoint" />
            <mxPoint x="380" y="800" as="targetPoint" />
          </mxGeometry>
        </mxCell>
        <mxCell id="SxwjOFgCjAVxQlt7yb_m-69" value="" style="group;fontFamily=Comic Sans MS;" parent="1" vertex="1" connectable="0">
          <mxGeometry x="175" y="810" width="135" height="123" as="geometry" />
        </mxCell>
        <mxCell id="SxwjOFgCjAVxQlt7yb_m-61" value="has&lt;div&gt;belong&lt;/div&gt;" style="rhombus;whiteSpace=wrap;html=1;fontFamily=Comic Sans MS;" parent="SxwjOFgCjAVxQlt7yb_m-69" vertex="1">
          <mxGeometry x="30" y="24" width="80" height="80" as="geometry" />
        </mxCell>
        <mxCell id="SxwjOFgCjAVxQlt7yb_m-64" value="M" style="text;html=1;align=center;verticalAlign=middle;resizable=0;points=[];autosize=1;strokeColor=none;fillColor=none;fontFamily=Comic Sans MS;" parent="SxwjOFgCjAVxQlt7yb_m-69" vertex="1">
          <mxGeometry y="63" width="30" height="30" as="geometry" />
        </mxCell>
        <mxCell id="SxwjOFgCjAVxQlt7yb_m-65" value="1" style="text;html=1;align=center;verticalAlign=middle;resizable=0;points=[];autosize=1;strokeColor=none;fillColor=none;fontFamily=Comic Sans MS;" parent="SxwjOFgCjAVxQlt7yb_m-69" vertex="1">
          <mxGeometry x="75" width="30" height="30" as="geometry" />
        </mxCell>
        <mxCell id="SxwjOFgCjAVxQlt7yb_m-67" value="1" style="text;html=1;align=center;verticalAlign=middle;resizable=0;points=[];autosize=1;strokeColor=none;fillColor=none;fontFamily=Comic Sans MS;" parent="SxwjOFgCjAVxQlt7yb_m-69" vertex="1">
          <mxGeometry x="20" y="93" width="30" height="30" as="geometry" />
        </mxCell>
        <mxCell id="SxwjOFgCjAVxQlt7yb_m-68" value="1" style="text;html=1;align=center;verticalAlign=middle;resizable=0;points=[];autosize=1;strokeColor=none;fillColor=none;fontFamily=Comic Sans MS;" parent="SxwjOFgCjAVxQlt7yb_m-69" vertex="1">
          <mxGeometry x="105" y="33" width="30" height="30" as="geometry" />
        </mxCell>
        <mxCell id="SxwjOFgCjAVxQlt7yb_m-70" value="&lt;span style=&quot;text-align: left;&quot;&gt;&lt;font&gt;Property Reviews&lt;/font&gt;&lt;/span&gt;" style="rounded=0;whiteSpace=wrap;html=1;fontFamily=Comic Sans MS;fontSize=14;" parent="1" vertex="1">
          <mxGeometry x="-560" y="143" width="180" height="80" as="geometry" />
        </mxCell>
        <mxCell id="SxwjOFgCjAVxQlt7yb_m-74" value="" style="endArrow=none;html=1;rounded=0;entryX=0;entryY=0.5;entryDx=0;entryDy=0;exitX=1;exitY=0.5;exitDx=0;exitDy=0;fontFamily=Comic Sans MS;" parent="1" source="SxwjOFgCjAVxQlt7yb_m-70" target="SxwjOFgCjAVxQlt7yb_m-73" edge="1">
          <mxGeometry width="50" height="50" relative="1" as="geometry">
            <mxPoint x="-310" y="260" as="sourcePoint" />
            <mxPoint x="-260" y="210" as="targetPoint" />
          </mxGeometry>
        </mxCell>
        <mxCell id="SxwjOFgCjAVxQlt7yb_m-75" value="" style="endArrow=none;html=1;rounded=0;exitX=1;exitY=0.5;exitDx=0;exitDy=0;entryX=0;entryY=1;entryDx=0;entryDy=0;fontFamily=Comic Sans MS;" parent="1" source="SxwjOFgCjAVxQlt7yb_m-73" target="04XY_-OeRvuLBQSi6XDU-1" edge="1">
          <mxGeometry width="50" height="50" relative="1" as="geometry">
            <mxPoint x="50" y="170" as="sourcePoint" />
            <mxPoint x="100" y="120" as="targetPoint" />
          </mxGeometry>
        </mxCell>
        <mxCell id="SxwjOFgCjAVxQlt7yb_m-80" value="" style="group;fontFamily=Comic Sans MS;" parent="1" vertex="1" connectable="0">
          <mxGeometry x="-205" y="143" width="130" height="85" as="geometry" />
        </mxCell>
        <mxCell id="SxwjOFgCjAVxQlt7yb_m-73" value="write" style="rhombus;whiteSpace=wrap;html=1;fontFamily=Comic Sans MS;" parent="SxwjOFgCjAVxQlt7yb_m-80" vertex="1">
          <mxGeometry x="30" width="80" height="80" as="geometry" />
        </mxCell>
        <mxCell id="SxwjOFgCjAVxQlt7yb_m-76" value="1" style="text;html=1;align=center;verticalAlign=middle;resizable=0;points=[];autosize=1;strokeColor=none;fillColor=none;fontFamily=Comic Sans MS;" parent="SxwjOFgCjAVxQlt7yb_m-80" vertex="1">
          <mxGeometry x="100" y="5" width="30" height="30" as="geometry" />
        </mxCell>
        <mxCell id="SxwjOFgCjAVxQlt7yb_m-77" value="M" style="text;html=1;align=center;verticalAlign=middle;resizable=0;points=[];autosize=1;strokeColor=none;fillColor=none;fontFamily=Comic Sans MS;" parent="SxwjOFgCjAVxQlt7yb_m-80" vertex="1">
          <mxGeometry x="5" y="5" width="30" height="30" as="geometry" />
        </mxCell>
        <mxCell id="SxwjOFgCjAVxQlt7yb_m-78" value="1" style="text;html=1;align=center;verticalAlign=middle;resizable=0;points=[];autosize=1;strokeColor=none;fillColor=none;fontFamily=Comic Sans MS;" parent="SxwjOFgCjAVxQlt7yb_m-80" vertex="1">
          <mxGeometry y="50" width="30" height="30" as="geometry" />
        </mxCell>
        <mxCell id="SxwjOFgCjAVxQlt7yb_m-79" value="1" style="text;html=1;align=center;verticalAlign=middle;resizable=0;points=[];autosize=1;strokeColor=none;fillColor=none;fontFamily=Comic Sans MS;" parent="SxwjOFgCjAVxQlt7yb_m-80" vertex="1">
          <mxGeometry x="100" y="55" width="30" height="30" as="geometry" />
        </mxCell>
        <mxCell id="SxwjOFgCjAVxQlt7yb_m-81" value="rating" style="ellipse;whiteSpace=wrap;html=1;fontSize=14;fontFamily=Comic Sans MS;" parent="1" vertex="1">
          <mxGeometry x="-570" y="60" width="60" height="50" as="geometry" />
        </mxCell>
        <mxCell id="SxwjOFgCjAVxQlt7yb_m-82" value="comment" style="ellipse;whiteSpace=wrap;html=1;fontSize=14;fontFamily=Comic Sans MS;" parent="1" vertex="1">
          <mxGeometry x="-495" y="78" width="80" height="50" as="geometry" />
        </mxCell>
        <mxCell id="SxwjOFgCjAVxQlt7yb_m-83" value="" style="endArrow=none;html=1;rounded=0;entryX=0.5;entryY=1;entryDx=0;entryDy=0;exitX=0.25;exitY=0;exitDx=0;exitDy=0;" parent="1" source="SxwjOFgCjAVxQlt7yb_m-70" target="SxwjOFgCjAVxQlt7yb_m-81" edge="1">
          <mxGeometry width="50" height="50" relative="1" as="geometry">
            <mxPoint x="-670" y="170" as="sourcePoint" />
            <mxPoint x="-620" y="120" as="targetPoint" />
          </mxGeometry>
        </mxCell>
        <mxCell id="SxwjOFgCjAVxQlt7yb_m-84" value="" style="endArrow=none;html=1;rounded=0;entryX=0.5;entryY=1;entryDx=0;entryDy=0;exitX=0.5;exitY=0;exitDx=0;exitDy=0;" parent="1" source="SxwjOFgCjAVxQlt7yb_m-70" target="SxwjOFgCjAVxQlt7yb_m-82" edge="1">
          <mxGeometry width="50" height="50" relative="1" as="geometry">
            <mxPoint x="-660" y="200" as="sourcePoint" />
            <mxPoint x="-610" y="150" as="targetPoint" />
          </mxGeometry>
        </mxCell>
        <mxCell id="SxwjOFgCjAVxQlt7yb_m-85" value="createdAt" style="ellipse;whiteSpace=wrap;html=1;fontSize=14;fontFamily=Comic Sans MS;" parent="1" vertex="1">
          <mxGeometry x="-660" y="108" width="90" height="50" as="geometry" />
        </mxCell>
        <mxCell id="SxwjOFgCjAVxQlt7yb_m-86" value="" style="endArrow=none;html=1;rounded=0;entryX=1;entryY=1;entryDx=0;entryDy=0;exitX=0;exitY=0.25;exitDx=0;exitDy=0;" parent="1" source="SxwjOFgCjAVxQlt7yb_m-70" target="SxwjOFgCjAVxQlt7yb_m-85" edge="1">
          <mxGeometry width="50" height="50" relative="1" as="geometry">
            <mxPoint x="-650" y="230" as="sourcePoint" />
            <mxPoint x="-600" y="180" as="targetPoint" />
          </mxGeometry>
        </mxCell>
        <mxCell id="SxwjOFgCjAVxQlt7yb_m-87" value="updatedAt" style="ellipse;whiteSpace=wrap;html=1;fontSize=14;fontFamily=Comic Sans MS;" parent="1" vertex="1">
          <mxGeometry x="-690" y="170" width="90" height="50" as="geometry" />
        </mxCell>
        <mxCell id="SxwjOFgCjAVxQlt7yb_m-88" value="" style="endArrow=none;html=1;rounded=0;entryX=0;entryY=0.5;entryDx=0;entryDy=0;exitX=1;exitY=0.5;exitDx=0;exitDy=0;" parent="1" source="SxwjOFgCjAVxQlt7yb_m-87" target="SxwjOFgCjAVxQlt7yb_m-70" edge="1">
          <mxGeometry width="50" height="50" relative="1" as="geometry">
            <mxPoint x="-630" y="290" as="sourcePoint" />
            <mxPoint x="-580" y="240" as="targetPoint" />
          </mxGeometry>
        </mxCell>
        <mxCell id="SxwjOFgCjAVxQlt7yb_m-91" value="" style="endArrow=none;html=1;rounded=0;entryX=0.5;entryY=1;entryDx=0;entryDy=0;exitX=0.5;exitY=0;exitDx=0;exitDy=0;" parent="1" source="SxwjOFgCjAVxQlt7yb_m-90" target="SxwjOFgCjAVxQlt7yb_m-70" edge="1">
          <mxGeometry width="50" height="50" relative="1" as="geometry">
            <mxPoint x="-750" y="390" as="sourcePoint" />
            <mxPoint x="-700" y="340" as="targetPoint" />
            <Array as="points">
              <mxPoint x="-660" y="340" />
            </Array>
          </mxGeometry>
        </mxCell>
        <mxCell id="SxwjOFgCjAVxQlt7yb_m-92" value="" style="endArrow=none;html=1;rounded=0;exitX=0.5;exitY=1;exitDx=0;exitDy=0;entryX=0;entryY=1;entryDx=0;entryDy=0;" parent="1" source="SxwjOFgCjAVxQlt7yb_m-90" target="04XY_-OeRvuLBQSi6XDU-46" edge="1">
          <mxGeometry width="50" height="50" relative="1" as="geometry">
            <mxPoint x="-560" y="640" as="sourcePoint" />
            <mxPoint x="-510" y="590" as="targetPoint" />
            <Array as="points">
              <mxPoint x="-350" y="800" />
            </Array>
          </mxGeometry>
        </mxCell>
        <mxCell id="SxwjOFgCjAVxQlt7yb_m-97" value="" style="group" parent="1" vertex="1" connectable="0">
          <mxGeometry x="-725" y="458" width="100" height="100" as="geometry" />
        </mxCell>
        <mxCell id="SxwjOFgCjAVxQlt7yb_m-90" value="belong" style="rhombus;whiteSpace=wrap;html=1;fontFamily=Comic Sans MS;" parent="SxwjOFgCjAVxQlt7yb_m-97" vertex="1">
          <mxGeometry x="15" y="12" width="80" height="80" as="geometry" />
        </mxCell>
        <mxCell id="SxwjOFgCjAVxQlt7yb_m-93" value="1" style="text;html=1;align=center;verticalAlign=middle;resizable=0;points=[];autosize=1;strokeColor=none;fillColor=none;" parent="SxwjOFgCjAVxQlt7yb_m-97" vertex="1">
          <mxGeometry x="10" width="30" height="30" as="geometry" />
        </mxCell>
        <mxCell id="SxwjOFgCjAVxQlt7yb_m-94" value="1" style="text;html=1;align=center;verticalAlign=middle;resizable=0;points=[];autosize=1;strokeColor=none;fillColor=none;" parent="SxwjOFgCjAVxQlt7yb_m-97" vertex="1">
          <mxGeometry y="70" width="30" height="30" as="geometry" />
        </mxCell>
        <mxCell id="SxwjOFgCjAVxQlt7yb_m-95" value="1" style="text;html=1;align=center;verticalAlign=middle;resizable=0;points=[];autosize=1;strokeColor=none;fillColor=none;" parent="SxwjOFgCjAVxQlt7yb_m-97" vertex="1">
          <mxGeometry x="70" y="70" width="30" height="30" as="geometry" />
        </mxCell>
        <mxCell id="SxwjOFgCjAVxQlt7yb_m-96" value="1" style="text;html=1;align=center;verticalAlign=middle;resizable=0;points=[];autosize=1;strokeColor=none;fillColor=none;" parent="SxwjOFgCjAVxQlt7yb_m-97" vertex="1">
          <mxGeometry x="70" width="30" height="30" as="geometry" />
        </mxCell>
        <mxCell id="FiSoTK_a6ErY7vM4Nett-1" value="1" style="text;html=1;align=center;verticalAlign=middle;resizable=0;points=[];autosize=1;strokeColor=none;fillColor=none;" parent="1" vertex="1">
          <mxGeometry x="720" y="682" width="30" height="30" as="geometry" />
        </mxCell>
        <mxCell id="FiSoTK_a6ErY7vM4Nett-2" value="1" style="text;html=1;align=center;verticalAlign=middle;resizable=0;points=[];autosize=1;strokeColor=none;fillColor=none;" parent="1" vertex="1">
          <mxGeometry x="845" y="682" width="30" height="30" as="geometry" />
        </mxCell>
        <mxCell id="FiSoTK_a6ErY7vM4Nett-4" value="" style="endArrow=none;html=1;rounded=0;entryX=0.5;entryY=1;entryDx=0;entryDy=0;exitX=1;exitY=0;exitDx=0;exitDy=0;" parent="1" target="SxwjOFgCjAVxQlt7yb_m-1" edge="1">
          <mxGeometry width="50" height="50" relative="1" as="geometry">
            <mxPoint x="2665" y="397" as="sourcePoint" />
            <mxPoint x="2765" y="394" as="targetPoint" />
          </mxGeometry>
        </mxCell>
        <mxCell id="FiSoTK_a6ErY7vM4Nett-5" value="" style="endArrow=none;html=1;rounded=0;entryX=0;entryY=0;entryDx=0;entryDy=0;exitX=0.5;exitY=1;exitDx=0;exitDy=0;" parent="1" source="SxwjOFgCjAVxQlt7yb_m-2" edge="1">
          <mxGeometry width="50" height="50" relative="1" as="geometry">
            <mxPoint x="2525" y="464" as="sourcePoint" />
            <mxPoint x="2625" y="397" as="targetPoint" />
          </mxGeometry>
        </mxCell>
        <mxCell id="FiSoTK_a6ErY7vM4Nett-10" value="" style="group" parent="1" vertex="1" connectable="0">
          <mxGeometry x="1605" y="-722" width="140" height="105" as="geometry" />
        </mxCell>
        <mxCell id="FiSoTK_a6ErY7vM4Nett-3" value="&lt;div&gt;has&lt;/div&gt;" style="rhombus;whiteSpace=wrap;html=1;fontFamily=Comic Sans MS;flipH=1;flipV=1;direction=east;" parent="FiSoTK_a6ErY7vM4Nett-10" vertex="1">
          <mxGeometry x="1000" y="1100" width="80" height="80" as="geometry" />
        </mxCell>
        <mxCell id="FiSoTK_a6ErY7vM4Nett-6" value="1" style="text;html=1;align=center;verticalAlign=middle;resizable=0;points=[];autosize=1;strokeColor=none;fillColor=none;" parent="FiSoTK_a6ErY7vM4Nett-10" vertex="1">
          <mxGeometry x="1075" y="1115" width="30" height="30" as="geometry" />
        </mxCell>
        <mxCell id="FiSoTK_a6ErY7vM4Nett-7" value="M" style="text;html=1;align=center;verticalAlign=middle;resizable=0;points=[];autosize=1;strokeColor=none;fillColor=none;" parent="FiSoTK_a6ErY7vM4Nett-10" vertex="1">
          <mxGeometry x="970" y="1115" width="30" height="30" as="geometry" />
        </mxCell>
        <mxCell id="FiSoTK_a6ErY7vM4Nett-8" value="1" style="text;html=1;align=center;verticalAlign=middle;resizable=0;points=[];autosize=1;strokeColor=none;fillColor=none;" parent="FiSoTK_a6ErY7vM4Nett-10" vertex="1">
          <mxGeometry x="965" y="1074" width="30" height="30" as="geometry" />
        </mxCell>
        <mxCell id="FiSoTK_a6ErY7vM4Nett-9" value="1" style="text;html=1;align=center;verticalAlign=middle;resizable=0;points=[];autosize=1;strokeColor=none;fillColor=none;" parent="FiSoTK_a6ErY7vM4Nett-10" vertex="1">
          <mxGeometry x="1065" y="1084" width="30" height="30" as="geometry" />
        </mxCell>
        <mxCell id="FiSoTK_a6ErY7vM4Nett-18" value="" style="endArrow=none;html=1;rounded=0;exitX=0.5;exitY=0;exitDx=0;exitDy=0;entryX=1;entryY=1;entryDx=0;entryDy=0;" parent="1" source="SxwjOFgCjAVxQlt7yb_m-1" target="FiSoTK_a6ErY7vM4Nett-12" edge="1">
          <mxGeometry width="50" height="50" relative="1" as="geometry">
            <mxPoint x="2855" y="184" as="sourcePoint" />
            <mxPoint x="2905" y="134" as="targetPoint" />
          </mxGeometry>
        </mxCell>
        <mxCell id="FiSoTK_a6ErY7vM4Nett-19" value="" style="endArrow=none;html=1;rounded=0;entryX=0;entryY=1;entryDx=0;entryDy=0;exitX=0.5;exitY=0;exitDx=0;exitDy=0;" parent="1" source="SxwjOFgCjAVxQlt7yb_m-3" target="FiSoTK_a6ErY7vM4Nett-12" edge="1">
          <mxGeometry width="50" height="50" relative="1" as="geometry">
            <mxPoint x="2515" y="164" as="sourcePoint" />
            <mxPoint x="2565" y="114" as="targetPoint" />
          </mxGeometry>
        </mxCell>
        <mxCell id="FiSoTK_a6ErY7vM4Nett-20" value="" style="group" parent="1" vertex="1" connectable="0">
          <mxGeometry x="2575" y="29" width="140" height="105" as="geometry" />
        </mxCell>
        <mxCell id="FiSoTK_a6ErY7vM4Nett-12" value="&lt;div&gt;has&lt;/div&gt;" style="rhombus;whiteSpace=wrap;html=1;fontFamily=Comic Sans MS;flipH=1;flipV=1;direction=east;" parent="FiSoTK_a6ErY7vM4Nett-20" vertex="1">
          <mxGeometry x="30" width="80" height="80" as="geometry" />
        </mxCell>
        <mxCell id="FiSoTK_a6ErY7vM4Nett-13" value="1" style="text;html=1;align=center;verticalAlign=middle;resizable=0;points=[];autosize=1;strokeColor=none;fillColor=none;" parent="FiSoTK_a6ErY7vM4Nett-20" vertex="1">
          <mxGeometry x="80" y="75" width="30" height="30" as="geometry" />
        </mxCell>
        <mxCell id="FiSoTK_a6ErY7vM4Nett-14" value="M" style="text;html=1;align=center;verticalAlign=middle;resizable=0;points=[];autosize=1;strokeColor=none;fillColor=none;" parent="FiSoTK_a6ErY7vM4Nett-20" vertex="1">
          <mxGeometry x="10" y="75" width="30" height="30" as="geometry" />
        </mxCell>
        <mxCell id="FiSoTK_a6ErY7vM4Nett-15" value="1" style="text;html=1;align=center;verticalAlign=middle;resizable=0;points=[];autosize=1;strokeColor=none;fillColor=none;" parent="FiSoTK_a6ErY7vM4Nett-20" vertex="1">
          <mxGeometry y="15" width="30" height="30" as="geometry" />
        </mxCell>
        <mxCell id="FiSoTK_a6ErY7vM4Nett-16" value="1" style="text;html=1;align=center;verticalAlign=middle;resizable=0;points=[];autosize=1;strokeColor=none;fillColor=none;" parent="FiSoTK_a6ErY7vM4Nett-20" vertex="1">
          <mxGeometry x="110" y="35" width="30" height="30" as="geometry" />
        </mxCell>
        <mxCell id="FiSoTK_a6ErY7vM4Nett-23" value="" style="endArrow=none;html=1;rounded=0;exitX=0.5;exitY=0;exitDx=0;exitDy=0;entryX=0;entryY=0.5;entryDx=0;entryDy=0;" parent="1" source="04XY_-OeRvuLBQSi6XDU-46" target="SxwjOFgCjAVxQlt7yb_m-20" edge="1">
          <mxGeometry width="50" height="50" relative="1" as="geometry">
            <mxPoint x="1210" y="410" as="sourcePoint" />
            <mxPoint x="1260" y="360" as="targetPoint" />
            <Array as="points">
              <mxPoint x="790" y="410" />
            </Array>
          </mxGeometry>
        </mxCell>
        <mxCell id="FiSoTK_a6ErY7vM4Nett-24" value="" style="endArrow=none;html=1;rounded=0;exitX=1;exitY=0.5;exitDx=0;exitDy=0;entryX=0;entryY=0.5;entryDx=0;entryDy=0;" parent="1" source="SxwjOFgCjAVxQlt7yb_m-20" target="SxwjOFgCjAVxQlt7yb_m-3" edge="1">
          <mxGeometry width="50" height="50" relative="1" as="geometry">
            <mxPoint x="1660" y="280" as="sourcePoint" />
            <mxPoint x="1710" y="230" as="targetPoint" />
          </mxGeometry>
        </mxCell>
        <mxCell id="FiSoTK_a6ErY7vM4Nett-25" value="" style="endArrow=none;html=1;rounded=0;exitX=0.75;exitY=1;exitDx=0;exitDy=0;" parent="1" source="04XY_-OeRvuLBQSi6XDU-1" target="SxwjOFgCjAVxQlt7yb_m-29" edge="1">
          <mxGeometry width="50" height="50" relative="1" as="geometry">
            <mxPoint x="1610" y="180" as="sourcePoint" />
            <mxPoint x="1660" y="130" as="targetPoint" />
            <Array as="points">
              <mxPoint x="580" y="290" />
              <mxPoint x="1170" y="250" />
            </Array>
          </mxGeometry>
        </mxCell>
        <mxCell id="FiSoTK_a6ErY7vM4Nett-26" value="" style="endArrow=none;html=1;rounded=0;exitX=1;exitY=0.5;exitDx=0;exitDy=0;entryX=0.5;entryY=0;entryDx=0;entryDy=0;" parent="1" source="SxwjOFgCjAVxQlt7yb_m-29" target="SxwjOFgCjAVxQlt7yb_m-3" edge="1">
          <mxGeometry width="50" height="50" relative="1" as="geometry">
            <mxPoint x="2040" y="160" as="sourcePoint" />
            <mxPoint x="2090" y="110" as="targetPoint" />
          </mxGeometry>
        </mxCell>
        <mxCell id="FiSoTK_a6ErY7vM4Nett-27" value="" style="group" parent="1" vertex="1" connectable="0">
          <mxGeometry x="1730" y="118" width="160" height="100" as="geometry" />
        </mxCell>
        <mxCell id="SxwjOFgCjAVxQlt7yb_m-29" value="belong&lt;div&gt;has&lt;/div&gt;" style="rhombus;whiteSpace=wrap;html=1;fontFamily=Comic Sans MS;" parent="FiSoTK_a6ErY7vM4Nett-27" vertex="1">
          <mxGeometry x="35" y="2.5" width="80" height="80" as="geometry" />
        </mxCell>
        <mxCell id="SxwjOFgCjAVxQlt7yb_m-31" value="1" style="text;html=1;align=center;verticalAlign=middle;resizable=0;points=[];autosize=1;strokeColor=none;fillColor=none;fontFamily=Comic Sans MS;" parent="FiSoTK_a6ErY7vM4Nett-27" vertex="1">
          <mxGeometry y="20" width="30" height="30" as="geometry" />
        </mxCell>
        <mxCell id="SxwjOFgCjAVxQlt7yb_m-33" value="1" style="text;html=1;align=center;verticalAlign=middle;resizable=0;points=[];autosize=1;strokeColor=none;fillColor=none;fontFamily=Comic Sans MS;" parent="FiSoTK_a6ErY7vM4Nett-27" vertex="1">
          <mxGeometry x="130" width="30" height="30" as="geometry" />
        </mxCell>
        <mxCell id="SxwjOFgCjAVxQlt7yb_m-34" value="1" style="text;html=1;align=center;verticalAlign=middle;resizable=0;points=[];autosize=1;strokeColor=none;fillColor=none;fontFamily=Comic Sans MS;" parent="FiSoTK_a6ErY7vM4Nett-27" vertex="1">
          <mxGeometry x="110" y="70" width="30" height="30" as="geometry" />
        </mxCell>
        <mxCell id="SxwjOFgCjAVxQlt7yb_m-35" value="M" style="text;html=1;align=center;verticalAlign=middle;resizable=0;points=[];autosize=1;strokeColor=none;fillColor=none;fontFamily=Comic Sans MS;" parent="FiSoTK_a6ErY7vM4Nett-27" vertex="1">
          <mxGeometry x="5" y="62" width="30" height="30" as="geometry" />
        </mxCell>
        <mxCell id="FiSoTK_a6ErY7vM4Nett-34" value="" style="endArrow=none;html=1;rounded=0;entryX=0;entryY=0.5;entryDx=0;entryDy=0;exitX=0.75;exitY=1;exitDx=0;exitDy=0;" parent="1" source="04XY_-OeRvuLBQSi6XDU-1" target="FiSoTK_a6ErY7vM4Nett-29" edge="1">
          <mxGeometry width="50" height="50" relative="1" as="geometry">
            <mxPoint x="1890" y="430" as="sourcePoint" />
            <mxPoint x="1940" y="380" as="targetPoint" />
            <Array as="points">
              <mxPoint x="505" y="240" />
              <mxPoint x="1320" y="410" />
            </Array>
          </mxGeometry>
        </mxCell>
        <mxCell id="FiSoTK_a6ErY7vM4Nett-35" value="" style="endArrow=none;html=1;rounded=0;exitX=1;exitY=0.5;exitDx=0;exitDy=0;entryX=0.5;entryY=1;entryDx=0;entryDy=0;" parent="1" source="FiSoTK_a6ErY7vM4Nett-29" target="SxwjOFgCjAVxQlt7yb_m-2" edge="1">
          <mxGeometry width="50" height="50" relative="1" as="geometry">
            <mxPoint x="2470" y="490" as="sourcePoint" />
            <mxPoint x="2520" y="440" as="targetPoint" />
          </mxGeometry>
        </mxCell>
        <mxCell id="FiSoTK_a6ErY7vM4Nett-36" value="" style="group" parent="1" vertex="1" connectable="0">
          <mxGeometry x="2240" y="378" width="140" height="94" as="geometry" />
        </mxCell>
        <mxCell id="FiSoTK_a6ErY7vM4Nett-29" value="belong&lt;div&gt;has&lt;/div&gt;" style="rhombus;whiteSpace=wrap;html=1;fontFamily=Comic Sans MS;" parent="FiSoTK_a6ErY7vM4Nett-36" vertex="1">
          <mxGeometry x="35" y="4.5" width="80" height="80" as="geometry" />
        </mxCell>
        <mxCell id="FiSoTK_a6ErY7vM4Nett-30" value="1" style="text;html=1;align=center;verticalAlign=middle;resizable=0;points=[];autosize=1;strokeColor=none;fillColor=none;fontFamily=Comic Sans MS;" parent="FiSoTK_a6ErY7vM4Nett-36" vertex="1">
          <mxGeometry y="22" width="30" height="30" as="geometry" />
        </mxCell>
        <mxCell id="FiSoTK_a6ErY7vM4Nett-31" value="1" style="text;html=1;align=center;verticalAlign=middle;resizable=0;points=[];autosize=1;strokeColor=none;fillColor=none;fontFamily=Comic Sans MS;" parent="FiSoTK_a6ErY7vM4Nett-36" vertex="1">
          <mxGeometry x="100" width="30" height="30" as="geometry" />
        </mxCell>
        <mxCell id="FiSoTK_a6ErY7vM4Nett-32" value="1" style="text;html=1;align=center;verticalAlign=middle;resizable=0;points=[];autosize=1;strokeColor=none;fillColor=none;fontFamily=Comic Sans MS;" parent="FiSoTK_a6ErY7vM4Nett-36" vertex="1">
          <mxGeometry x="110" y="42.5" width="30" height="30" as="geometry" />
        </mxCell>
        <mxCell id="FiSoTK_a6ErY7vM4Nett-33" value="M" style="text;html=1;align=center;verticalAlign=middle;resizable=0;points=[];autosize=1;strokeColor=none;fillColor=none;fontFamily=Comic Sans MS;" parent="FiSoTK_a6ErY7vM4Nett-36" vertex="1">
          <mxGeometry x="5" y="64" width="30" height="30" as="geometry" />
        </mxCell>
        <mxCell id="FiSoTK_a6ErY7vM4Nett-37" value="" style="group" parent="1" vertex="1" connectable="0">
          <mxGeometry x="2720" y="480" width="140" height="94" as="geometry" />
        </mxCell>
        <mxCell id="FiSoTK_a6ErY7vM4Nett-38" value="belong&lt;div&gt;has&lt;/div&gt;" style="rhombus;whiteSpace=wrap;html=1;fontFamily=Comic Sans MS;" parent="FiSoTK_a6ErY7vM4Nett-37" vertex="1">
          <mxGeometry x="35" y="4.5" width="80" height="80" as="geometry" />
        </mxCell>
        <mxCell id="FiSoTK_a6ErY7vM4Nett-39" value="1" style="text;html=1;align=center;verticalAlign=middle;resizable=0;points=[];autosize=1;strokeColor=none;fillColor=none;fontFamily=Comic Sans MS;" parent="FiSoTK_a6ErY7vM4Nett-37" vertex="1">
          <mxGeometry y="22" width="30" height="30" as="geometry" />
        </mxCell>
        <mxCell id="FiSoTK_a6ErY7vM4Nett-40" value="1" style="text;html=1;align=center;verticalAlign=middle;resizable=0;points=[];autosize=1;strokeColor=none;fillColor=none;fontFamily=Comic Sans MS;" parent="FiSoTK_a6ErY7vM4Nett-37" vertex="1">
          <mxGeometry x="100" width="30" height="30" as="geometry" />
        </mxCell>
        <mxCell id="FiSoTK_a6ErY7vM4Nett-41" value="1" style="text;html=1;align=center;verticalAlign=middle;resizable=0;points=[];autosize=1;strokeColor=none;fillColor=none;fontFamily=Comic Sans MS;" parent="FiSoTK_a6ErY7vM4Nett-37" vertex="1">
          <mxGeometry x="110" y="42.5" width="30" height="30" as="geometry" />
        </mxCell>
        <mxCell id="FiSoTK_a6ErY7vM4Nett-42" value="M" style="text;html=1;align=center;verticalAlign=middle;resizable=0;points=[];autosize=1;strokeColor=none;fillColor=none;fontFamily=Comic Sans MS;" parent="FiSoTK_a6ErY7vM4Nett-37" vertex="1">
          <mxGeometry x="5" y="64" width="30" height="30" as="geometry" />
        </mxCell>
        <mxCell id="FiSoTK_a6ErY7vM4Nett-43" value="" style="endArrow=none;html=1;rounded=0;exitX=1;exitY=0.5;exitDx=0;exitDy=0;entryX=0.75;entryY=1;entryDx=0;entryDy=0;" parent="1" source="FiSoTK_a6ErY7vM4Nett-38" target="SxwjOFgCjAVxQlt7yb_m-1" edge="1">
          <mxGeometry width="50" height="50" relative="1" as="geometry">
            <mxPoint x="2980" y="510" as="sourcePoint" />
            <mxPoint x="3030" y="460" as="targetPoint" />
          </mxGeometry>
        </mxCell>
        <mxCell id="FiSoTK_a6ErY7vM4Nett-44" value="" style="endArrow=none;html=1;rounded=0;entryX=0;entryY=0.5;entryDx=0;entryDy=0;" parent="1" target="FiSoTK_a6ErY7vM4Nett-38" edge="1">
          <mxGeometry width="50" height="50" relative="1" as="geometry">
            <mxPoint x="500" y="40" as="sourcePoint" />
            <mxPoint x="2560" y="520" as="targetPoint" />
            <Array as="points">
              <mxPoint x="480" y="290" />
              <mxPoint x="930" y="300" />
              <mxPoint x="1290" y="360" />
            </Array>
          </mxGeometry>
        </mxCell>
        <mxCell id="jpWI7klVFFfcuw7bD94E-2" value="" style="endArrow=none;html=1;rounded=0;entryX=0;entryY=0.5;entryDx=0;entryDy=0;exitX=1;exitY=0;exitDx=0;exitDy=0;" parent="1" source="04XY_-OeRvuLBQSi6XDU-46" target="jpWI7klVFFfcuw7bD94E-1" edge="1">
          <mxGeometry width="50" height="50" relative="1" as="geometry">
            <mxPoint x="1060" y="470" as="sourcePoint" />
            <mxPoint x="1750" y="320" as="targetPoint" />
            <Array as="points">
              <mxPoint x="1150" y="470" />
            </Array>
          </mxGeometry>
        </mxCell>
        <mxCell id="jpWI7klVFFfcuw7bD94E-8" value="" style="group" parent="1" vertex="1" connectable="0">
          <mxGeometry x="1840" y="308" width="135" height="92.5" as="geometry" />
        </mxCell>
        <mxCell id="jpWI7klVFFfcuw7bD94E-1" value="has&lt;div&gt;belong&lt;/div&gt;" style="rhombus;whiteSpace=wrap;html=1;fontFamily=Comic Sans MS;" parent="jpWI7klVFFfcuw7bD94E-8" vertex="1">
          <mxGeometry x="20" y="12.5" width="80" height="80" as="geometry" />
        </mxCell>
        <mxCell id="jpWI7klVFFfcuw7bD94E-3" value="" style="endArrow=none;html=1;rounded=0;entryX=0;entryY=1;entryDx=0;entryDy=0;exitX=1;exitY=0;exitDx=0;exitDy=0;" parent="jpWI7klVFFfcuw7bD94E-8" source="jpWI7klVFFfcuw7bD94E-1" target="SxwjOFgCjAVxQlt7yb_m-3" edge="1">
          <mxGeometry width="50" height="50" relative="1" as="geometry">
            <mxPoint x="130" y="102" as="sourcePoint" />
            <mxPoint x="180" y="52" as="targetPoint" />
          </mxGeometry>
        </mxCell>
        <mxCell id="jpWI7klVFFfcuw7bD94E-4" value="1" style="text;html=1;align=center;verticalAlign=middle;resizable=0;points=[];autosize=1;strokeColor=none;fillColor=none;" parent="jpWI7klVFFfcuw7bD94E-8" vertex="1">
          <mxGeometry x="70" width="30" height="30" as="geometry" />
        </mxCell>
        <mxCell id="jpWI7klVFFfcuw7bD94E-5" value="M" style="text;html=1;align=center;verticalAlign=middle;resizable=0;points=[];autosize=1;strokeColor=none;fillColor=none;" parent="jpWI7klVFFfcuw7bD94E-8" vertex="1">
          <mxGeometry y="15" width="30" height="30" as="geometry" />
        </mxCell>
        <mxCell id="jpWI7klVFFfcuw7bD94E-6" value="1" style="text;html=1;align=center;verticalAlign=middle;resizable=0;points=[];autosize=1;strokeColor=none;fillColor=none;" parent="jpWI7klVFFfcuw7bD94E-8" vertex="1">
          <mxGeometry x="5" y="60" width="30" height="30" as="geometry" />
        </mxCell>
        <mxCell id="jpWI7klVFFfcuw7bD94E-7" value="1" style="text;html=1;align=center;verticalAlign=middle;resizable=0;points=[];autosize=1;strokeColor=none;fillColor=none;" parent="jpWI7klVFFfcuw7bD94E-8" vertex="1">
          <mxGeometry x="105" y="30" width="30" height="30" as="geometry" />
        </mxCell>
        <mxCell id="jpWI7klVFFfcuw7bD94E-16" value="" style="group" parent="1" vertex="1" connectable="0">
          <mxGeometry x="2240" y="538" width="135" height="92.5" as="geometry" />
        </mxCell>
        <mxCell id="jpWI7klVFFfcuw7bD94E-17" value="has&lt;div&gt;belong&lt;/div&gt;" style="rhombus;whiteSpace=wrap;html=1;fontFamily=Comic Sans MS;" parent="jpWI7klVFFfcuw7bD94E-16" vertex="1">
          <mxGeometry x="20" y="12.5" width="80" height="80" as="geometry" />
        </mxCell>
        <mxCell id="jpWI7klVFFfcuw7bD94E-19" value="1" style="text;html=1;align=center;verticalAlign=middle;resizable=0;points=[];autosize=1;strokeColor=none;fillColor=none;" parent="jpWI7klVFFfcuw7bD94E-16" vertex="1">
          <mxGeometry x="70" width="30" height="30" as="geometry" />
        </mxCell>
        <mxCell id="jpWI7klVFFfcuw7bD94E-20" value="M" style="text;html=1;align=center;verticalAlign=middle;resizable=0;points=[];autosize=1;strokeColor=none;fillColor=none;" parent="jpWI7klVFFfcuw7bD94E-16" vertex="1">
          <mxGeometry y="15" width="30" height="30" as="geometry" />
        </mxCell>
        <mxCell id="jpWI7klVFFfcuw7bD94E-21" value="1" style="text;html=1;align=center;verticalAlign=middle;resizable=0;points=[];autosize=1;strokeColor=none;fillColor=none;" parent="jpWI7klVFFfcuw7bD94E-16" vertex="1">
          <mxGeometry x="5" y="60" width="30" height="30" as="geometry" />
        </mxCell>
        <mxCell id="jpWI7klVFFfcuw7bD94E-22" value="1" style="text;html=1;align=center;verticalAlign=middle;resizable=0;points=[];autosize=1;strokeColor=none;fillColor=none;" parent="jpWI7klVFFfcuw7bD94E-16" vertex="1">
          <mxGeometry x="105" y="30" width="30" height="30" as="geometry" />
        </mxCell>
        <mxCell id="jpWI7klVFFfcuw7bD94E-18" value="" style="endArrow=none;html=1;rounded=0;entryX=0.5;entryY=1;entryDx=0;entryDy=0;exitX=1;exitY=0;exitDx=0;exitDy=0;" parent="1" source="jpWI7klVFFfcuw7bD94E-17" target="SxwjOFgCjAVxQlt7yb_m-2" edge="1">
          <mxGeometry width="50" height="50" relative="1" as="geometry">
            <mxPoint x="2370" y="640" as="sourcePoint" />
            <mxPoint x="2420" y="590" as="targetPoint" />
            <Array as="points">
              <mxPoint x="2430" y="460" />
            </Array>
          </mxGeometry>
        </mxCell>
        <mxCell id="jpWI7klVFFfcuw7bD94E-23" value="" style="endArrow=none;html=1;rounded=0;entryX=0;entryY=1;entryDx=0;entryDy=0;exitX=1;exitY=0.5;exitDx=0;exitDy=0;" parent="1" source="04XY_-OeRvuLBQSi6XDU-46" target="jpWI7klVFFfcuw7bD94E-17" edge="1">
          <mxGeometry width="50" height="50" relative="1" as="geometry">
            <mxPoint x="2030" y="810" as="sourcePoint" />
            <mxPoint x="2080" y="760" as="targetPoint" />
            <Array as="points">
              <mxPoint x="870" y="630" />
              <mxPoint x="1440" y="750" />
              <mxPoint x="1580" y="710" />
              <mxPoint x="1770" y="720" />
              <mxPoint x="2090" y="790" />
            </Array>
          </mxGeometry>
        </mxCell>
        <mxCell id="jpWI7klVFFfcuw7bD94E-24" value="" style="group" parent="1" vertex="1" connectable="0">
          <mxGeometry x="2470" y="650" width="135" height="92.5" as="geometry" />
        </mxCell>
        <mxCell id="jpWI7klVFFfcuw7bD94E-25" value="has&lt;div&gt;belong&lt;/div&gt;" style="rhombus;whiteSpace=wrap;html=1;fontFamily=Comic Sans MS;" parent="jpWI7klVFFfcuw7bD94E-24" vertex="1">
          <mxGeometry x="20" y="12.5" width="80" height="80" as="geometry" />
        </mxCell>
        <mxCell id="jpWI7klVFFfcuw7bD94E-26" value="1" style="text;html=1;align=center;verticalAlign=middle;resizable=0;points=[];autosize=1;strokeColor=none;fillColor=none;" parent="jpWI7klVFFfcuw7bD94E-24" vertex="1">
          <mxGeometry x="70" width="30" height="30" as="geometry" />
        </mxCell>
        <mxCell id="jpWI7klVFFfcuw7bD94E-27" value="M" style="text;html=1;align=center;verticalAlign=middle;resizable=0;points=[];autosize=1;strokeColor=none;fillColor=none;" parent="jpWI7klVFFfcuw7bD94E-24" vertex="1">
          <mxGeometry y="15" width="30" height="30" as="geometry" />
        </mxCell>
        <mxCell id="jpWI7klVFFfcuw7bD94E-28" value="1" style="text;html=1;align=center;verticalAlign=middle;resizable=0;points=[];autosize=1;strokeColor=none;fillColor=none;" parent="jpWI7klVFFfcuw7bD94E-24" vertex="1">
          <mxGeometry x="5" y="60" width="30" height="30" as="geometry" />
        </mxCell>
        <mxCell id="jpWI7klVFFfcuw7bD94E-29" value="1" style="text;html=1;align=center;verticalAlign=middle;resizable=0;points=[];autosize=1;strokeColor=none;fillColor=none;" parent="jpWI7klVFFfcuw7bD94E-24" vertex="1">
          <mxGeometry x="105" y="30" width="30" height="30" as="geometry" />
        </mxCell>
        <mxCell id="jpWI7klVFFfcuw7bD94E-30" value="" style="endArrow=none;html=1;rounded=0;exitX=1;exitY=0.5;exitDx=0;exitDy=0;entryX=1;entryY=0.75;entryDx=0;entryDy=0;" parent="1" source="jpWI7klVFFfcuw7bD94E-25" target="SxwjOFgCjAVxQlt7yb_m-1" edge="1">
          <mxGeometry width="50" height="50" relative="1" as="geometry">
            <mxPoint x="2770" y="720" as="sourcePoint" />
            <mxPoint x="2820" y="670" as="targetPoint" />
            <Array as="points">
              <mxPoint x="3030" y="660" />
            </Array>
          </mxGeometry>
        </mxCell>
        <mxCell id="jpWI7klVFFfcuw7bD94E-31" value="" style="endArrow=none;html=1;rounded=0;entryX=0;entryY=0.5;entryDx=0;entryDy=0;exitX=1;exitY=0.5;exitDx=0;exitDy=0;" parent="1" source="04XY_-OeRvuLBQSi6XDU-46" target="jpWI7klVFFfcuw7bD94E-25" edge="1">
          <mxGeometry width="50" height="50" relative="1" as="geometry">
            <mxPoint x="2260" y="830" as="sourcePoint" />
            <mxPoint x="2310" y="780" as="targetPoint" />
            <Array as="points">
              <mxPoint x="980" y="750" />
              <mxPoint x="1480" y="730" />
            </Array>
          </mxGeometry>
        </mxCell>
        <mxCell id="MOf7jG8oFLiuR1t8Jh1M-9" value="&lt;div style=&quot;text-align: left;&quot;&gt;Amenity&lt;/div&gt;" style="rounded=0;whiteSpace=wrap;html=1;fontFamily=Comic Sans MS;fontSize=14;" vertex="1" parent="1">
          <mxGeometry x="1380" y="1175" width="180" height="80" as="geometry" />
        </mxCell>
        <mxCell id="MOf7jG8oFLiuR1t8Jh1M-10" value="&lt;b&gt;&lt;u&gt;id&lt;/u&gt;&lt;/b&gt;" style="ellipse;whiteSpace=wrap;html=1;fontSize=14;fontFamily=Comic Sans MS;" vertex="1" parent="1">
          <mxGeometry x="1375" y="1110" width="60" height="50" as="geometry" />
        </mxCell>
        <mxCell id="MOf7jG8oFLiuR1t8Jh1M-11" value="name" style="ellipse;whiteSpace=wrap;html=1;fontSize=14;fontFamily=Comic Sans MS;" vertex="1" parent="1">
          <mxGeometry x="1460" y="1110" width="60" height="50" as="geometry" />
        </mxCell>
        <mxCell id="MOf7jG8oFLiuR1t8Jh1M-12" value="" style="endArrow=none;html=1;rounded=0;entryX=0.5;entryY=1;entryDx=0;entryDy=0;exitX=0.25;exitY=0;exitDx=0;exitDy=0;fontFamily=Comic Sans MS;" edge="1" parent="1" source="MOf7jG8oFLiuR1t8Jh1M-9" target="MOf7jG8oFLiuR1t8Jh1M-10">
          <mxGeometry width="50" height="50" relative="1" as="geometry">
            <mxPoint x="1330" y="1207" as="sourcePoint" />
            <mxPoint x="1380" y="1157" as="targetPoint" />
          </mxGeometry>
        </mxCell>
        <mxCell id="MOf7jG8oFLiuR1t8Jh1M-13" value="&lt;div style=&quot;text-align: left;&quot;&gt;PropertyAmenity&lt;/div&gt;" style="rounded=0;whiteSpace=wrap;html=1;fontFamily=Comic Sans MS;fontSize=14;" vertex="1" parent="1">
          <mxGeometry x="980" y="1175" width="180" height="80" as="geometry" />
        </mxCell>
        <mxCell id="MOf7jG8oFLiuR1t8Jh1M-14" value="has" style="rhombus;whiteSpace=wrap;html=1;fontFamily=Comic Sans MS;" vertex="1" parent="1">
          <mxGeometry x="860" y="1175" width="80" height="80" as="geometry" />
        </mxCell>
        <mxCell id="MOf7jG8oFLiuR1t8Jh1M-15" value="" style="endArrow=none;html=1;rounded=0;entryX=0;entryY=0.5;entryDx=0;entryDy=0;exitX=1;exitY=0.5;exitDx=0;exitDy=0;fontFamily=Comic Sans MS;" edge="1" parent="1" source="MOf7jG8oFLiuR1t8Jh1M-14" target="MOf7jG8oFLiuR1t8Jh1M-13">
          <mxGeometry width="50" height="50" relative="1" as="geometry">
            <mxPoint x="910" y="1357" as="sourcePoint" />
            <mxPoint x="960" y="1307" as="targetPoint" />
          </mxGeometry>
        </mxCell>
        <mxCell id="MOf7jG8oFLiuR1t8Jh1M-16" value="M" style="text;html=1;align=center;verticalAlign=middle;resizable=0;points=[];autosize=1;strokeColor=none;fillColor=none;fontFamily=Comic Sans MS;" vertex="1" parent="1">
          <mxGeometry x="950" y="1187" width="30" height="30" as="geometry" />
        </mxCell>
        <mxCell id="MOf7jG8oFLiuR1t8Jh1M-17" value="has" style="rhombus;whiteSpace=wrap;html=1;fontFamily=Comic Sans MS;" vertex="1" parent="1">
          <mxGeometry x="1230" y="1175" width="80" height="80" as="geometry" />
        </mxCell>
        <mxCell id="MOf7jG8oFLiuR1t8Jh1M-18" value="" style="endArrow=none;html=1;rounded=0;entryX=0;entryY=0.5;entryDx=0;entryDy=0;exitX=1;exitY=0.5;exitDx=0;exitDy=0;fontFamily=Comic Sans MS;" edge="1" parent="1" source="MOf7jG8oFLiuR1t8Jh1M-17" target="MOf7jG8oFLiuR1t8Jh1M-9">
          <mxGeometry width="50" height="50" relative="1" as="geometry">
            <mxPoint x="1180" y="1357" as="sourcePoint" />
            <mxPoint x="1230" y="1307" as="targetPoint" />
          </mxGeometry>
        </mxCell>
        <mxCell id="MOf7jG8oFLiuR1t8Jh1M-19" value="" style="endArrow=none;html=1;rounded=0;entryX=0;entryY=0.5;entryDx=0;entryDy=0;exitX=1;exitY=0.5;exitDx=0;exitDy=0;fontFamily=Comic Sans MS;" edge="1" parent="1" source="MOf7jG8oFLiuR1t8Jh1M-13" target="MOf7jG8oFLiuR1t8Jh1M-17">
          <mxGeometry width="50" height="50" relative="1" as="geometry">
            <mxPoint x="1180" y="1327" as="sourcePoint" />
            <mxPoint x="1230" y="1277" as="targetPoint" />
          </mxGeometry>
        </mxCell>
        <mxCell id="MOf7jG8oFLiuR1t8Jh1M-20" value="1" style="text;html=1;align=center;verticalAlign=middle;resizable=0;points=[];autosize=1;strokeColor=none;fillColor=none;fontFamily=Comic Sans MS;" vertex="1" parent="1">
          <mxGeometry x="1350" y="1187" width="30" height="30" as="geometry" />
        </mxCell>
        <mxCell id="MOf7jG8oFLiuR1t8Jh1M-21" value="M" style="text;html=1;align=center;verticalAlign=middle;resizable=0;points=[];autosize=1;strokeColor=none;fillColor=none;fontFamily=Comic Sans MS;" vertex="1" parent="1">
          <mxGeometry x="1165" y="1185" width="30" height="30" as="geometry" />
        </mxCell>
        <mxCell id="MOf7jG8oFLiuR1t8Jh1M-22" value="1" style="text;html=1;align=center;verticalAlign=middle;resizable=0;points=[];autosize=1;strokeColor=none;fillColor=none;fontFamily=Comic Sans MS;" vertex="1" parent="1">
          <mxGeometry x="1165" y="1215" width="30" height="30" as="geometry" />
        </mxCell>
        <mxCell id="MOf7jG8oFLiuR1t8Jh1M-23" value="1" style="text;html=1;align=center;verticalAlign=middle;resizable=0;points=[];autosize=1;strokeColor=none;fillColor=none;fontFamily=Comic Sans MS;" vertex="1" parent="1">
          <mxGeometry x="1345" y="1215" width="30" height="30" as="geometry" />
        </mxCell>
        <mxCell id="MOf7jG8oFLiuR1t8Jh1M-24" value="" style="endArrow=none;html=1;rounded=0;entryX=0;entryY=0.5;entryDx=0;entryDy=0;exitX=1;exitY=1;exitDx=0;exitDy=0;" edge="1" parent="1" source="04XY_-OeRvuLBQSi6XDU-46" target="MOf7jG8oFLiuR1t8Jh1M-14">
          <mxGeometry width="50" height="50" relative="1" as="geometry">
            <mxPoint x="740" y="1150" as="sourcePoint" />
            <mxPoint x="790" y="1100" as="targetPoint" />
          </mxGeometry>
        </mxCell>
        <mxCell id="MOf7jG8oFLiuR1t8Jh1M-26" value="" style="endArrow=none;html=1;rounded=0;entryX=0.25;entryY=1;entryDx=0;entryDy=0;exitX=0.5;exitY=0;exitDx=0;exitDy=0;" edge="1" parent="1" source="04XY_-OeRvuLBQSi6XDU-85" target="04XY_-OeRvuLBQSi6XDU-46">
          <mxGeometry width="50" height="50" relative="1" as="geometry">
            <mxPoint x="320" y="830" as="sourcePoint" />
            <mxPoint x="370" y="780" as="targetPoint" />
          </mxGeometry>
        </mxCell>
        <mxCell id="MOf7jG8oFLiuR1t8Jh1M-27" value="" style="endArrow=none;html=1;rounded=0;entryX=0.5;entryY=1;entryDx=0;entryDy=0;exitX=0.5;exitY=0;exitDx=0;exitDy=0;" edge="1" parent="1" source="ZNw0YUR-elSEx9iUAE71-4" target="04XY_-OeRvuLBQSi6XDU-46">
          <mxGeometry width="50" height="50" relative="1" as="geometry">
            <mxPoint x="400" y="840" as="sourcePoint" />
            <mxPoint x="450" y="790" as="targetPoint" />
          </mxGeometry>
        </mxCell>
        <mxCell id="MOf7jG8oFLiuR1t8Jh1M-28" value="1" style="text;html=1;align=center;verticalAlign=middle;resizable=0;points=[];autosize=1;strokeColor=none;fillColor=none;" vertex="1" parent="1">
          <mxGeometry x="845" y="1168" width="30" height="30" as="geometry" />
        </mxCell>
      </root>
    </mxGraphModel>
  </diagram>
</mxfile>
